<svg width="1440" height="352" viewBox="0 0 1440 352" fill="none" xmlns="http://www.w3.org/2000/svg">
<path d="M117 334.8C60.7429 334.8 15 289.057 15 232.8C15 176.543 60.7429 130.8 117 130.8C173.257 130.8 219 176.543 219 232.8C219 289.057 173.257 334.8 117 334.8Z" fill="#BBBBBB"/>
<path d="M117 333.8C61.8723 333.8 17 288.703 17 233.3C17 177.897 61.8305 132.8 117 132.8C172.17 132.8 217 177.897 217 233.3C217 288.703 172.128 333.8 117 333.8Z" fill="url(#paint0_radial_9_692)"/>
<path d="M1323 334.8C1266.74 334.8 1221 289.057 1221 232.8C1221 176.543 1266.74 130.8 1323 130.8C1379.26 130.8 1425 176.543 1425 232.8C1425 289.057 1379.26 334.8 1323 334.8Z" fill="#BBBBBB"/>
<path d="M1323 333.8C1267.87 333.8 1223 288.703 1223 233.3C1223 177.897 1267.83 132.8 1323 132.8C1378.17 132.8 1423 177.897 1423 233.3C1423 288.703 1378.13 333.8 1323 333.8Z" fill="url(#paint1_radial_9_692)"/>
<path d="M317.634 160.184H321.492C322.055 160.184 322.437 160.083 322.638 159.882C322.839 159.641 322.939 159.259 322.939 158.737V153.914H319.684C316.991 153.914 314.459 153.351 312.087 152.226C309.716 151.1 307.807 149.513 306.36 147.463C304.953 145.413 304.25 143.062 304.25 140.409C304.25 137.757 304.953 135.405 306.36 133.356C307.807 131.306 309.716 129.718 312.087 128.593C314.459 127.467 316.991 126.905 319.684 126.905H322.939V122.564C322.939 122.001 322.839 121.62 322.638 121.419C322.437 121.218 322.055 121.117 321.492 121.117H317.634V119.188H337.167V121.117H333.309C332.786 121.117 332.404 121.218 332.163 121.419C331.962 121.62 331.862 122.001 331.862 122.564V126.905H335.117C337.81 126.905 340.342 127.467 342.714 128.593C345.085 129.718 346.974 131.306 348.381 133.356C349.828 135.405 350.551 137.757 350.551 140.409C350.551 143.062 349.828 145.413 348.381 147.463C346.974 149.513 345.085 151.1 342.714 152.226C340.342 153.351 337.81 153.914 335.117 153.914H331.862V158.737C331.862 159.259 331.962 159.641 332.163 159.882C332.404 160.083 332.786 160.184 333.309 160.184H337.167V162.113H317.634V160.184ZM322.939 151.984V128.834H321.191C318.578 128.834 316.71 129.778 315.584 131.667C314.459 133.556 313.896 136.47 313.896 140.409C313.896 144.348 314.459 147.262 315.584 149.151C316.71 151.04 318.578 151.984 321.191 151.984H322.939ZM333.61 151.984C336.223 151.984 338.092 151.04 339.217 149.151C340.342 147.262 340.905 144.348 340.905 140.409C340.905 136.47 340.342 133.556 339.217 131.667C338.092 129.778 336.223 128.834 333.61 128.834H331.862V151.984H333.61ZM360.472 162.836C358.262 162.836 356.373 162.294 354.805 161.208C353.278 160.123 352.514 158.295 352.514 155.722C352.514 153.11 353.459 151.06 355.348 149.573C357.277 148.046 359.709 146.78 362.643 145.775L367.104 144.207V140.108C367.104 138.058 366.682 136.571 365.838 135.646C364.994 134.722 363.909 134.26 362.582 134.26C361.457 134.26 360.472 134.521 359.628 135.044C358.824 135.526 358.422 136.209 358.422 137.093C358.422 137.335 358.483 137.636 358.603 137.998C358.764 138.319 359.025 138.601 359.387 138.842C359.99 139.203 360.412 139.585 360.653 139.987C360.934 140.389 361.075 140.912 361.075 141.555C361.075 142.519 360.713 143.283 359.99 143.846C359.307 144.368 358.543 144.629 357.699 144.629C356.654 144.629 355.75 144.288 354.986 143.604C354.263 142.881 353.901 141.856 353.901 140.53C353.901 139.002 354.363 137.656 355.287 136.49C356.212 135.285 357.398 134.38 358.844 133.778C360.291 133.134 361.758 132.813 363.245 132.813C366.139 132.813 368.671 133.597 370.842 135.164C373.012 136.691 374.097 139.143 374.097 142.519V157.772C374.097 159.219 374.499 159.942 375.303 159.942C376.026 159.942 376.569 159.34 376.931 158.134C377.292 156.928 377.473 155.541 377.473 153.974H379.161C379.161 156.908 378.719 159.058 377.835 160.425C377.393 161.148 376.77 161.731 375.966 162.173C375.162 162.615 374.238 162.836 373.193 162.836C371.545 162.836 370.299 162.595 369.455 162.113C368.611 161.59 367.908 160.746 367.345 159.581H367.224C365.617 161.751 363.366 162.836 360.472 162.836ZM363.426 160.425C364.994 160.425 366.22 159.541 367.104 157.772V145.835L363.728 147.041C362.401 147.523 361.417 148.448 360.774 149.814C360.171 151.14 359.869 152.929 359.869 155.18C359.869 157.149 360.231 158.516 360.954 159.279C361.678 160.043 362.502 160.425 363.426 160.425ZM402.662 162.836C400.693 162.836 399.125 162.334 397.96 161.329C396.794 160.284 396.212 158.777 396.212 156.807V152.045C396.212 150.919 395.95 150.035 395.428 149.392C394.905 148.709 394.242 148.367 393.438 148.367H390.303V159.701C390.303 160.063 390.364 160.324 390.484 160.485C390.645 160.606 390.906 160.666 391.268 160.666H393.197V162.113H380.054V160.666H382.345C382.707 160.666 382.948 160.606 383.069 160.485C383.23 160.324 383.31 160.063 383.31 159.701V135.948C383.31 135.586 383.23 135.345 383.069 135.224C382.948 135.064 382.707 134.983 382.345 134.983H380.054V133.536H393.197V134.983H391.268C390.906 134.983 390.645 135.064 390.484 135.224C390.364 135.345 390.303 135.586 390.303 135.948V146.679H394.101C394.945 146.679 395.568 146.358 395.97 145.715C396.372 145.071 396.573 144.227 396.573 143.182V139.083C396.573 137.073 397.096 135.526 398.141 134.441C399.226 133.356 400.512 132.813 401.999 132.813C403.446 132.813 404.592 133.235 405.436 134.079C406.28 134.923 406.702 136.048 406.702 137.455C406.702 138.58 406.3 139.525 405.496 140.289C404.732 141.012 403.888 141.374 402.964 141.374C402.08 141.374 401.336 141.133 400.733 140.65C400.13 140.128 399.829 139.424 399.829 138.54C399.829 138.018 400.03 137.455 400.432 136.852C400.753 136.41 400.914 136.048 400.914 135.767C400.914 135.405 400.713 135.224 400.311 135.224C399.748 135.224 399.266 135.546 398.864 136.189C398.462 136.792 398.261 137.736 398.261 139.023V143.182C398.261 144.107 398.141 144.87 397.9 145.473C397.658 146.036 397.236 146.518 396.634 146.92V147.222C398.724 147.503 400.331 148.227 401.457 149.392C402.622 150.558 403.205 152.346 403.205 154.758V158.676C403.205 159.762 403.647 160.304 404.531 160.304C405.255 160.304 405.777 159.762 406.099 158.676C406.42 157.551 406.581 156.164 406.581 154.517H408.149C408.149 157.169 407.747 159.219 406.943 160.666C406.179 162.113 404.752 162.836 402.662 162.836ZM413.416 160.666H416.792C417.154 160.666 417.395 160.606 417.515 160.485C417.676 160.324 417.756 160.063 417.756 159.701V135.948C417.756 135.546 417.676 135.285 417.515 135.164C417.395 135.044 417.154 134.983 416.792 134.983C415.908 134.983 415.043 135.486 414.199 136.49C413.396 137.455 412.732 138.58 412.21 139.867C411.647 141.233 411.225 142.439 410.944 143.484C410.703 144.529 410.562 145.192 410.522 145.473H408.834L409.196 133.536H433.311L433.672 145.473H431.984C431.944 145.192 431.783 144.529 431.502 143.484C431.261 142.439 430.859 141.233 430.296 139.867C429.774 138.58 429.091 137.455 428.246 136.49C427.443 135.486 426.599 134.983 425.714 134.983C425.353 134.983 425.091 135.044 424.931 135.164C424.81 135.285 424.75 135.546 424.75 135.948V159.701C424.75 160.063 424.81 160.324 424.931 160.485C425.091 160.606 425.353 160.666 425.714 160.666H429.091V162.113H413.416V160.666ZM451.074 160.184H455.294C455.857 160.184 456.239 160.083 456.44 159.882C456.641 159.641 456.741 159.259 456.741 158.737V122.564C456.741 122.001 456.641 121.62 456.44 121.419C456.239 121.218 455.857 121.117 455.294 121.117H451.074V119.188H483.75L484.233 134.863H482.303C482.303 134.622 482.102 133.697 481.701 132.089C481.299 130.482 480.776 129.015 480.133 127.688C478.083 123.308 475.531 121.117 472.477 121.117H467.111C466.588 121.117 466.207 121.218 465.965 121.419C465.764 121.62 465.664 122.001 465.664 122.564V138.721H472.899C475.712 138.721 478.204 139.224 480.374 140.228C482.585 141.233 484.293 142.62 485.499 144.388C486.745 146.116 487.368 148.086 487.368 150.296C487.368 152.507 486.745 154.517 485.499 156.325C484.293 158.094 482.585 159.5 480.374 160.545C478.204 161.59 475.712 162.113 472.899 162.113H451.074V160.184ZM471.994 160.184C475.812 160.184 477.722 156.767 477.722 149.935C477.722 147.001 477.3 144.73 476.455 143.122C475.611 141.474 474.124 140.65 471.994 140.65H465.664V158.737C465.664 159.259 465.764 159.641 465.965 159.882C466.207 160.083 466.588 160.184 467.111 160.184H471.994ZM491.046 160.184H495.266C495.828 160.184 496.21 160.083 496.411 159.882C496.612 159.641 496.713 159.259 496.713 158.737V122.564C496.713 122.001 496.612 121.62 496.411 121.419C496.21 121.218 495.828 121.117 495.266 121.117H491.046V119.188H512.267C514.638 119.188 516.849 119.63 518.899 120.514C520.989 121.398 522.657 122.624 523.902 124.192C525.148 125.719 525.771 127.467 525.771 129.437C525.771 132.089 524.787 134.24 522.817 135.888C520.848 137.535 518.436 138.741 515.583 139.505V139.867C517.432 140.148 519.24 140.751 521.009 141.675C522.817 142.559 524.304 143.745 525.47 145.232C526.635 146.719 527.218 148.448 527.218 150.417C527.218 152.869 526.575 154.979 525.289 156.747C524.003 158.516 522.275 159.862 520.104 160.786C517.974 161.671 515.623 162.113 513.051 162.113H491.046V160.184ZM511.182 138.721C513.352 138.721 514.819 137.957 515.583 136.43C516.346 134.863 516.728 132.532 516.728 129.437C516.728 126.824 516.266 124.795 515.342 123.348C514.417 121.861 513.151 121.117 511.543 121.117H507.082C506.56 121.117 506.178 121.218 505.937 121.419C505.736 121.62 505.635 122.001 505.635 122.564V138.721H511.182ZM511.182 160.184C513.312 160.184 514.899 159.48 515.944 158.074C517.03 156.627 517.572 154.074 517.572 150.417C517.572 146.76 517.03 144.227 515.944 142.821C514.899 141.374 513.312 140.65 511.182 140.65H505.635V158.737C505.635 159.259 505.736 159.641 505.937 159.882C506.178 160.083 506.56 160.184 507.082 160.184H511.182Z" fill="#FDFDFD"/>
<path d="M574.586 160.666H577.721C578.967 160.666 579.952 160.445 580.675 160.003C581.398 159.52 581.981 158.757 582.423 157.712C584.071 153.853 585.357 149.091 586.282 143.424C587.246 137.757 587.729 131.507 587.729 124.674C587.729 122.303 586.684 121.117 584.594 121.117H581.218V119.188H613.411V121.117H609.191C608.669 121.117 608.287 121.218 608.046 121.419C607.845 121.62 607.744 122.001 607.744 122.564V157.772C607.744 158.857 607.985 159.621 608.468 160.063C608.99 160.465 609.814 160.666 610.939 160.666H614.979V174.17H613.05C613.009 173.929 612.909 173.346 612.748 172.422C612.587 171.538 612.306 170.493 611.904 169.287C611.502 168.121 610.96 167.056 610.276 166.092C608.347 163.439 606.036 162.113 603.343 162.113H586.221C583.529 162.113 581.218 163.439 579.288 166.092C578.605 167.056 578.063 168.121 577.661 169.287C577.259 170.493 576.977 171.538 576.817 172.422C576.656 173.346 576.555 173.929 576.515 174.17H574.586V160.666ZM597.375 160.184C597.937 160.184 598.319 160.083 598.52 159.882C598.721 159.641 598.822 159.259 598.822 158.737V122.564C598.822 122.001 598.721 121.62 598.52 121.419C598.319 121.218 597.937 121.117 597.375 121.117H594.782C593.215 121.117 592.049 121.539 591.286 122.383C590.522 123.227 590.14 124.674 590.14 126.724C590.14 131.708 589.758 136.832 588.995 142.097C588.231 147.362 587.467 151.301 586.704 153.914C586.101 156.124 585.799 157.491 585.799 158.013C585.799 158.777 585.98 159.34 586.342 159.701C586.744 160.023 587.407 160.184 588.332 160.184H597.375ZM616.621 160.666H618.912C619.273 160.666 619.514 160.606 619.635 160.485C619.796 160.324 619.876 160.063 619.876 159.701V135.948C619.876 135.586 619.796 135.345 619.635 135.224C619.514 135.064 619.273 134.983 618.912 134.983H616.621V133.536H629.763V134.983H627.834C627.472 134.983 627.211 135.064 627.05 135.224C626.93 135.345 626.87 135.586 626.87 135.948V154.999L636.033 137.033V135.948C636.033 135.586 635.953 135.345 635.792 135.224C635.672 135.064 635.43 134.983 635.069 134.983H633.139V133.536H646.282V134.983H643.991C643.63 134.983 643.368 135.064 643.208 135.224C643.087 135.345 643.027 135.586 643.027 135.948V159.701C643.027 160.063 643.087 160.324 643.208 160.485C643.368 160.606 643.63 160.666 643.991 160.666H646.282V162.113H633.139V160.666H635.069C635.43 160.666 635.672 160.606 635.792 160.485C635.953 160.324 636.033 160.063 636.033 159.701V140.65L626.87 158.616V159.701C626.87 160.063 626.93 160.324 627.05 160.485C627.211 160.606 627.472 160.666 627.834 160.666H629.763V162.113H616.621V160.666ZM656.728 162.836C654.517 162.836 652.628 162.294 651.061 161.208C649.534 160.123 648.77 158.295 648.77 155.722C648.77 153.11 649.715 151.06 651.604 149.573C653.533 148.046 655.964 146.78 658.898 145.775L663.36 144.207V140.108C663.36 138.058 662.938 136.571 662.094 135.646C661.25 134.722 660.164 134.26 658.838 134.26C657.713 134.26 656.728 134.521 655.884 135.044C655.08 135.526 654.678 136.209 654.678 137.093C654.678 137.335 654.739 137.636 654.859 137.998C655.02 138.319 655.281 138.601 655.643 138.842C656.246 139.203 656.668 139.585 656.909 139.987C657.19 140.389 657.331 140.912 657.331 141.555C657.331 142.519 656.969 143.283 656.246 143.846C655.562 144.368 654.799 144.629 653.955 144.629C652.91 144.629 652.005 144.288 651.242 143.604C650.518 142.881 650.157 141.856 650.157 140.53C650.157 139.002 650.619 137.656 651.543 136.49C652.468 135.285 653.653 134.38 655.1 133.778C656.547 133.134 658.014 132.813 659.501 132.813C662.395 132.813 664.927 133.597 667.098 135.164C669.268 136.691 670.353 139.143 670.353 142.519V157.772C670.353 159.219 670.755 159.942 671.559 159.942C672.282 159.942 672.825 159.34 673.187 158.134C673.548 156.928 673.729 155.541 673.729 153.974H675.417C675.417 156.908 674.975 159.058 674.091 160.425C673.649 161.148 673.026 161.731 672.222 162.173C671.418 162.615 670.494 162.836 669.449 162.836C667.801 162.836 666.555 162.595 665.711 162.113C664.867 161.59 664.163 160.746 663.601 159.581H663.48C661.873 161.751 659.622 162.836 656.728 162.836ZM659.682 160.425C661.25 160.425 662.475 159.541 663.36 157.772V145.835L659.984 147.041C658.657 147.523 657.673 148.448 657.029 149.814C656.427 151.14 656.125 152.929 656.125 155.18C656.125 157.149 656.487 158.516 657.21 159.279C657.934 160.043 658.758 160.425 659.682 160.425ZM679.747 162.836C678.219 162.836 676.973 162.334 676.009 161.329C675.084 160.324 674.622 159.139 674.622 157.772C674.622 156.526 675.024 155.481 675.828 154.637C676.672 153.753 677.657 153.311 678.782 153.311C679.867 153.311 680.671 153.632 681.194 154.275C681.716 154.878 681.977 155.521 681.977 156.205C681.977 156.928 681.676 157.631 681.073 158.315C680.912 158.516 680.772 158.717 680.651 158.918C680.571 159.078 680.53 159.279 680.53 159.52C680.53 159.842 680.611 160.083 680.772 160.244C680.972 160.364 681.194 160.425 681.435 160.425C682.239 160.425 682.982 159.681 683.665 158.194C684.389 156.667 684.851 154.175 685.052 150.718L685.534 143.182C685.695 140.57 685.775 138.621 685.775 137.335C685.775 136.651 685.655 136.089 685.414 135.646C685.213 135.204 684.771 134.983 684.087 134.983H681.857V133.536H702.957V134.983H700.666C700.305 134.983 700.044 135.064 699.883 135.224C699.762 135.345 699.702 135.586 699.702 135.948V159.701C699.702 160.063 699.762 160.324 699.883 160.485C700.044 160.606 700.305 160.666 700.666 160.666H702.957V162.113H689.453V160.666H691.744C692.106 160.666 692.347 160.606 692.467 160.485C692.628 160.324 692.708 160.063 692.708 159.701V135.948C692.708 135.586 692.628 135.345 692.467 135.224C692.347 135.064 692.106 134.983 691.744 134.983H690.237C689.272 134.983 688.569 135.345 688.127 136.068C687.685 136.752 687.423 137.837 687.343 139.324L686.559 151.201C686.157 158.958 683.886 162.836 679.747 162.836ZM717.876 162.836C715.706 162.836 713.676 162.193 711.787 160.907C709.898 159.581 708.391 157.772 707.266 155.481C706.14 153.19 705.578 150.638 705.578 147.825C705.578 145.011 706.14 142.459 707.266 140.168C708.391 137.877 709.898 136.089 711.787 134.802C713.676 133.476 715.706 132.813 717.876 132.813C720.047 132.813 722.076 133.476 723.965 134.802C725.854 136.089 727.362 137.877 728.487 140.168C729.612 142.459 730.175 145.011 730.175 147.825C730.175 150.638 729.612 153.19 728.487 155.481C727.362 157.772 725.854 159.581 723.965 160.907C722.076 162.193 720.047 162.836 717.876 162.836ZM717.876 161.389C719.605 161.389 720.79 160.324 721.433 158.194C722.117 156.064 722.458 152.607 722.458 147.825C722.458 143.042 722.117 139.585 721.433 137.455C720.79 135.325 719.605 134.26 717.876 134.26C716.148 134.26 714.942 135.325 714.259 137.455C713.616 139.585 713.294 143.042 713.294 147.825C713.294 152.607 713.616 156.064 714.259 158.194C714.942 160.324 716.148 161.389 717.876 161.389ZM732.762 160.666H735.053C735.414 160.666 735.656 160.606 735.776 160.485C735.937 160.324 736.017 160.063 736.017 159.701V135.948C736.017 135.586 735.937 135.345 735.776 135.224C735.656 135.064 735.414 134.983 735.053 134.983H732.762V133.536H754.465L754.827 145.473H753.139C753.139 145.272 752.998 144.67 752.717 143.665C752.476 142.66 752.054 141.474 751.451 140.108C750.888 138.781 750.084 137.596 749.039 136.551C748.035 135.506 746.929 134.983 745.724 134.983H743.975C743.614 134.983 743.352 135.064 743.192 135.224C743.071 135.345 743.011 135.586 743.011 135.948V159.701C743.011 160.063 743.071 160.324 743.192 160.485C743.352 160.606 743.614 160.666 743.975 160.666H746.266V162.113H732.762V160.666ZM772.229 160.184H776.45C777.012 160.184 777.394 160.083 777.595 159.882C777.796 159.641 777.897 159.259 777.897 158.737V122.564C777.897 122.001 777.796 121.62 777.595 121.419C777.394 121.218 777.012 121.117 776.45 121.117H772.229V119.188H804.905L805.388 134.863H803.459C803.459 134.622 803.258 133.697 802.856 132.089C802.454 130.482 801.931 129.015 801.288 127.688C799.238 123.308 796.686 121.117 793.632 121.117H788.266C787.744 121.117 787.362 121.218 787.121 121.419C786.92 121.62 786.819 122.001 786.819 122.564V138.721H794.054C796.867 138.721 799.359 139.224 801.529 140.228C803.74 141.233 805.448 142.62 806.654 144.388C807.9 146.116 808.523 148.086 808.523 150.296C808.523 152.507 807.9 154.517 806.654 156.325C805.448 158.094 803.74 159.5 801.529 160.545C799.359 161.59 796.867 162.113 794.054 162.113H772.229V160.184ZM793.149 160.184C796.968 160.184 798.877 156.767 798.877 149.935C798.877 147.001 798.455 144.73 797.611 143.122C796.767 141.474 795.28 140.65 793.149 140.65H786.819V158.737C786.819 159.259 786.92 159.641 787.121 159.882C787.362 160.083 787.744 160.184 788.266 160.184H793.149ZM812.201 160.184H816.421C816.984 160.184 817.365 160.083 817.566 159.882C817.767 159.641 817.868 159.259 817.868 158.737V122.564C817.868 122.001 817.767 121.62 817.566 121.419C817.365 121.218 816.984 121.117 816.421 121.117H812.201V119.188H833.422C835.793 119.188 838.004 119.63 840.054 120.514C842.144 121.398 843.812 122.624 845.058 124.192C846.304 125.719 846.927 127.467 846.927 129.437C846.927 132.089 845.942 134.24 843.972 135.888C842.003 137.535 839.591 138.741 836.738 139.505V139.867C838.587 140.148 840.395 140.751 842.164 141.675C843.972 142.559 845.46 143.745 846.625 145.232C847.791 146.719 848.373 148.448 848.373 150.417C848.373 152.869 847.73 154.979 846.444 156.747C845.158 158.516 843.43 159.862 841.259 160.786C839.129 161.671 836.778 162.113 834.206 162.113H812.201V160.184ZM832.337 138.721C834.507 138.721 835.974 137.957 836.738 136.43C837.502 134.863 837.883 132.532 837.883 129.437C837.883 126.824 837.421 124.795 836.497 123.348C835.572 121.861 834.306 121.117 832.699 121.117H828.237C827.715 121.117 827.333 121.218 827.092 121.419C826.891 121.62 826.79 122.001 826.79 122.564V138.721H832.337ZM832.337 160.184C834.467 160.184 836.055 159.48 837.1 158.074C838.185 156.627 838.727 154.074 838.727 150.417C838.727 146.76 838.185 144.227 837.1 142.821C836.055 141.374 834.467 140.65 832.337 140.65H826.79V158.737C826.79 159.259 826.891 159.641 827.092 159.882C827.333 160.083 827.715 160.184 828.237 160.184H832.337Z" fill="#FDFDFD"/>
<path d="M919.498 163.56C916.925 163.56 914.876 162.796 913.348 161.269C911.861 159.741 911.118 157.491 911.118 154.517V147.463C911.118 145.534 910.635 143.926 909.671 142.64C908.746 141.314 907.299 140.65 905.33 140.65H901.592V158.737C901.592 159.259 901.693 159.641 901.894 159.882C902.135 160.083 902.517 160.184 903.039 160.184H907.259V162.113H887.003V160.184H891.223C891.785 160.184 892.167 160.083 892.368 159.882C892.569 159.641 892.67 159.259 892.67 158.737V122.564C892.67 122.001 892.569 121.62 892.368 121.419C892.167 121.218 891.785 121.117 891.223 121.117H887.003V119.188H907.259V121.117H903.039C902.517 121.117 902.135 121.218 901.894 121.419C901.693 121.62 901.592 122.001 901.592 122.564V138.48H905.752C907.963 138.48 909.45 137.636 910.213 135.948C911.017 134.22 911.419 131.446 911.419 127.628C911.419 124.895 911.962 122.805 913.047 121.358C914.494 119.429 916.383 118.464 918.714 118.464C919.96 118.464 921.025 118.806 921.909 119.489C922.834 120.132 923.537 120.956 924.019 121.961C924.502 122.926 924.743 123.89 924.743 124.855C924.743 126.302 924.441 127.528 923.838 128.533C923.276 129.497 922.552 130.221 921.668 130.703C920.824 131.185 920 131.426 919.196 131.426C917.991 131.426 916.986 131.085 916.182 130.401C915.418 129.678 915.036 128.794 915.036 127.749C915.036 126.342 915.679 125.096 916.966 124.011C917.649 123.448 917.991 122.865 917.991 122.263C917.991 121.66 917.629 121.358 916.905 121.358C915.901 121.358 915.057 121.941 914.373 123.107C913.69 124.272 913.348 126.141 913.348 128.713V130.643C913.348 134.622 912.364 137.435 910.394 139.083V139.384C913.529 140.148 915.921 141.394 917.569 143.122C919.216 144.81 920.04 147.423 920.04 150.96V157.651C920.04 159.34 920.603 160.184 921.728 160.184C922.773 160.184 923.537 159.319 924.019 157.591C924.502 155.863 924.743 153.753 924.743 151.261H926.672C926.672 155.16 926.149 158.194 925.104 160.364C924.059 162.495 922.191 163.56 919.498 163.56ZM934.047 176.461C932.399 176.461 931.073 175.939 930.068 174.894C929.063 173.889 928.561 172.583 928.561 170.975C928.561 169.649 928.983 168.483 929.827 167.478C930.671 166.474 931.736 165.971 933.022 165.971C933.987 165.971 934.77 166.253 935.373 166.815C936.016 167.418 936.338 168.142 936.338 168.986C936.338 169.508 936.217 169.99 935.976 170.433C935.775 170.875 935.514 171.236 935.192 171.518C934.63 172 934.348 172.522 934.348 173.085C934.348 173.447 934.449 173.768 934.65 174.05C934.891 174.371 935.253 174.532 935.735 174.532C936.418 174.532 936.981 174.11 937.423 173.266C937.905 172.422 938.347 171.357 938.749 170.071L940.739 163.439L930.309 138.48C929.746 137.154 929.224 136.249 928.742 135.767C928.299 135.245 927.576 134.983 926.571 134.983H925.667V133.536H940.437V134.983H938.689C938.327 134.983 937.986 135.124 937.664 135.405C937.383 135.687 937.242 136.068 937.242 136.551C937.242 136.993 937.383 137.556 937.664 138.239L943.874 153.13L947.792 139.927C948.074 138.802 948.214 137.917 948.214 137.274C948.214 136.671 948.054 136.149 947.732 135.707C947.411 135.224 946.948 134.983 946.346 134.983H944.778V133.536H954.726V134.983H953.399C952.676 134.983 951.972 135.305 951.289 135.948C950.646 136.551 950.144 137.475 949.782 138.721L940.618 169.166C939.212 174.03 937.021 176.461 934.047 176.461ZM956.338 162.836C954.811 162.836 953.565 162.334 952.6 161.329C951.676 160.324 951.214 159.139 951.214 157.772C951.214 156.526 951.616 155.481 952.42 154.637C953.264 153.753 954.248 153.311 955.374 153.311C956.459 153.311 957.263 153.632 957.785 154.275C958.308 154.878 958.569 155.521 958.569 156.205C958.569 156.928 958.267 157.631 957.665 158.315C957.504 158.516 957.363 158.717 957.243 158.918C957.162 159.078 957.122 159.279 957.122 159.52C957.122 159.842 957.202 160.083 957.363 160.244C957.564 160.364 957.785 160.425 958.026 160.425C958.83 160.425 959.574 159.681 960.257 158.194C960.98 156.667 961.443 154.175 961.644 150.718L962.126 143.182C962.287 140.57 962.367 138.621 962.367 137.335C962.367 136.651 962.246 136.089 962.005 135.646C961.804 135.204 961.362 134.983 960.679 134.983H958.448V133.536H979.549V134.983H977.258C976.896 134.983 976.635 135.064 976.474 135.224C976.354 135.345 976.294 135.586 976.294 135.948V159.701C976.294 160.063 976.354 160.324 976.474 160.485C976.635 160.606 976.896 160.666 977.258 160.666H979.549V162.113H966.045V160.666H968.336C968.697 160.666 968.938 160.606 969.059 160.485C969.22 160.324 969.3 160.063 969.3 159.701V135.948C969.3 135.586 969.22 135.345 969.059 135.224C968.938 135.064 968.697 134.983 968.336 134.983H966.828C965.864 134.983 965.16 135.345 964.718 136.068C964.276 136.752 964.015 137.837 963.935 139.324L963.151 151.201C962.749 158.958 960.478 162.836 956.338 162.836ZM981.687 160.666H983.978C984.34 160.666 984.581 160.606 984.701 160.485C984.862 160.324 984.942 160.063 984.942 159.701V135.948C984.942 135.586 984.862 135.345 984.701 135.224C984.581 135.064 984.34 134.983 983.978 134.983H981.687V133.536H995.071V134.983H993.021C992.619 134.983 992.338 135.084 992.177 135.285C992.016 135.486 991.936 135.847 991.936 136.37V146.559H997.723C1000.22 146.559 1002.29 147.302 1003.93 148.789C1005.58 150.276 1006.4 152.105 1006.4 154.275C1006.4 155.722 1006.02 157.049 1005.26 158.254C1004.54 159.42 1003.51 160.364 1002.18 161.088C1000.86 161.771 999.371 162.113 997.723 162.113H981.687V160.666ZM995.191 160.666C996.437 160.666 997.382 160.063 998.025 158.857C998.708 157.651 999.05 156.124 999.05 154.275C999.05 152.427 998.728 150.919 998.085 149.754C997.442 148.588 996.478 148.005 995.191 148.005H991.936V159.701C991.936 160.063 991.996 160.324 992.117 160.485C992.277 160.606 992.539 160.666 992.9 160.666H995.191ZM1012.63 160.666H1016.01C1016.37 160.666 1016.61 160.606 1016.73 160.485C1016.89 160.324 1016.98 160.063 1016.98 159.701V135.948C1016.98 135.546 1016.89 135.285 1016.73 135.164C1016.61 135.044 1016.37 134.983 1016.01 134.983C1015.13 134.983 1014.26 135.486 1013.42 136.49C1012.61 137.455 1011.95 138.58 1011.43 139.867C1010.87 141.233 1010.44 142.439 1010.16 143.484C1009.92 144.529 1009.78 145.192 1009.74 145.473H1008.05L1008.41 133.536H1032.53L1032.89 145.473H1031.2C1031.16 145.192 1031 144.529 1030.72 143.484C1030.48 142.439 1030.08 141.233 1029.51 139.867C1028.99 138.58 1028.31 137.455 1027.47 136.49C1026.66 135.486 1025.82 134.983 1024.93 134.983C1024.57 134.983 1024.31 135.044 1024.15 135.164C1024.03 135.285 1023.97 135.546 1023.97 135.948V159.701C1023.97 160.063 1024.03 160.324 1024.15 160.485C1024.31 160.606 1024.57 160.666 1024.93 160.666H1028.31V162.113H1012.63V160.666ZM1050.29 160.184H1054.51C1055.08 160.184 1055.46 160.083 1055.66 159.882C1055.86 159.641 1055.96 159.259 1055.96 158.737V122.564C1055.96 122.001 1055.86 121.62 1055.66 121.419C1055.46 121.218 1055.08 121.117 1054.51 121.117H1050.29V119.188H1082.97L1083.45 134.863H1081.52C1081.52 134.622 1081.32 133.697 1080.92 132.089C1080.52 130.482 1079.99 129.015 1079.35 127.688C1077.3 123.308 1074.75 121.117 1071.7 121.117H1066.33C1065.81 121.117 1065.43 121.218 1065.18 121.419C1064.98 121.62 1064.88 122.001 1064.88 122.564V138.721H1072.12C1074.93 138.721 1077.42 139.224 1079.59 140.228C1081.8 141.233 1083.51 142.62 1084.72 144.388C1085.96 146.116 1086.59 148.086 1086.59 150.296C1086.59 152.507 1085.96 154.517 1084.72 156.325C1083.51 158.094 1081.8 159.5 1079.59 160.545C1077.42 161.59 1074.93 162.113 1072.12 162.113H1050.29V160.184ZM1071.21 160.184C1075.03 160.184 1076.94 156.767 1076.94 149.935C1076.94 147.001 1076.52 144.73 1075.67 143.122C1074.83 141.474 1073.34 140.65 1071.21 140.65H1064.88V158.737C1064.88 159.259 1064.98 159.641 1065.18 159.882C1065.43 160.083 1065.81 160.184 1066.33 160.184H1071.21ZM1090.26 160.184H1094.48C1095.05 160.184 1095.43 160.083 1095.63 159.882C1095.83 159.641 1095.93 159.259 1095.93 158.737V122.564C1095.93 122.001 1095.83 121.62 1095.63 121.419C1095.43 121.218 1095.05 121.117 1094.48 121.117H1090.26V119.188H1111.49C1113.86 119.188 1116.07 119.63 1118.12 120.514C1120.21 121.398 1121.88 122.624 1123.12 124.192C1124.37 125.719 1124.99 127.467 1124.99 129.437C1124.99 132.089 1124.01 134.24 1122.04 135.888C1120.07 137.535 1117.65 138.741 1114.8 139.505V139.867C1116.65 140.148 1118.46 140.751 1120.23 141.675C1122.04 142.559 1123.52 143.745 1124.69 145.232C1125.85 146.719 1126.44 148.448 1126.44 150.417C1126.44 152.869 1125.79 154.979 1124.51 156.747C1123.22 158.516 1121.49 159.862 1119.32 160.786C1117.19 161.671 1114.84 162.113 1112.27 162.113H1090.26V160.184ZM1110.4 138.721C1112.57 138.721 1114.04 137.957 1114.8 136.43C1115.57 134.863 1115.95 132.532 1115.95 129.437C1115.95 126.824 1115.48 124.795 1114.56 123.348C1113.64 121.861 1112.37 121.117 1110.76 121.117H1106.3C1105.78 121.117 1105.4 121.218 1105.16 121.419C1104.95 121.62 1104.85 122.001 1104.85 122.564V138.721H1110.4ZM1110.4 160.184C1112.53 160.184 1114.12 159.48 1115.16 158.074C1116.25 156.627 1116.79 154.074 1116.79 150.417C1116.79 146.76 1116.25 144.227 1115.16 142.821C1114.12 141.374 1112.53 140.65 1110.4 140.65H1104.85V158.737C1104.85 159.259 1104.95 159.641 1105.16 159.882C1105.4 160.083 1105.78 160.184 1106.3 160.184H1110.4Z" fill="#FDFDFD"/>
<path d="M304.943 247.371H309.284C310.369 247.371 310.911 246.828 310.911 245.743V209.932C310.911 209.369 310.771 208.968 310.489 208.726C310.248 208.445 309.846 208.304 309.284 208.304H304.943V206.375H337.498L338.222 222.171H336.715C336.674 221.929 336.554 221.347 336.353 220.422C336.192 219.458 335.911 218.312 335.509 216.986C335.107 215.619 334.584 214.353 333.941 213.188C333.137 211.701 332.052 210.515 330.686 209.631C329.319 208.746 327.631 208.304 325.622 208.304H318.086C317.523 208.304 317.101 208.445 316.82 208.726C316.578 208.968 316.458 209.369 316.458 209.932V225.908H327.249C329.781 225.908 332.072 226.411 334.122 227.416C336.212 228.38 337.86 229.747 339.066 231.515C340.271 233.284 340.874 235.313 340.874 237.604C340.874 239.895 340.271 241.925 339.066 243.693C337.86 245.462 336.212 246.848 334.122 247.853C332.072 248.818 329.781 249.3 327.249 249.3H304.943V247.371ZM326.224 247.371C328.957 247.371 331.007 246.527 332.374 244.839C333.781 243.111 334.484 240.699 334.484 237.604C334.484 234.509 333.781 232.118 332.374 230.43C331.007 228.702 328.957 227.838 326.224 227.838H316.458V245.743C316.458 246.828 317 247.371 318.086 247.371H326.224ZM353.354 250.024C351.827 250.024 350.32 249.762 348.833 249.24C347.346 248.717 346.12 247.893 345.155 246.768C344.191 245.602 343.708 244.135 343.708 242.367C343.708 241.483 343.97 240.659 344.492 239.895C345.055 239.091 345.839 238.689 346.843 238.689C347.768 238.689 348.451 238.951 348.893 239.473C349.375 239.996 349.617 240.639 349.617 241.402C349.617 241.965 349.436 242.467 349.074 242.91C348.752 243.311 348.29 243.573 347.687 243.693C347.245 243.774 346.924 243.894 346.723 244.055C346.562 244.176 346.482 244.417 346.482 244.778C346.482 245.944 347.185 246.868 348.592 247.552C350.039 248.235 351.626 248.577 353.354 248.577C355.404 248.577 356.911 247.994 357.876 246.828C358.881 245.622 359.383 243.934 359.383 241.764C359.383 240.076 359.042 238.669 358.358 237.544C357.715 236.378 356.57 235.796 354.922 235.796H349.737V234.108H354.922C356.489 234.108 357.575 233.565 358.177 232.48C358.821 231.395 359.142 230.048 359.142 228.44C359.142 226.31 358.599 224.803 357.514 223.919C356.469 222.994 355.243 222.532 353.837 222.532C352.028 222.532 350.34 223.396 348.773 225.125C347.245 226.813 346.24 228.883 345.758 231.334H344.673V221.447H345.758L346.24 222.894C346.401 223.416 346.683 223.678 347.084 223.678C347.406 223.678 347.808 223.497 348.29 223.135C348.973 222.613 349.838 222.15 350.883 221.749C351.928 221.306 353.073 221.085 354.319 221.085C357.253 221.085 359.544 221.789 361.192 223.195C362.88 224.602 363.724 226.391 363.724 228.561C363.724 230.048 363.161 231.374 362.036 232.54C360.91 233.665 359.624 234.389 358.177 234.71V234.952C359.865 235.313 361.373 236.077 362.699 237.242C364.025 238.408 364.689 239.976 364.689 241.945C364.689 244.517 363.382 246.647 360.77 248.335C359.886 248.898 358.78 249.32 357.454 249.601C356.128 249.883 354.761 250.024 353.354 250.024ZM366.895 247.853H369.427C369.909 247.853 370.251 247.753 370.452 247.552C370.653 247.351 370.753 247.009 370.753 246.527V224.582C370.753 224.1 370.653 223.758 370.452 223.557C370.251 223.356 369.909 223.256 369.427 223.256H366.895V221.809H378.952V223.256H376.42C375.938 223.256 375.596 223.356 375.395 223.557C375.194 223.758 375.094 224.1 375.094 224.582V242.307L386.548 226.15V224.582C386.548 224.1 386.448 223.758 386.247 223.557C386.046 223.356 385.704 223.256 385.222 223.256H382.69V221.809H394.748V223.256H392.216C391.733 223.256 391.392 223.356 391.191 223.557C390.99 223.758 390.889 224.1 390.889 224.582V246.527C390.889 247.009 390.99 247.351 391.191 247.552C391.392 247.753 391.733 247.853 392.216 247.853H394.748V249.3H382.69V247.853H385.222C385.704 247.853 386.046 247.753 386.247 247.552C386.448 247.351 386.548 247.009 386.548 246.527V228.802L375.094 244.959V246.527C375.094 247.009 375.194 247.351 375.395 247.552C375.596 247.753 375.938 247.853 376.42 247.853H378.952V249.3H366.895V247.853ZM418.024 250.024C416.095 250.024 414.728 249.501 413.924 248.456C413.161 247.371 412.739 245.683 412.658 243.392C412.578 240.578 412.256 238.589 411.694 237.423C411.171 236.258 410.166 235.675 408.679 235.675H404.821V246.527C404.821 247.009 404.921 247.351 405.122 247.552C405.323 247.753 405.665 247.853 406.147 247.853H408.679V249.3H396.622V247.853H399.154C399.636 247.853 399.978 247.753 400.179 247.552C400.38 247.351 400.48 247.009 400.48 246.527V224.642C400.48 224.16 400.38 223.818 400.179 223.617C399.978 223.416 399.636 223.316 399.154 223.316H396.622V221.869H408.679V223.316H406.147C405.665 223.316 405.323 223.416 405.122 223.617C404.921 223.818 404.821 224.16 404.821 224.642V234.228H408.74C410.066 234.228 410.99 233.464 411.513 231.937C412.075 230.37 412.437 228.461 412.598 226.21C412.719 224.482 413.181 223.195 413.985 222.351C414.829 221.507 415.813 221.085 416.939 221.085C418.265 221.085 419.25 221.527 419.893 222.412C420.576 223.296 420.918 224.281 420.918 225.366C420.918 226.451 420.596 227.335 419.953 228.018C419.31 228.702 418.546 229.043 417.662 229.043C416.858 229.043 416.235 228.822 415.793 228.38C415.351 227.938 415.13 227.395 415.13 226.752C415.13 226.391 415.231 226.049 415.432 225.728C415.632 225.366 415.854 225.105 416.095 224.944C416.537 224.622 416.758 224.281 416.758 223.919C416.758 223.356 416.436 223.075 415.793 223.075C415.311 223.075 414.889 223.356 414.527 223.919C414.206 224.441 414.025 225.185 413.985 226.15C413.864 228.199 413.542 230.068 413.02 231.756C412.497 233.444 411.653 234.489 410.488 234.891V235.072C413.02 235.796 414.869 236.901 416.034 238.388C416.597 239.071 416.999 239.895 417.24 240.86C417.481 241.824 417.662 242.95 417.783 244.236C417.903 245.361 418.084 246.245 418.325 246.889C418.607 247.532 419.049 247.853 419.652 247.853C420.616 247.853 421.259 247.27 421.581 246.105C421.902 244.939 422.063 243.713 422.063 242.427H423.148C423.148 244.316 422.787 246.065 422.063 247.672C421.38 249.24 420.033 250.024 418.024 250.024ZM439.801 247.371H444.142C445.227 247.371 445.77 246.828 445.77 245.743V209.932C445.77 209.369 445.629 208.968 445.348 208.726C445.107 208.445 444.705 208.304 444.142 208.304H439.801V206.375H459.938C462.751 206.375 465.243 206.857 467.413 207.822C469.624 208.746 471.332 210.073 472.538 211.801C473.784 213.489 474.407 215.418 474.407 217.589C474.407 219.799 473.784 221.769 472.538 223.497C471.332 225.225 469.624 226.592 467.413 227.596C465.243 228.561 462.751 229.043 459.938 229.043H451.316V245.743C451.316 246.306 451.437 246.728 451.678 247.009C451.919 247.25 452.341 247.371 452.944 247.371H458.249V249.3H439.801V247.371ZM460.721 227.114C462.892 227.114 464.64 226.19 465.966 224.341C467.333 222.452 468.016 220.201 468.016 217.589C468.016 214.976 467.353 212.786 466.027 211.017C464.7 209.209 462.932 208.304 460.721 208.304H452.944C452.381 208.304 451.959 208.445 451.678 208.726C451.437 208.968 451.316 209.369 451.316 209.932V227.114H460.721ZM478.065 247.371H482.406C483.491 247.371 484.034 246.828 484.034 245.743V209.932C484.034 209.369 483.893 208.968 483.612 208.726C483.371 208.445 482.969 208.304 482.406 208.304H478.065V206.375H497.719C500.09 206.375 502.301 206.817 504.351 207.701C506.441 208.586 508.109 209.812 509.355 211.379C510.601 212.906 511.224 214.655 511.224 216.624C511.224 219.357 510.299 221.608 508.45 223.376C506.602 225.145 504.451 226.29 502 226.813V227.054C503.647 227.174 505.275 227.697 506.883 228.621C508.531 229.506 509.877 230.731 510.922 232.299C512.007 233.866 512.55 235.635 512.55 237.604C512.55 240.056 511.907 242.166 510.621 243.934C509.335 245.703 507.606 247.049 505.436 247.974C503.306 248.858 500.955 249.3 498.382 249.3H478.065V247.371ZM497.478 225.908C500.734 225.908 502.944 225.084 504.11 223.437C505.315 221.749 505.918 219.478 505.918 216.624C505.918 214.213 505.155 212.223 503.627 210.656C502.1 209.088 500.211 208.304 497.96 208.304H491.208C490.645 208.304 490.223 208.445 489.942 208.726C489.701 208.968 489.58 209.369 489.58 209.932V225.908H497.478ZM497.719 247.371C500.171 247.371 502.18 246.647 503.748 245.2C505.356 243.713 506.159 241.181 506.159 237.604C506.159 234.027 505.356 231.515 503.748 230.068C502.18 228.581 500.171 227.838 497.719 227.838H489.58V245.743C489.58 246.828 490.123 247.371 491.208 247.371H497.719Z" fill="#FDFDFD"/>
<path d="M575.943 247.33H580.284C580.846 247.33 581.248 247.209 581.489 246.968C581.771 246.687 581.911 246.265 581.911 245.702V209.891C581.911 209.328 581.771 208.927 581.489 208.685C581.248 208.404 580.846 208.263 580.284 208.263H575.943V206.334H593.426V208.263H589.086C588.523 208.263 588.101 208.404 587.82 208.685C587.578 208.927 587.458 209.328 587.458 209.891V245.702C587.458 246.265 587.578 246.687 587.82 246.968C588.101 247.209 588.523 247.33 589.086 247.33H601.625C602.188 247.33 602.59 247.209 602.831 246.968C603.113 246.687 603.253 246.265 603.253 245.702V209.891C603.253 209.328 603.113 208.927 602.831 208.685C602.59 208.404 602.188 208.263 601.625 208.263H597.285V206.334H614.768V208.263H610.427C609.865 208.263 609.443 208.404 609.161 208.685C608.92 208.927 608.8 209.328 608.8 209.891V245.702C608.8 246.265 608.92 246.687 609.161 246.968C609.443 247.209 609.865 247.33 610.427 247.33H622.967C623.53 247.33 623.932 247.209 624.173 246.968C624.454 246.687 624.595 246.265 624.595 245.702V209.891C624.595 209.328 624.454 208.927 624.173 208.685C623.932 208.404 623.53 208.263 622.967 208.263H618.627V206.334H636.11V208.263H631.769C631.207 208.263 630.785 208.404 630.503 208.685C630.262 208.927 630.142 209.328 630.142 209.891V245.702C630.142 246.265 630.262 246.687 630.503 246.968C630.785 247.209 631.207 247.33 631.769 247.33H636.11V249.259H575.943V247.33ZM643.981 263.608C642.414 263.608 641.128 263.105 640.123 262.1C639.6 261.618 639.178 261.035 638.857 260.352C638.576 259.709 638.435 259.026 638.435 258.302C638.435 257.78 638.515 257.277 638.676 256.795C638.877 256.353 639.118 256.011 639.4 255.77C640.002 255.167 640.686 254.866 641.449 254.866C642.374 254.866 643.057 255.147 643.499 255.71C643.981 256.313 644.223 257.056 644.223 257.94C644.223 258.423 644.062 258.985 643.74 259.629C643.499 260.03 643.378 260.412 643.378 260.774C643.378 261.377 643.78 261.678 644.584 261.678C645.79 261.678 646.795 261.196 647.599 260.231C648.443 259.307 649.066 258.202 649.468 256.916L651.095 251.671L642.534 226.772C642.052 225.486 641.59 224.581 641.148 224.059C640.706 223.496 639.982 223.215 638.977 223.215H636.988V221.768H650.613V223.215H648.684C648.202 223.215 647.759 223.355 647.357 223.637C646.956 223.878 646.755 224.22 646.755 224.662C646.755 225.345 646.875 226.008 647.116 226.651L653.386 245.159L658.39 228.641C658.551 228.158 658.692 227.616 658.812 227.013C658.973 226.41 659.053 225.928 659.053 225.566C659.053 224.883 658.852 224.32 658.45 223.878C658.049 223.436 657.526 223.215 656.883 223.215H655.436V221.768H666.408V223.215H665.022C664.138 223.215 663.314 223.516 662.55 224.119C661.827 224.682 661.264 225.566 660.862 226.772L651.156 257.639C650.714 259.126 649.869 260.493 648.624 261.739C647.378 262.985 645.83 263.608 643.981 263.608ZM672.635 226.229V244.557C672.635 245.642 672.795 246.466 673.117 247.028C673.438 247.551 674.041 247.812 674.925 247.812H676.131V249.259H667.45V247.812H668.656C669.54 247.812 670.143 247.551 670.464 247.028C670.786 246.466 670.946 245.642 670.946 244.557V224.541C670.946 224.059 670.846 223.717 670.645 223.516C670.444 223.315 670.102 223.215 669.62 223.215H667.45V221.768H675.77L682.522 241.783L688.973 221.768H697.594V223.215H695.423C694.941 223.215 694.599 223.315 694.398 223.516C694.197 223.717 694.097 224.059 694.097 224.541V246.486C694.097 246.968 694.197 247.31 694.398 247.511C694.599 247.712 694.941 247.812 695.423 247.812H697.594V249.259H686.26V247.812H688.43C688.912 247.812 689.254 247.712 689.455 247.511C689.656 247.31 689.756 246.968 689.756 246.486V225.747L681.919 249.741H680.834L672.635 226.229ZM715.104 247.33H719.445C720.53 247.33 721.072 246.787 721.072 245.702V209.891C721.072 209.328 720.932 208.927 720.65 208.685C720.409 208.404 720.007 208.263 719.445 208.263H715.104V206.334H735.24C738.054 206.334 740.545 206.816 742.716 207.781C744.926 208.705 746.634 210.032 747.84 211.76C749.086 213.448 749.709 215.377 749.709 217.548C749.709 219.758 749.086 221.728 747.84 223.456C746.634 225.184 744.926 226.551 742.716 227.555C740.545 228.52 738.054 229.002 735.24 229.002H726.619V245.702C726.619 246.265 726.74 246.687 726.981 246.968C727.222 247.209 727.644 247.33 728.247 247.33H733.552V249.259H715.104V247.33ZM736.024 227.073C738.194 227.073 739.943 226.149 741.269 224.3C742.635 222.411 743.319 220.16 743.319 217.548C743.319 214.935 742.656 212.745 741.329 210.976C740.003 209.168 738.234 208.263 736.024 208.263H728.247C727.684 208.263 727.262 208.404 726.981 208.685C726.74 208.927 726.619 209.328 726.619 209.891V227.073H736.024ZM753.368 247.33H757.709C758.794 247.33 759.336 246.787 759.336 245.702V209.891C759.336 209.328 759.196 208.927 758.914 208.685C758.673 208.404 758.271 208.263 757.709 208.263H753.368V206.334H773.022C775.393 206.334 777.604 206.776 779.653 207.66C781.743 208.545 783.411 209.771 784.657 211.338C785.903 212.865 786.526 214.614 786.526 216.583C786.526 219.316 785.602 221.567 783.753 223.335C781.904 225.104 779.754 226.249 777.302 226.772V227.013C778.95 227.133 780.578 227.656 782.185 228.58C783.833 229.465 785.18 230.69 786.225 232.258C787.31 233.825 787.852 235.594 787.852 237.563C787.852 240.015 787.209 242.125 785.923 243.893C784.637 245.662 782.909 247.008 780.739 247.933C778.608 248.817 776.257 249.259 773.685 249.259H753.368V247.33ZM772.781 225.867C776.036 225.867 778.247 225.043 779.412 223.396C780.618 221.708 781.221 219.437 781.221 216.583C781.221 214.172 780.457 212.182 778.93 210.615C777.403 209.047 775.514 208.263 773.263 208.263H766.511C765.948 208.263 765.526 208.404 765.245 208.685C765.003 208.927 764.883 209.328 764.883 209.891V225.867H772.781ZM773.022 247.33C775.473 247.33 777.483 246.606 779.05 245.159C780.658 243.672 781.462 241.14 781.462 237.563C781.462 233.986 780.658 231.474 779.05 230.027C777.483 228.54 775.473 227.797 773.022 227.797H764.883V245.702C764.883 246.787 765.425 247.33 766.511 247.33H773.022Z" fill="#FDFDFD"/>
<path d="M886.913 247.33H891.253C892.339 247.33 892.881 246.787 892.881 245.702V209.891C892.881 209.328 892.74 208.927 892.459 208.685C892.218 208.404 891.816 208.263 891.253 208.263H886.913V206.334H918.503L919.227 222.974H917.72C917.68 222.652 917.559 221.949 917.358 220.863C917.197 219.778 916.896 218.512 916.454 217.065C916.012 215.618 915.469 214.312 914.826 213.147C913.982 211.7 912.856 210.534 911.45 209.65C910.043 208.726 908.355 208.263 906.386 208.263H900.055C899.493 208.263 899.071 208.404 898.789 208.685C898.548 208.927 898.428 209.328 898.428 209.891V245.702C898.428 246.787 898.97 247.33 900.055 247.33H905.421V249.259H886.913V247.33ZM921.361 261.678H924.495C924.978 261.678 925.319 261.578 925.52 261.377C925.721 261.176 925.822 260.834 925.822 260.352V224.541C925.822 224.059 925.721 223.717 925.52 223.516C925.319 223.315 924.978 223.215 924.495 223.215H921.361V221.768H930.163V226.229L930.404 226.289C931.167 224.682 932.132 223.416 933.297 222.491C934.503 221.527 935.87 221.044 937.397 221.044C939.286 221.044 941.034 221.687 942.642 222.974C944.29 224.22 945.596 225.948 946.561 228.158C947.525 230.369 948.008 232.821 948.008 235.513C948.008 238.206 947.525 240.658 946.561 242.869C945.596 245.079 944.29 246.827 942.642 248.114C941.034 249.36 939.286 249.982 937.397 249.982C935.83 249.982 934.423 249.48 933.177 248.475C931.931 247.43 931.007 246.184 930.404 244.737L930.163 244.798V260.352C930.163 260.834 930.263 261.176 930.464 261.377C930.665 261.578 931.007 261.678 931.489 261.678H934.624V263.125H921.361V261.678ZM936.734 248.294C938.703 248.294 940.19 247.189 941.195 244.979C942.2 242.768 942.702 239.613 942.702 235.513C942.702 231.414 942.2 228.259 941.195 226.048C940.19 223.838 938.703 222.732 936.734 222.732C935.528 222.732 934.423 223.175 933.418 224.059C932.413 224.943 931.609 226.169 931.007 227.736C930.444 229.264 930.163 230.932 930.163 232.74V238.287C930.163 240.095 930.444 241.783 931.007 243.351C931.609 244.878 932.413 246.084 933.418 246.968C934.423 247.852 935.528 248.294 936.734 248.294ZM963.115 249.982C960.904 249.982 958.874 249.339 957.025 248.053C955.177 246.727 953.71 244.959 952.624 242.748C951.579 240.537 951.057 238.126 951.057 235.513C951.057 232.901 951.579 230.489 952.624 228.279C953.71 226.068 955.177 224.32 957.025 223.034C958.874 221.708 960.904 221.044 963.115 221.044C965.325 221.044 967.355 221.708 969.204 223.034C971.052 224.32 972.499 226.068 973.544 228.279C974.629 230.489 975.172 232.901 975.172 235.513C975.172 238.126 974.629 240.537 973.544 242.748C972.499 244.959 971.052 246.727 969.204 248.053C967.355 249.339 965.325 249.982 963.115 249.982ZM963.115 248.536C965.526 248.536 967.254 247.41 968.299 245.159C969.344 242.869 969.867 239.653 969.867 235.513C969.867 231.374 969.344 228.178 968.299 225.928C967.254 223.637 965.526 222.491 963.115 222.491C960.703 222.491 958.975 223.637 957.93 225.928C956.885 228.178 956.362 231.374 956.362 235.513C956.362 239.653 956.885 242.869 957.93 245.159C958.975 247.41 960.703 248.536 963.115 248.536ZM982.834 226.229V244.557C982.834 245.642 982.995 246.466 983.317 247.028C983.638 247.551 984.241 247.812 985.125 247.812H986.331V249.259H977.65V247.812H978.855C979.739 247.812 980.342 247.551 980.664 247.028C980.985 246.466 981.146 245.642 981.146 244.557V224.541C981.146 224.059 981.046 223.717 980.845 223.516C980.644 223.315 980.302 223.215 979.82 223.215H977.65V221.768H985.969L992.721 241.783L999.172 221.768H1007.79V223.215H1005.62C1005.14 223.215 1004.8 223.315 1004.6 223.516C1004.4 223.717 1004.3 224.059 1004.3 224.541V246.486C1004.3 246.968 1004.4 247.31 1004.6 247.511C1004.8 247.712 1005.14 247.812 1005.62 247.812H1007.79V249.259H996.459V247.812H998.63C999.112 247.812 999.454 247.712 999.655 247.511C999.856 247.31 999.956 246.968 999.956 246.486V225.747L992.119 249.741H991.033L982.834 226.229ZM1025.3 247.33H1029.64C1030.73 247.33 1031.27 246.787 1031.27 245.702V209.891C1031.27 209.328 1031.13 208.927 1030.85 208.685C1030.61 208.404 1030.21 208.263 1029.64 208.263H1025.3V206.334H1045.44C1048.25 206.334 1050.75 206.816 1052.92 207.781C1055.13 208.705 1056.83 210.032 1058.04 211.76C1059.29 213.448 1059.91 215.377 1059.91 217.548C1059.91 219.758 1059.29 221.728 1058.04 223.456C1056.83 225.184 1055.13 226.551 1052.92 227.555C1050.75 228.52 1048.25 229.002 1045.44 229.002H1036.82V245.702C1036.82 246.265 1036.94 246.687 1037.18 246.968C1037.42 247.209 1037.84 247.33 1038.45 247.33H1043.75V249.259H1025.3V247.33ZM1046.22 227.073C1048.39 227.073 1050.14 226.149 1051.47 224.3C1052.84 222.411 1053.52 220.16 1053.52 217.548C1053.52 214.935 1052.86 212.745 1051.53 210.976C1050.2 209.168 1048.43 208.263 1046.22 208.263H1038.45C1037.88 208.263 1037.46 208.404 1037.18 208.685C1036.94 208.927 1036.82 209.328 1036.82 209.891V227.073H1046.22ZM1063.57 247.33H1067.91C1068.99 247.33 1069.54 246.787 1069.54 245.702V209.891C1069.54 209.328 1069.4 208.927 1069.11 208.685C1068.87 208.404 1068.47 208.263 1067.91 208.263H1063.57V206.334H1083.22C1085.59 206.334 1087.8 206.776 1089.85 207.66C1091.94 208.545 1093.61 209.771 1094.86 211.338C1096.1 212.865 1096.73 214.614 1096.73 216.583C1096.73 219.316 1095.8 221.567 1093.95 223.335C1092.1 225.104 1089.95 226.249 1087.5 226.772V227.013C1089.15 227.133 1090.78 227.656 1092.39 228.58C1094.03 229.465 1095.38 230.69 1096.42 232.258C1097.51 233.825 1098.05 235.594 1098.05 237.563C1098.05 240.015 1097.41 242.125 1096.12 243.893C1094.84 245.662 1093.11 247.008 1090.94 247.933C1088.81 248.817 1086.46 249.259 1083.88 249.259H1063.57V247.33ZM1082.98 225.867C1086.24 225.867 1088.45 225.043 1089.61 223.396C1090.82 221.708 1091.42 219.437 1091.42 216.583C1091.42 214.172 1090.66 212.182 1089.13 210.615C1087.6 209.047 1085.71 208.263 1083.46 208.263H1076.71C1076.15 208.263 1075.73 208.404 1075.44 208.685C1075.2 208.927 1075.08 209.328 1075.08 209.891V225.867H1082.98ZM1083.22 247.33C1085.67 247.33 1087.68 246.606 1089.25 245.159C1090.86 243.672 1091.66 241.14 1091.66 237.563C1091.66 233.986 1090.86 231.474 1089.25 230.027C1087.68 228.54 1085.67 227.797 1083.22 227.797H1075.08V245.702C1075.08 246.787 1075.63 247.33 1076.71 247.33H1083.22Z" fill="#FDFDFD"/>
<path d="M311.936 334.517H317.965C319.05 334.517 319.733 333.995 320.015 332.95L320.919 329.513H318.568C316.317 329.513 314.287 329.031 312.479 328.066C310.67 327.102 309.263 325.755 308.259 324.027C307.254 322.259 306.751 320.269 306.751 318.059C306.751 315.727 307.294 313.376 308.379 311.005C309.505 308.593 310.911 306.584 312.599 304.976C314.167 303.489 316.136 302.283 318.508 301.359C320.919 300.394 323.331 299.912 325.742 299.912H328.937L329.721 297.078C329.802 296.757 329.842 296.516 329.842 296.355C329.842 295.752 329.42 295.451 328.576 295.451H322.547L323.029 293.521H343.768L343.286 295.451H337.257C336.694 295.451 336.252 295.591 335.931 295.873C335.609 296.114 335.368 296.516 335.207 297.078L334.424 299.912H336.715C338.965 299.912 340.995 300.394 342.804 301.359C344.612 302.323 346.019 303.69 347.024 305.458C348.069 307.187 348.591 309.156 348.591 311.367C348.591 313.698 348.029 316.069 346.903 318.481C345.818 320.852 344.431 322.841 342.743 324.449C341.176 325.936 339.186 327.162 336.775 328.127C334.403 329.051 332.012 329.513 329.601 329.513H326.405L325.501 332.95C325.421 333.271 325.38 333.492 325.38 333.613C325.38 334.216 325.823 334.517 326.707 334.517H332.555L332.072 336.446H311.454L311.936 334.517ZM321.401 327.644L328.455 301.781H324.838C323.029 301.781 321.321 302.263 319.713 303.228C318.146 304.152 316.9 305.358 315.976 306.845C313.685 310.623 312.539 315.406 312.539 321.193C312.539 323.283 313.122 324.891 314.287 326.017C315.453 327.102 316.96 327.644 318.809 327.644H321.401ZM330.505 327.644C332.314 327.644 334.002 327.182 335.569 326.258C337.177 325.293 338.443 324.067 339.367 322.58C341.658 318.802 342.804 314.019 342.804 308.232C342.804 306.142 342.201 304.554 340.995 303.469C339.829 302.344 338.322 301.781 336.473 301.781H333.941L326.888 327.644H330.505ZM352.725 337.17C351.158 337.17 349.952 336.667 349.108 335.663C348.304 334.658 347.902 333.593 347.902 332.467C347.902 331.181 348.204 330.096 348.806 329.212C349.45 328.328 350.334 327.885 351.459 327.885C352.263 327.885 352.826 328.106 353.147 328.549C353.509 328.991 353.69 329.513 353.69 330.116C353.69 331.04 353.147 331.905 352.062 332.708C351.419 333.151 351.097 333.673 351.097 334.276C351.097 334.839 351.278 335.22 351.64 335.421C352.002 335.622 352.384 335.723 352.785 335.723C354.031 335.723 355.036 335.019 355.8 333.613C356.604 332.206 357.408 330.257 358.211 327.765L362.974 312.994C363.135 312.552 363.215 312.17 363.215 311.849C363.215 311.367 362.874 311.125 362.19 311.125H359.116L359.538 309.679H374.429L369.304 328.127C368.661 330.699 368.34 332.487 368.34 333.492C368.34 334.055 368.42 334.477 368.581 334.758C368.742 334.999 369.043 335.12 369.485 335.12C370.611 335.12 371.736 334.196 372.861 332.347C374.027 330.458 375.072 328.167 375.996 325.474L377.202 325.836C376.117 328.89 374.871 331.543 373.464 333.794C372.057 336.044 370.349 337.17 368.34 337.17C366.009 337.17 364.843 335.12 364.843 331.02C364.843 330.217 365.044 329.011 365.446 327.403L369.244 313.416C369.405 312.854 369.485 312.432 369.485 312.15C369.485 311.829 369.385 311.588 369.184 311.427C368.983 311.226 368.621 311.125 368.099 311.125C366.933 311.125 366.129 311.266 365.687 311.547C365.285 311.829 364.943 312.432 364.662 313.356L359.719 328.609C358.834 331.302 357.89 333.412 356.885 334.939C355.92 336.426 354.534 337.17 352.725 337.17ZM387.121 337.17C384.71 337.17 382.76 336.185 381.273 334.216C379.786 332.206 379.043 329.774 379.043 326.921C379.043 324.509 379.485 322.138 380.369 319.807C381.253 317.436 382.58 315.325 384.348 313.477C387.242 310.462 390.256 308.955 393.391 308.955C394.999 308.955 396.305 309.357 397.31 310.161C398.355 310.924 398.877 312.211 398.877 314.019C398.877 317.154 396.848 319.666 392.788 321.555C391.422 322.198 390.055 322.66 388.689 322.942C387.322 323.183 385.835 323.364 384.227 323.484C384.026 324.328 383.825 325.434 383.625 326.8C383.464 328.127 383.383 329.373 383.383 330.538C383.383 332.307 383.765 333.613 384.529 334.457C385.333 335.301 386.297 335.723 387.423 335.723C389.915 335.723 391.944 334.718 393.512 332.708C395.079 330.699 396.184 328.83 396.828 327.102L398.094 327.524C397.129 330.257 395.662 332.548 393.693 334.397C391.723 336.245 389.533 337.17 387.121 337.17ZM384.589 321.977C387.523 321.776 389.874 321.274 391.643 320.47C392.929 319.907 393.974 319.023 394.778 317.817C395.582 316.612 395.984 315.225 395.984 313.658C395.984 312.492 395.742 311.668 395.26 311.186C394.778 310.663 394.175 310.402 393.451 310.402C391.804 310.402 390.276 311.166 388.87 312.693C387.463 314.18 386.438 315.808 385.795 317.576C385.594 318.219 385.373 318.983 385.132 319.867C384.891 320.751 384.71 321.455 384.589 321.977ZM436.084 337.17C434.999 337.17 434.075 336.687 433.311 335.723C432.588 334.758 432.226 333.311 432.226 331.382C432.226 330.498 432.346 329.453 432.588 328.247C432.829 327.001 433.11 325.996 433.432 325.233L437.29 316.25C437.491 315.808 437.692 315.225 437.893 314.502C438.134 313.778 438.255 313.175 438.255 312.693C438.255 312.13 438.134 311.668 437.893 311.306C437.692 310.945 437.37 310.764 436.928 310.764C434.517 310.764 431.965 313.035 429.272 317.576C427.664 320.309 426.217 323.022 424.931 325.715C423.685 328.408 422.801 330.659 422.278 332.467L421.073 336.446H417.094L422.098 317.817C422.178 317.536 422.359 316.893 422.64 315.888C422.962 314.843 423.122 313.919 423.122 313.115C423.122 311.547 422.479 310.764 421.193 310.764C420.148 310.764 418.721 312.11 416.913 314.803C415.104 317.496 413.336 320.611 411.607 324.148C409.919 327.684 408.774 330.458 408.171 332.467L406.965 336.446H402.986L408.05 317.817C408.653 315.406 408.955 313.698 408.955 312.693C408.955 312.13 408.874 311.708 408.714 311.427C408.553 311.146 408.251 311.005 407.809 311.005C405.76 311.005 403.589 314.22 401.298 320.651L400.093 320.289C402.745 312.733 405.679 308.955 408.895 308.955C411.266 308.955 412.451 311.025 412.451 315.165C412.451 315.848 412.271 317.034 411.909 318.722C411.547 320.41 411.185 321.636 410.824 322.399L411.065 322.58L411.788 321.254C413.597 317.797 415.345 314.883 417.033 312.512C418.762 310.141 420.409 308.955 421.977 308.955C425.072 308.955 426.619 310.864 426.619 314.682C426.619 315.526 426.418 316.752 426.016 318.36C425.655 319.968 425.313 321.314 424.991 322.399L425.172 322.58L426.016 321.073C427.785 317.657 429.573 314.783 431.382 312.452C433.231 310.121 435.26 308.955 437.471 308.955C438.677 308.955 439.621 309.457 440.304 310.462C441.028 311.427 441.39 312.854 441.39 314.743C441.39 315.627 441.269 316.712 441.028 317.998C440.787 319.244 440.505 320.209 440.184 320.892L436.325 329.875C436.124 330.317 435.903 330.9 435.662 331.623C435.461 332.347 435.361 332.95 435.361 333.432C435.361 333.995 435.481 334.457 435.723 334.819C435.964 335.18 436.305 335.361 436.747 335.361C438.114 335.361 439.42 334.316 440.666 332.226C441.912 330.136 442.977 327.885 443.861 325.474L445.067 325.836C443.982 329.091 442.656 331.804 441.088 333.974C439.561 336.105 437.893 337.17 436.084 337.17ZM457.844 334.517H462.426C463.511 334.517 464.195 333.974 464.476 332.889L474.182 297.078C474.263 296.757 474.303 296.516 474.303 296.355C474.303 295.752 473.881 295.451 473.037 295.451H468.455L468.937 293.521H486.783L486.3 295.451H481.718C480.633 295.451 479.95 295.993 479.669 297.078L471.65 326.619L497.755 299.068L498.298 297.078C498.378 296.757 498.418 296.536 498.418 296.415C498.418 295.772 497.976 295.451 497.092 295.451H492.57L493.052 293.521H510.898L510.415 295.451H505.894C505.331 295.451 504.889 295.591 504.567 295.873C504.246 296.114 503.985 296.516 503.784 297.078L494.077 332.889C493.997 333.211 493.957 333.432 493.957 333.552C493.957 334.196 494.399 334.517 495.283 334.517H499.805L499.322 336.446H481.477L481.96 334.517H486.541C487.104 334.517 487.526 334.397 487.807 334.155C488.129 333.874 488.39 333.452 488.591 332.889L496.549 303.348L470.505 330.9L469.962 332.889C469.882 333.211 469.842 333.432 469.842 333.552C469.842 334.196 470.264 334.517 471.108 334.517H475.69L475.207 336.446H457.362L457.844 334.517ZM503.35 334.517H507.932C509.017 334.517 509.7 333.974 509.982 332.889L519.688 297.078C519.768 296.757 519.808 296.516 519.808 296.355C519.808 295.752 519.386 295.451 518.542 295.451H513.961L514.443 293.521H535.423C537.312 293.521 539.06 293.883 540.668 294.607C542.276 295.29 543.562 296.335 544.526 297.742C545.531 299.108 546.034 300.776 546.034 302.745C546.034 304.996 545.33 306.905 543.924 308.473C542.517 310.04 540.789 311.246 538.739 312.09C536.729 312.934 534.72 313.497 532.71 313.778L532.65 313.899C534.338 313.979 535.925 314.421 537.413 315.225C538.9 316.029 540.085 317.114 540.969 318.481C541.854 319.847 542.296 321.415 542.296 323.183C542.296 325.795 541.432 328.127 539.703 330.176C537.975 332.186 535.785 333.733 533.132 334.819C530.52 335.904 527.947 336.446 525.415 336.446H502.868L503.35 334.517ZM529.033 312.693C531.806 312.693 534.016 312.17 535.664 311.125C537.352 310.04 538.538 308.734 539.221 307.207C539.904 305.679 540.246 304.152 540.246 302.625C540.246 297.842 538.015 295.451 533.554 295.451H527.224C526.139 295.451 525.455 295.993 525.174 297.078L520.954 312.693H529.033ZM526.44 334.517C528.329 334.517 529.997 333.974 531.444 332.889C532.891 331.764 533.996 330.357 534.76 328.669C535.523 326.941 535.905 325.213 535.905 323.484C535.905 320.751 535.302 318.601 534.097 317.034C532.891 315.426 531.102 314.622 528.731 314.622H520.411L515.468 332.889C515.387 333.211 515.347 333.432 515.347 333.552C515.347 334.196 515.769 334.517 516.613 334.517H526.44Z" fill="#FDFDFD"/>
<path d="M573.35 334.476H575.943C577.591 334.476 579.058 334.094 580.344 333.331C581.67 332.527 582.997 331.381 584.323 329.894L597.405 315.606L589.628 298.424C589.266 297.62 588.945 297.037 588.664 296.676C588.422 296.274 588.041 295.972 587.518 295.771C587.036 295.53 586.353 295.41 585.468 295.41H581.369L581.851 293.48H600.661L600.179 295.41H597.466C596.983 295.41 596.501 295.611 596.019 296.012C595.536 296.414 595.295 296.917 595.295 297.52C595.295 297.801 595.356 298.102 595.476 298.424L601.324 311.265L610.427 301.318C610.87 300.876 611.171 300.393 611.332 299.871C611.533 299.348 611.633 298.705 611.633 297.942C611.633 296.254 610.608 295.41 608.559 295.41H606.328L606.81 293.48H625.62L625.138 295.41H622.967C620.074 295.41 617.662 296.455 615.733 298.545L602.289 313.436L610.91 332.306C611.352 333.23 611.814 333.833 612.296 334.114C612.779 334.355 613.462 334.476 614.346 334.476H618.024L617.541 336.405H598.249L598.732 334.476H602.59C603.233 334.476 603.776 334.315 604.218 333.994C604.66 333.672 604.881 333.23 604.881 332.667C604.881 332.306 604.801 331.944 604.64 331.582L598.37 317.776L589.146 327.965C588.503 328.688 588.061 329.332 587.82 329.894C587.578 330.457 587.458 331.14 587.458 331.944C587.458 333.632 588.503 334.476 590.593 334.476H592.643L592.1 336.405H572.808L573.35 334.476ZM626.406 337.129C624.276 337.129 622.608 336.385 621.402 334.898C620.237 333.371 619.654 331.361 619.654 328.869C619.654 326.418 620.016 324.066 620.739 321.816C621.462 319.525 622.286 317.656 623.211 316.209C624.618 313.998 626.245 312.23 628.094 310.904C629.983 309.577 631.892 308.914 633.821 308.914C635.067 308.914 636.193 309.356 637.198 310.24C638.202 311.084 638.926 312.411 639.368 314.219L639.609 314.34L640.935 309.638H644.914L639.79 328.628C639.227 330.879 638.946 332.487 638.946 333.451C638.946 334.014 639.026 334.436 639.187 334.717C639.348 334.958 639.629 335.079 640.031 335.079C641.116 335.079 642.242 334.195 643.407 332.426C644.573 330.618 645.638 328.287 646.602 325.433L647.808 325.795C646.763 328.889 645.477 331.562 643.95 333.813C642.463 336.023 640.795 337.129 638.946 337.129C636.615 337.129 635.449 335.079 635.449 330.979C635.449 330.457 635.449 330.075 635.449 329.834C635.489 329.553 635.51 329.392 635.51 329.352L635.329 329.231C634.485 331.04 633.239 332.808 631.591 334.536C629.983 336.265 628.255 337.129 626.406 337.129ZM626.768 335.682C628.255 335.682 629.682 334.938 631.048 333.451C632.415 331.924 633.681 329.894 634.846 327.362C635.65 325.553 636.354 323.544 636.956 321.333C637.559 319.123 637.861 317.314 637.861 315.907C637.861 314.139 637.499 312.772 636.776 311.808C636.052 310.843 635.067 310.361 633.821 310.361C632.576 310.361 631.39 311.044 630.264 312.411C629.139 313.777 628.175 315.345 627.371 317.113C626.366 319.364 625.542 321.755 624.899 324.287C624.296 326.82 623.995 329.151 623.995 331.281C623.995 332.487 624.196 333.532 624.597 334.416C625.04 335.26 625.763 335.682 626.768 335.682ZM667.47 306.623C665.621 306.623 664.094 306.101 662.888 305.056C661.682 303.97 661.08 302.584 661.08 300.896C661.08 299.891 661.401 299.047 662.044 298.364C662.687 297.68 663.411 297.339 664.215 297.339C665.059 297.339 665.702 297.54 666.144 297.942C666.626 298.344 666.867 298.926 666.867 299.69C666.867 300.454 666.646 301.036 666.204 301.438C665.802 301.84 665.32 302.041 664.757 302.041C664.114 302.041 663.793 302.302 663.793 302.825C663.793 303.589 664.174 304.171 664.938 304.573C665.702 304.975 666.666 305.176 667.832 305.176C669.48 305.176 671.087 304.634 672.655 303.548C674.222 302.423 675.468 300.835 676.393 298.786L677.357 299.328C676.473 301.458 675.127 303.207 673.318 304.573C671.509 305.94 669.56 306.623 667.47 306.623ZM656.498 337.129C655.292 337.129 654.327 336.646 653.604 335.682C652.921 334.677 652.579 333.23 652.579 331.341C652.579 330.457 652.7 329.392 652.941 328.146C653.182 326.86 653.463 325.875 653.785 325.192L657.643 316.209C657.844 315.767 658.045 315.184 658.246 314.461C658.487 313.737 658.608 313.134 658.608 312.652C658.608 312.089 658.487 311.627 658.246 311.265C658.005 310.904 657.663 310.723 657.221 310.723C655.855 310.723 654.548 311.768 653.302 313.858C652.056 315.948 650.991 318.198 650.107 320.61L648.901 320.248C649.987 316.993 651.293 314.3 652.82 312.17C654.388 309.999 656.076 308.914 657.884 308.914C658.969 308.914 659.874 309.396 660.597 310.361C661.361 311.326 661.743 312.772 661.743 314.702C661.743 315.586 661.622 316.651 661.381 317.897C661.14 319.103 660.858 320.087 660.537 320.851L656.679 329.834C656.478 330.276 656.257 330.859 656.015 331.582C655.814 332.306 655.714 332.909 655.714 333.391C655.714 333.954 655.814 334.416 656.015 334.778C656.257 335.139 656.598 335.32 657.04 335.32C659.452 335.32 662.004 333.049 664.697 328.508C666.304 325.775 667.731 323.062 668.977 320.369C670.263 317.676 671.168 315.425 671.69 313.616L672.896 309.638H676.875L671.811 328.327C671.208 330.738 670.906 332.446 670.906 333.451C670.906 334.014 670.987 334.436 671.148 334.717C671.308 334.958 671.61 335.079 672.052 335.079C673.177 335.079 674.303 334.155 675.428 332.306C676.594 330.417 677.639 328.126 678.563 325.433L679.769 325.795C677.116 333.351 674.162 337.129 670.906 337.129C668.575 337.129 667.41 335.079 667.41 330.979C667.41 330.176 667.591 328.95 667.952 327.302C668.354 325.614 668.696 324.408 668.977 323.685L668.796 323.504L667.952 325.011C666.184 328.427 664.375 331.301 662.526 333.632C660.718 335.963 658.708 337.129 656.498 337.129ZM702.574 337.129C701.488 337.129 700.564 336.646 699.8 335.682C699.077 334.717 698.715 333.27 698.715 331.341C698.715 330.457 698.836 329.412 699.077 328.206C699.318 326.96 699.599 325.955 699.921 325.192L703.779 316.209C703.98 315.767 704.181 315.184 704.382 314.461C704.623 313.737 704.744 313.134 704.744 312.652C704.744 312.089 704.623 311.627 704.382 311.265C704.181 310.904 703.86 310.723 703.418 310.723C701.006 310.723 698.454 312.994 695.761 317.535C694.153 320.268 692.706 322.981 691.42 325.674C690.174 328.367 689.29 330.618 688.768 332.426L687.562 336.405H683.583L688.647 317.716C689.25 315.305 689.551 313.596 689.551 312.592C689.551 312.029 689.471 311.627 689.31 311.386C689.149 311.105 688.848 310.964 688.406 310.964C687.281 310.964 686.135 311.908 684.97 313.797C683.844 315.646 682.819 317.917 681.895 320.61L680.689 320.248C683.342 312.692 686.296 308.914 689.551 308.914C691.883 308.914 693.048 310.964 693.048 315.063C693.048 315.867 692.847 317.113 692.445 318.801C692.083 320.449 691.762 321.635 691.481 322.358L691.661 322.539L692.505 321.032C694.274 317.616 696.062 314.742 697.871 312.411C699.72 310.08 701.75 308.914 703.96 308.914C705.166 308.914 706.11 309.416 706.794 310.421C707.517 311.386 707.879 312.813 707.879 314.702C707.879 315.586 707.758 316.671 707.517 317.957C707.276 319.203 706.995 320.168 706.673 320.851L702.815 329.834C702.614 330.276 702.393 330.859 702.152 331.582C701.951 332.306 701.85 332.909 701.85 333.391C701.85 333.954 701.971 334.416 702.212 334.778C702.453 335.139 702.795 335.32 703.237 335.32C704.603 335.32 705.909 334.275 707.155 332.185C708.401 330.095 709.466 327.844 710.351 325.433L711.556 325.795C710.471 329.05 709.145 331.763 707.577 333.933C706.05 336.064 704.382 337.129 702.574 337.129ZM724.37 334.476H728.952C730.037 334.476 730.72 333.933 731.002 332.848L740.708 297.037C740.788 296.716 740.828 296.475 740.828 296.314C740.828 295.711 740.406 295.41 739.562 295.41H734.981L735.463 293.48H753.308L752.826 295.41H748.244C747.159 295.41 746.475 295.952 746.194 297.037L738.176 326.578L764.28 299.027L764.823 297.037C764.903 296.716 764.944 296.495 764.944 296.374C764.944 295.731 764.501 295.41 763.617 295.41H759.096L759.578 293.48H777.423L776.941 295.41H772.419C771.857 295.41 771.414 295.55 771.093 295.832C770.771 296.073 770.51 296.475 770.309 297.037L760.603 332.848C760.523 333.17 760.482 333.391 760.482 333.511C760.482 334.155 760.924 334.476 761.809 334.476H766.33L765.848 336.405H748.003L748.485 334.476H753.067C753.63 334.476 754.052 334.355 754.333 334.114C754.654 333.833 754.916 333.411 755.117 332.848L763.075 303.307L737.03 330.859L736.488 332.848C736.407 333.17 736.367 333.391 736.367 333.511C736.367 334.155 736.789 334.476 737.633 334.476H742.215L741.733 336.405H723.888L724.37 334.476ZM769.875 334.476H774.457C775.542 334.476 776.226 333.933 776.507 332.848L786.213 297.037C786.294 296.716 786.334 296.475 786.334 296.314C786.334 295.711 785.912 295.41 785.068 295.41H780.486L780.968 293.48H801.949C803.838 293.48 805.586 293.842 807.194 294.566C808.801 295.249 810.087 296.294 811.052 297.701C812.057 299.067 812.559 300.735 812.559 302.704C812.559 304.955 811.856 306.864 810.449 308.432C809.042 309.999 807.314 311.205 805.264 312.049C803.255 312.893 801.245 313.456 799.236 313.737L799.175 313.858C800.863 313.938 802.451 314.38 803.938 315.184C805.425 315.988 806.611 317.073 807.495 318.44C808.379 319.806 808.821 321.374 808.821 323.142C808.821 325.754 807.957 328.086 806.229 330.135C804.501 332.145 802.31 333.692 799.658 334.778C797.045 335.863 794.473 336.405 791.941 336.405H769.393L769.875 334.476ZM795.558 312.652C798.331 312.652 800.542 312.129 802.19 311.084C803.878 309.999 805.063 308.693 805.747 307.166C806.43 305.638 806.772 304.111 806.772 302.584C806.772 297.801 804.541 295.41 800.08 295.41H793.749C792.664 295.41 791.981 295.952 791.7 297.037L787.479 312.652H795.558ZM792.966 334.476C794.855 334.476 796.523 333.933 797.97 332.848C799.416 331.723 800.522 330.316 801.285 328.628C802.049 326.9 802.431 325.172 802.431 323.443C802.431 320.71 801.828 318.56 800.622 316.993C799.416 315.385 797.628 314.581 795.257 314.581H786.937L781.993 332.848C781.913 333.17 781.873 333.391 781.873 333.511C781.873 334.155 782.295 334.476 783.139 334.476H792.966Z" fill="#FDFDFD"/>
<path d="M883.054 334.476H887.636C888.721 334.476 889.405 333.933 889.686 332.848L899.392 297.037C899.473 296.716 899.513 296.475 899.513 296.314C899.513 295.711 899.091 295.41 898.247 295.41H893.665L894.147 293.48H915.127C917.016 293.48 918.765 293.842 920.372 294.566C921.98 295.249 923.266 296.294 924.231 297.701C925.236 299.067 925.738 300.735 925.738 302.704C925.738 304.955 925.035 306.864 923.628 308.432C922.221 309.999 920.493 311.205 918.443 312.049C916.434 312.893 914.424 313.456 912.414 313.737L912.354 313.858C914.042 313.938 915.63 314.38 917.117 315.184C918.604 315.988 919.79 317.073 920.674 318.44C921.558 319.806 922 321.374 922 323.142C922 325.754 921.136 328.086 919.408 330.135C917.68 332.145 915.489 333.692 912.836 334.778C910.224 335.863 907.652 336.405 905.12 336.405H882.572L883.054 334.476ZM908.737 312.652C911.51 312.652 913.721 312.129 915.368 311.084C917.057 309.999 918.242 308.693 918.925 307.166C919.609 305.638 919.95 304.111 919.95 302.584C919.95 297.801 917.72 295.41 913.258 295.41H906.928C905.843 295.41 905.16 295.952 904.878 297.037L900.658 312.652H908.737ZM906.144 334.476C908.033 334.476 909.701 333.933 911.148 332.848C912.595 331.723 913.701 330.316 914.464 328.628C915.228 326.9 915.61 325.172 915.61 323.443C915.61 320.71 915.007 318.56 913.801 316.993C912.595 315.385 910.807 314.581 908.435 314.581H900.116L895.172 332.848C895.092 333.17 895.051 333.391 895.051 333.511C895.051 334.155 895.474 334.476 896.318 334.476H906.144ZM917.987 349.066H922.448C922.93 349.066 923.292 348.965 923.533 348.764C923.774 348.563 923.955 348.222 924.076 347.739L932.335 317.053C932.818 315.124 933.059 313.637 933.059 312.592C933.059 311.989 932.958 311.567 932.757 311.326C932.596 311.084 932.295 310.964 931.853 310.964C930.768 310.964 929.622 311.949 928.417 313.918C927.251 315.847 926.246 318.078 925.402 320.61L924.196 320.248C926.849 312.692 929.823 308.914 933.119 308.914C934.365 308.914 935.249 309.497 935.772 310.662C936.294 311.788 936.555 313.114 936.555 314.641C936.555 315.204 936.535 315.666 936.495 316.028C936.495 316.39 936.495 316.611 936.495 316.691L936.676 316.812C937.52 315.003 938.746 313.235 940.354 311.506C942.001 309.778 943.75 308.914 945.599 308.914C947.729 308.914 949.377 309.678 950.542 311.205C951.748 312.692 952.351 314.682 952.351 317.173C952.351 319.625 951.989 321.996 951.266 324.287C950.542 326.538 949.718 328.387 948.794 329.834C947.387 332.044 945.739 333.813 943.85 335.139C942.001 336.466 940.112 337.129 938.183 337.129C936.937 337.129 935.812 336.707 934.807 335.863C933.802 334.978 933.079 333.632 932.637 331.823L932.396 331.703L928.175 347.739L928.055 348.342C928.055 348.624 928.135 348.804 928.296 348.885C928.457 349.005 928.718 349.066 929.08 349.066H936.435L935.953 350.754H917.504L917.987 349.066ZM938.183 335.682C939.429 335.682 940.615 334.999 941.74 333.632C942.866 332.266 943.83 330.698 944.634 328.93C945.639 326.679 946.443 324.287 947.045 321.755C947.689 319.223 948.01 316.892 948.01 314.762C948.01 313.556 947.789 312.531 947.347 311.687C946.945 310.803 946.242 310.361 945.237 310.361C943.75 310.361 942.323 311.125 940.956 312.652C939.59 314.139 938.324 316.149 937.158 318.681C936.354 320.489 935.651 322.499 935.048 324.709C934.445 326.92 934.144 328.729 934.144 330.135C934.144 331.904 934.506 333.27 935.229 334.235C935.953 335.2 936.937 335.682 938.183 335.682ZM960.613 351.357C958.442 351.357 956.694 350.834 955.368 349.789C954.041 348.744 953.378 347.297 953.378 345.448C953.378 344.323 953.7 343.439 954.343 342.796C955.026 342.153 955.79 341.831 956.634 341.831C957.397 341.831 957.98 342.072 958.382 342.555C958.824 343.077 959.045 343.64 959.045 344.243C959.045 345.247 958.663 346.051 957.9 346.654C957.699 346.855 957.558 347.036 957.478 347.197C957.397 347.358 957.357 347.619 957.357 347.981C957.357 349.267 958.221 349.91 959.949 349.91C961.356 349.91 962.562 349.669 963.567 349.186C964.571 348.744 965.576 347.9 966.581 346.654C967.586 345.408 968.37 344.002 968.932 342.434C969.535 340.907 970.078 339.219 970.56 337.37L973.152 327.664L972.791 327.543C971.505 330.155 969.897 332.406 967.968 334.295C966.038 336.184 964.19 337.129 962.421 337.129C961.095 337.129 959.99 336.626 959.105 335.622C958.221 334.617 957.779 333.19 957.779 331.341C957.779 330.457 957.9 329.392 958.141 328.146C958.382 326.86 958.663 325.875 958.985 325.192L962.843 316.209C963.044 315.767 963.245 315.184 963.446 314.461C963.687 313.737 963.808 313.134 963.808 312.652C963.808 312.089 963.687 311.627 963.446 311.265C963.205 310.904 962.863 310.723 962.421 310.723C961.055 310.723 959.748 311.768 958.502 313.858C957.257 315.948 956.191 318.198 955.307 320.61L954.101 320.248C955.187 316.993 956.493 314.3 958.02 312.17C959.588 309.999 961.276 308.914 963.084 308.914C964.17 308.914 965.074 309.396 965.797 310.361C966.561 311.326 966.943 312.772 966.943 314.702C966.943 315.586 966.822 316.651 966.581 317.897C966.34 319.103 966.059 320.087 965.737 320.851L961.879 329.834C961.678 330.276 961.457 330.859 961.215 331.582C961.014 332.306 960.914 332.909 960.914 333.391C960.914 334.918 961.617 335.682 963.024 335.682C964.511 335.682 966.139 334.677 967.907 332.667C969.676 330.618 971.304 328.126 972.791 325.192C974.318 322.218 975.443 319.444 976.167 316.872L978.156 309.638H982.135L975.021 336.405C974.539 338.134 973.775 340.043 972.73 342.133C971.726 344.263 970.48 346.092 968.993 347.619C967.706 348.945 966.32 349.89 964.833 350.452C963.346 351.055 961.939 351.357 960.613 351.357ZM991.282 337.249C989.916 337.249 988.609 336.847 987.363 336.044C986.158 335.24 985.153 334.034 984.349 332.426C983.585 330.778 983.204 328.809 983.204 326.518C983.204 324.508 983.485 322.218 984.048 319.645C984.61 317.033 985.334 314.661 986.218 312.531C987.866 308.593 990.157 305.216 993.091 302.403C996.025 299.549 999.602 297.62 1003.82 296.615C1005.71 296.173 1007.1 295.751 1007.98 295.349C1008.91 294.947 1009.49 294.445 1009.73 293.842L1010.03 293.058L1011.24 293.42C1011.04 294.385 1010.63 295.47 1010.03 296.676C1009.47 297.841 1008.64 298.786 1007.56 299.509C1006.15 300.434 1004.24 301.157 1001.83 301.68C998.215 302.443 995.241 303.81 992.91 305.779C990.619 307.748 989.031 309.919 988.147 312.29L987.363 314.4L987.605 314.581C988.77 313.014 990.257 311.687 992.066 310.602C993.915 309.477 995.864 308.914 997.914 308.914C999.24 308.914 1000.51 309.316 1001.71 310.12C1002.92 310.883 1003.88 312.069 1004.61 313.677C1005.37 315.284 1005.75 317.234 1005.75 319.525C1005.75 322.338 1005.09 325.131 1003.76 327.905C1002.44 330.638 1000.65 332.888 998.396 334.657C996.185 336.385 993.814 337.249 991.282 337.249ZM991.523 335.682C993.131 335.682 994.477 335.039 995.563 333.753C996.648 332.466 997.652 330.738 998.577 328.568C999.421 326.598 1000.1 324.468 1000.63 322.177C1001.15 319.886 1001.41 317.796 1001.41 315.907C1001.41 314.26 1001.09 312.933 1000.45 311.928C999.803 310.883 998.838 310.361 997.552 310.361C995.944 310.361 994.578 311.024 993.452 312.35C992.327 313.637 991.302 315.345 990.378 317.475C989.534 319.444 988.85 321.574 988.328 323.865C987.805 326.156 987.544 328.246 987.544 330.135C987.544 331.783 987.886 333.13 988.569 334.175C989.252 335.179 990.237 335.682 991.523 335.682ZM1014.97 337.129C1013.76 337.129 1012.8 336.646 1012.08 335.682C1011.39 334.677 1011.05 333.23 1011.05 331.341C1011.05 330.457 1011.17 329.392 1011.41 328.146C1011.65 326.86 1011.94 325.875 1012.26 325.192L1016.12 316.209C1016.32 315.767 1016.52 315.184 1016.72 314.461C1016.96 313.737 1017.08 313.134 1017.08 312.652C1017.08 312.089 1016.96 311.627 1016.72 311.265C1016.48 310.904 1016.14 310.723 1015.69 310.723C1014.33 310.723 1013.02 311.768 1011.77 313.858C1010.53 315.948 1009.46 318.198 1008.58 320.61L1007.37 320.248C1008.46 316.993 1009.77 314.3 1011.29 312.17C1012.86 309.999 1014.55 308.914 1016.36 308.914C1017.44 308.914 1018.35 309.396 1019.07 310.361C1019.83 311.326 1020.22 312.772 1020.22 314.702C1020.22 315.586 1020.09 316.651 1019.85 317.897C1019.61 319.103 1019.33 320.087 1019.01 320.851L1015.15 329.834C1014.95 330.276 1014.73 330.859 1014.49 331.582C1014.29 332.306 1014.19 332.909 1014.19 333.391C1014.19 333.954 1014.29 334.416 1014.49 334.778C1014.73 335.139 1015.07 335.32 1015.51 335.32C1017.92 335.32 1020.48 333.049 1023.17 328.508C1024.78 325.775 1026.2 323.062 1027.45 320.369C1028.74 317.676 1029.64 315.425 1030.16 313.616L1031.37 309.638H1035.35L1030.28 328.327C1029.68 330.738 1029.38 332.446 1029.38 333.451C1029.38 334.014 1029.46 334.436 1029.62 334.717C1029.78 334.958 1030.08 335.079 1030.52 335.079C1031.65 335.079 1032.77 334.155 1033.9 332.306C1035.07 330.417 1036.11 328.126 1037.04 325.433L1038.24 325.795C1035.59 333.351 1032.63 337.129 1029.38 337.129C1027.05 337.129 1025.88 335.079 1025.88 330.979C1025.88 330.176 1026.06 328.95 1026.42 327.302C1026.83 325.614 1027.17 324.408 1027.45 323.685L1027.27 323.504L1026.42 325.011C1024.66 328.427 1022.85 331.301 1021 333.632C1019.19 335.963 1017.18 337.129 1014.97 337.129ZM1051.05 334.476H1055.64C1056.72 334.476 1057.4 333.933 1057.69 332.848L1067.39 297.037C1067.47 296.716 1067.51 296.475 1067.51 296.314C1067.51 295.711 1067.09 295.41 1066.25 295.41H1061.67L1062.15 293.48H1079.99L1079.51 295.41H1074.93C1073.84 295.41 1073.16 295.952 1072.88 297.037L1064.86 326.578L1090.97 299.027L1091.51 297.037C1091.59 296.716 1091.63 296.495 1091.63 296.374C1091.63 295.731 1091.19 295.41 1090.3 295.41H1085.78L1086.26 293.48H1104.11L1103.63 295.41H1099.1C1098.54 295.41 1098.1 295.55 1097.78 295.832C1097.46 296.073 1097.19 296.475 1096.99 297.037L1087.29 332.848C1087.21 333.17 1087.17 333.391 1087.17 333.511C1087.17 334.155 1087.61 334.476 1088.49 334.476H1093.01L1092.53 336.405H1074.69L1075.17 334.476H1079.75C1080.31 334.476 1080.74 334.355 1081.02 334.114C1081.34 333.833 1081.6 333.411 1081.8 332.848L1089.76 303.307L1063.72 330.859L1063.17 332.848C1063.09 333.17 1063.05 333.391 1063.05 333.511C1063.05 334.155 1063.47 334.476 1064.32 334.476H1068.9L1068.42 336.405H1050.57L1051.05 334.476ZM1096.56 334.476H1101.14C1102.23 334.476 1102.91 333.933 1103.19 332.848L1112.9 297.037C1112.98 296.716 1113.02 296.475 1113.02 296.314C1113.02 295.711 1112.6 295.41 1111.75 295.41H1107.17L1107.65 293.48H1128.63C1130.52 293.48 1132.27 293.842 1133.88 294.566C1135.49 295.249 1136.77 296.294 1137.74 297.701C1138.74 299.067 1139.24 300.735 1139.24 302.704C1139.24 304.955 1138.54 306.864 1137.13 308.432C1135.73 309.999 1134 311.205 1131.95 312.049C1129.94 312.893 1127.93 313.456 1125.92 313.737L1125.86 313.858C1127.55 313.938 1129.14 314.38 1130.62 315.184C1132.11 315.988 1133.3 317.073 1134.18 318.44C1135.06 319.806 1135.51 321.374 1135.51 323.142C1135.51 325.754 1134.64 328.086 1132.91 330.135C1131.19 332.145 1128.99 333.692 1126.34 334.778C1123.73 335.863 1121.16 336.405 1118.63 336.405H1096.08L1096.56 334.476ZM1122.24 312.652C1125.02 312.652 1127.23 312.129 1128.87 311.084C1130.56 309.999 1131.75 308.693 1132.43 307.166C1133.11 305.638 1133.46 304.111 1133.46 302.584C1133.46 297.801 1131.23 295.41 1126.76 295.41H1120.43C1119.35 295.41 1118.67 295.952 1118.38 297.037L1114.16 312.652H1122.24ZM1119.65 334.476C1121.54 334.476 1123.21 333.933 1124.65 332.848C1126.1 331.723 1127.21 330.316 1127.97 328.628C1128.73 326.9 1129.12 325.172 1129.12 323.443C1129.12 320.71 1128.51 318.56 1127.31 316.993C1126.1 315.385 1124.31 314.581 1121.94 314.581H1113.62L1108.68 332.848C1108.6 333.17 1108.56 333.391 1108.56 333.511C1108.56 334.155 1108.98 334.476 1109.82 334.476H1119.65Z" fill="#FDFDFD"/>
<line y1="25.8" x2="494" y2="25.8" stroke="#FE42AA" stroke-width="4"/>
<line x1="946" y1="25.8" x2="1440" y2="25.8001" stroke="#FE42AA" stroke-width="4"/>
<path d="M502.089 41.88H506.289C506.849 41.88 507.229 41.78 507.429 41.58C507.629 41.34 507.729 40.96 507.729 40.44V4.44005C507.729 3.88005 507.629 3.50005 507.429 3.30005C507.229 3.10005 506.849 3.00005 506.289 3.00005H502.089V1.08005H522.249V3.00005H518.049C517.529 3.00005 517.149 3.10005 516.909 3.30005C516.709 3.50005 516.609 3.88005 516.609 4.44005V20.28H530.769V4.44005C530.769 3.88005 530.669 3.50005 530.469 3.30005C530.269 3.10005 529.889 3.00005 529.329 3.00005H525.009V1.08005H545.289V3.00005H541.089C540.569 3.00005 540.189 3.10005 539.949 3.30005C539.749 3.50005 539.649 3.88005 539.649 4.44005V40.44C539.649 40.96 539.749 41.34 539.949 41.58C540.189 41.78 540.569 41.88 541.089 41.88H545.289V43.8H525.129V41.88H529.329C529.889 41.88 530.269 41.78 530.469 41.58C530.669 41.34 530.769 40.96 530.769 40.44V22.44H516.609V40.44C516.609 40.96 516.709 41.34 516.909 41.58C517.149 41.78 517.529 41.88 518.049 41.88H522.249V43.8H502.089V41.88ZM550.462 41.88H552.502C553.702 41.88 554.762 41.42 555.682 40.5C556.602 39.54 557.302 38.38 557.782 37.02L570.442 4.76837e-05H572.962L585.802 38.82C586.482 40.86 587.662 41.88 589.342 41.88H591.742V43.8H570.682V41.88H575.002C575.482 41.88 575.862 41.7 576.142 41.34C576.462 40.94 576.622 40.48 576.622 39.96C576.622 39.52 576.502 38.94 576.262 38.22L574.342 32.46H561.742L560.482 36.12C560.042 37.24 559.822 38.26 559.822 39.18C559.822 39.9 560.102 40.54 560.662 41.1C561.262 41.62 562.022 41.88 562.942 41.88H565.762V43.8H550.462V41.88ZM562.522 30.24H573.622L568.162 13.74L562.522 30.24ZM609.626 41.88H613.826C614.386 41.88 614.766 41.78 614.966 41.58C615.166 41.34 615.266 40.96 615.266 40.44V24.96H604.586C597.466 24.96 593.906 21.68 593.906 15.12V4.44005C593.906 3.88005 593.806 3.50005 593.606 3.30005C593.406 3.10005 593.026 3.00005 592.466 3.00005H588.266V1.08005H607.586V3.00005H604.226C603.706 3.00005 603.326 3.10005 603.086 3.30005C602.886 3.50005 602.786 3.88005 602.786 4.44005V17.82C602.786 19.78 603.186 21.14 603.986 21.9C604.786 22.66 605.946 23.04 607.466 23.04H615.266V4.44005C615.266 3.88005 615.166 3.50005 614.966 3.30005C614.766 3.10005 614.386 3.00005 613.826 3.00005H610.466V1.08005H629.786V3.00005H625.586C625.066 3.00005 624.686 3.10005 624.446 3.30005C624.246 3.50005 624.146 3.88005 624.146 4.44005V40.44C624.146 40.96 624.246 41.34 624.446 41.58C624.686 41.78 625.066 41.88 625.586 41.88H629.786V43.8H609.626V41.88ZM636.034 41.88H640.234C640.794 41.88 641.174 41.78 641.374 41.58C641.574 41.34 641.674 40.96 641.674 40.44V4.44005C641.674 3.88005 641.574 3.50005 641.374 3.30005C641.174 3.10005 640.794 3.00005 640.234 3.00005H636.034V1.08005H669.754L670.114 15H668.194C668.194 14.72 667.974 13.82 667.534 12.3C667.134 10.78 666.554 9.40005 665.794 8.16005C664.874 6.56005 663.814 5.30005 662.614 4.38005C661.414 3.46005 660.074 3.00005 658.594 3.00005H651.994C651.474 3.00005 651.094 3.10005 650.854 3.30005C650.654 3.50005 650.554 3.88005 650.554 4.44005V21H653.614C654.694 21 655.694 20.56 656.614 19.68C657.534 18.8 658.254 17.72 658.774 16.44C659.334 15.12 659.614 13.88 659.614 12.72H661.534V31.5H659.614C659.614 30.3 659.334 29.06 658.774 27.78C658.254 26.46 657.534 25.36 656.614 24.48C655.694 23.6 654.694 23.16 653.614 23.16H650.554V40.44C650.554 40.96 650.654 41.34 650.854 41.58C651.094 41.78 651.474 41.88 651.994 41.88H658.534C660.734 41.88 662.574 41 664.054 39.24C665.534 37.48 666.654 35.52 667.414 33.36C667.734 32.44 668.014 31.3 668.254 29.94C668.494 28.58 668.634 27.68 668.674 27.24H670.594L670.234 43.8H636.034V41.88ZM677.46 41.88H681.66C682.22 41.88 682.6 41.78 682.8 41.58C683 41.34 683.1 40.96 683.1 40.44V4.44005C683.1 3.88005 683 3.50005 682.8 3.30005C682.6 3.10005 682.22 3.00005 681.66 3.00005H677.46V1.08005H698.82C701.62 1.08005 704.1 1.56005 706.26 2.52005C708.46 3.44005 710.16 4.76005 711.36 6.48005C712.6 8.16005 713.22 10.08 713.22 12.24C713.22 14.44 712.6 16.4 711.36 18.12C710.16 19.84 708.46 21.2 706.26 22.2C704.1 23.16 701.62 23.64 698.82 23.64H691.98V40.44C691.98 40.96 692.08 41.34 692.28 41.58C692.52 41.78 692.9 41.88 693.42 41.88H698.7V43.8H677.46V41.88ZM697.92 21.72C700 21.72 701.46 20.88 702.3 19.2C703.18 17.52 703.62 15.2 703.62 12.24C703.62 9.32005 703.2 7.06005 702.36 5.46005C701.52 3.82005 700.04 3.00005 697.92 3.00005H693.42C692.9 3.00005 692.52 3.10005 692.28 3.30005C692.08 3.50005 691.98 3.88005 691.98 4.44005V21.72H697.92ZM727.269 41.88H732.069C732.629 41.88 733.009 41.78 733.209 41.58C733.409 41.34 733.509 40.96 733.509 40.44V5.04005C733.509 4.40005 733.309 3.90005 732.909 3.54005C732.509 3.18005 731.969 3.00005 731.289 3.00005C729.409 3.00005 727.689 4.04005 726.129 6.12005C724.569 8.16005 723.409 10.56 722.649 13.32C722.209 14.8 721.889 16.06 721.689 17.1C721.529 18.1 721.429 18.72 721.389 18.96H719.469L719.949 1.08005H755.949L756.429 18.96H754.509C754.469 18.72 754.349 18.1 754.149 17.1C753.989 16.06 753.689 14.8 753.249 13.32C752.489 10.56 751.329 8.16005 749.769 6.12005C748.209 4.04005 746.489 3.00005 744.609 3.00005C743.929 3.00005 743.389 3.18005 742.989 3.54005C742.589 3.90005 742.389 4.40005 742.389 5.04005V40.44C742.389 40.96 742.489 41.34 742.689 41.58C742.929 41.78 743.309 41.88 743.829 41.88H748.629V43.8H727.269V41.88ZM756.185 41.88H758.225C759.425 41.88 760.485 41.42 761.405 40.5C762.325 39.54 763.025 38.38 763.505 37.02L776.165 4.76837e-05H778.685L791.525 38.82C792.205 40.86 793.385 41.88 795.065 41.88H797.465V43.8H776.405V41.88H780.725C781.205 41.88 781.585 41.7 781.865 41.34C782.185 40.94 782.345 40.48 782.345 39.96C782.345 39.52 782.225 38.94 781.985 38.22L780.065 32.46H767.465L766.205 36.12C765.765 37.24 765.545 38.26 765.545 39.18C765.545 39.9 765.825 40.54 766.385 41.1C766.985 41.62 767.745 41.88 768.665 41.88H771.485V43.8H756.185V41.88ZM768.245 30.24H779.345L773.885 13.74L768.245 30.24ZM802.499 41.88H806.699C807.259 41.88 807.639 41.78 807.839 41.58C808.039 41.34 808.139 40.96 808.139 40.44V4.44005C808.139 3.88005 808.039 3.50005 807.839 3.30005C807.639 3.10005 807.259 3.00005 806.699 3.00005H802.499V1.08005H822.659V3.00005H818.459C817.939 3.00005 817.559 3.10005 817.319 3.30005C817.119 3.50005 817.019 3.88005 817.019 4.44005V20.28H831.179V4.44005C831.179 3.88005 831.079 3.50005 830.879 3.30005C830.679 3.10005 830.299 3.00005 829.739 3.00005H825.419V1.08005H845.699V3.00005H841.499C840.979 3.00005 840.599 3.10005 840.359 3.30005C840.159 3.50005 840.059 3.88005 840.059 4.44005V40.44C840.059 40.96 840.159 41.34 840.359 41.58C840.599 41.78 840.979 41.88 841.499 41.88H845.699V43.8H825.539V41.88H829.739C830.299 41.88 830.679 41.78 830.879 41.58C831.079 41.34 831.179 40.96 831.179 40.44V22.44H817.019V40.44C817.019 40.96 817.119 41.34 817.319 41.58C817.559 41.78 817.939 41.88 818.459 41.88H822.659V43.8H802.499V41.88ZM851.952 41.88H856.152C856.712 41.88 857.092 41.78 857.292 41.58C857.492 41.34 857.592 40.96 857.592 40.44V4.44005C857.592 3.88005 857.492 3.50005 857.292 3.30005C857.092 3.10005 856.712 3.00005 856.152 3.00005H851.952V1.08005H872.112V3.00005H867.912C867.392 3.00005 867.012 3.10005 866.772 3.30005C866.572 3.50005 866.472 3.88005 866.472 4.44005V34.26L880.632 6.24005V4.44005C880.632 3.88005 880.532 3.50005 880.332 3.30005C880.132 3.10005 879.752 3.00005 879.192 3.00005H874.872V1.08005H895.152V3.00005H890.952C890.432 3.00005 890.052 3.10005 889.812 3.30005C889.612 3.50005 889.512 3.88005 889.512 4.44005V40.44C889.512 40.96 889.612 41.34 889.812 41.58C890.052 41.78 890.432 41.88 890.952 41.88H895.152V43.8H874.992V41.88H879.192C879.752 41.88 880.132 41.78 880.332 41.58C880.532 41.34 880.632 40.96 880.632 40.44V10.56L866.472 38.64V40.44C866.472 40.96 866.572 41.34 866.772 41.58C867.012 41.78 867.392 41.88 867.912 41.88H872.112V43.8H851.952V41.88ZM907.106 45.24C904.426 45.24 902.566 44.18 901.526 42.06C900.486 39.9 899.966 36.88 899.966 33H901.886C901.886 35.48 902.126 37.58 902.606 39.3C903.086 41.02 903.846 41.88 904.886 41.88C906.006 41.88 906.566 41.04 906.566 39.36V33.18C906.566 29.7 907.386 27.16 909.026 25.56C910.706 23.96 913.126 22.88 916.286 22.32V21.9C913.006 21.54 910.346 20.5 908.306 18.78C906.266 17.02 905.246 14.76 905.246 12C905.246 9.84005 905.846 7.94005 907.046 6.30005C908.286 4.62005 909.986 3.34005 912.146 2.46005C914.346 1.54005 916.846 1.08005 919.646 1.08005H939.086V3.00005H934.886C934.366 3.00005 933.986 3.10005 933.746 3.30005C933.546 3.50005 933.446 3.88005 933.446 4.44005V40.44C933.446 40.96 933.546 41.34 933.746 41.58C933.986 41.78 934.366 41.88 934.886 41.88H939.086V43.8H917.846V41.88H923.126C923.686 41.88 924.066 41.78 924.266 41.58C924.466 41.34 924.566 40.96 924.566 40.44V22.68H921.206C919.246 22.68 917.786 23.3 916.826 24.54C915.906 25.78 915.446 27.36 915.446 29.28V36.24C915.446 39.2 914.686 41.44 913.166 42.96C911.686 44.48 909.666 45.24 907.106 45.24ZM924.566 20.76V4.44005C924.566 3.88005 924.466 3.50005 924.266 3.30005C924.066 3.10005 923.686 3.00005 923.126 3.00005H920.546C916.746 3.00005 914.846 5.96005 914.846 11.88C914.846 17.8 916.746 20.76 920.546 20.76H924.566Z" fill="#FE42AA"/>
<defs>
<radialGradient id="paint0_radial_9_692" cx="0" cy="0" r="1" gradientUnits="userSpaceOnUse" gradientTransform="translate(117 233.3) scale(100 100.5)">
<stop stop-color="#ECECEC"/>
<stop offset="0.802885" stop-color="#AE868A"/>
</radialGradient>
<radialGradient id="paint1_radial_9_692" cx="0" cy="0" r="1" gradientUnits="userSpaceOnUse" gradientTransform="translate(1323 233.3) scale(100 100.5)">
<stop stop-color="#ECECEC"/>
<stop offset="0.802885" stop-color="#AE868A"/>
</radialGradient>
</defs>
</svg>
