<svg width="1410" height="707" viewBox="0 0 1410 707" fill="none" xmlns="http://www.w3.org/2000/svg">
<path d="M477.551 179.51C470.31 179.51 463.844 177.225 458.155 172.657C452.465 168.088 448.026 162.096 444.836 154.683C441.646 147.183 440.052 139.338 440.052 131.149C440.052 122.959 441.646 115.158 444.836 107.744C448.026 100.244 452.465 94.2097 458.155 89.6408C463.844 85.0719 470.31 82.7875 477.551 82.7875C484.792 82.7875 491.258 85.0719 496.947 89.6408C502.637 94.2097 507.076 100.244 510.266 107.744C513.456 115.158 515.05 122.959 515.05 131.149C515.05 139.338 513.456 147.183 510.266 154.683C507.076 162.096 502.637 168.088 496.947 172.657C491.258 177.225 484.792 179.51 477.551 179.51ZM477.551 175.372C485.999 175.372 492.077 171.536 495.783 163.864C499.49 156.105 501.344 145.2 501.344 131.149C501.344 117.011 499.49 106.106 495.783 98.4337C492.077 90.7615 485.999 86.9253 477.551 86.9253C469.103 86.9253 463.025 90.7615 459.319 98.4337C455.612 106.106 453.758 117.011 453.758 131.149C453.758 145.2 455.612 156.105 459.319 163.864C463.025 171.536 469.103 175.372 477.551 175.372ZM523.739 173.045H533.049C535.377 173.045 536.541 171.881 536.541 169.553V92.7442C536.541 91.5373 536.239 90.6752 535.636 90.158C535.118 89.5546 534.256 89.2529 533.049 89.2529H523.739V85.115H563.308V89.2529H551.928C550.722 89.2529 549.816 89.5546 549.213 90.158C548.696 90.6752 548.437 91.5373 548.437 92.7442V169.553C548.437 171.881 549.601 173.045 551.928 173.045H564.989C569.557 173.045 573.652 172.01 577.273 169.941C580.893 167.872 583.609 164.855 585.419 160.89C586.799 157.959 587.919 154.855 588.781 151.579C589.73 148.217 590.419 145.373 590.85 143.045C591.281 140.717 591.54 139.252 591.626 138.649H594.859L593.695 177.182H523.739V173.045ZM604.547 173.045H613.857C616.184 173.045 617.348 171.881 617.348 169.553V92.7442C617.348 91.5373 617.047 90.6752 616.443 90.158C615.926 89.5546 615.064 89.2529 613.857 89.2529H604.547V85.115H651.874C659.029 85.115 665.58 87.0546 671.528 90.9339C677.477 94.7269 682.175 100.072 685.623 106.968C689.157 113.778 690.925 121.58 690.925 130.373C690.925 139.166 689.157 147.14 685.623 154.295C682.175 161.45 677.433 167.053 671.399 171.105C665.451 175.157 658.942 177.182 651.874 177.182H604.547V173.045ZM651.356 173.045C657.391 173.045 662.347 171.019 666.227 166.967C670.106 162.829 672.908 157.571 674.632 151.191C676.356 144.726 677.218 137.787 677.218 130.373C677.218 118.821 675.106 109.08 670.882 101.149C666.744 93.2183 660.235 89.2529 651.356 89.2529H632.736C631.529 89.2529 630.624 89.5546 630.02 90.158C629.503 90.6752 629.245 91.5373 629.245 92.7442V169.553C629.245 171.881 630.408 173.045 632.736 173.045H651.356ZM476.387 296.51C472.767 296.51 469.189 295.734 465.655 294.182C462.206 292.544 459.189 290.777 456.603 288.881C452.983 286.122 450.827 284.743 450.138 284.743C448.414 284.743 447.293 286.596 446.776 290.303L446.258 295.475H443.284L442.379 254.614H445.483C446 260.993 447.767 267.114 450.784 272.976C453.888 278.752 457.724 283.45 462.293 287.07C466.862 290.605 471.56 292.372 476.387 292.372C483.456 292.372 488.585 290.648 491.775 287.2C495.051 283.752 496.689 279.614 496.689 274.786C496.689 270.562 495.439 267.243 492.939 264.829C490.525 262.416 486.947 260.261 482.206 258.364L462.551 250.476C455.741 247.718 450.698 244.183 447.422 239.873C444.233 235.476 442.638 230.218 442.638 224.097C442.638 215.822 445.052 209.701 449.879 205.736C454.707 201.77 460.741 199.787 467.982 199.787C473.672 199.787 479.965 202.374 486.861 207.546C487.723 208.149 488.585 208.71 489.447 209.227C490.309 209.658 491.085 209.873 491.775 209.873C493.24 209.873 494.102 208.839 494.361 206.77L494.878 202.115H497.982L499.275 235.735H496.171C494.792 229.528 492.594 224.011 489.577 219.184C486.646 214.356 483.197 210.606 479.232 207.934C475.267 205.261 471.172 203.925 466.948 203.925C462.12 203.925 458.155 205.52 455.051 208.71C451.948 211.813 450.396 216.166 450.396 221.77C450.396 225.649 451.388 228.666 453.37 230.821C455.353 232.977 458.284 234.83 462.163 236.382L487.12 246.338C492.896 248.666 497.206 251.985 500.051 256.295C502.982 260.605 504.447 265.131 504.447 269.872C504.447 274.441 503.413 278.752 501.344 282.803C499.361 286.855 496.258 290.174 492.034 292.76C487.896 295.26 482.68 296.51 476.387 296.51ZM530.97 290.045H543.384C545.712 290.045 546.875 288.881 546.875 286.553V209.356C546.875 208.149 546.617 207.287 546.099 206.77C545.582 206.167 544.677 205.865 543.384 205.865H538.729C533.298 205.865 528.6 208.624 524.634 214.141C522.134 217.675 520.453 222.115 519.591 227.459C518.729 232.718 518.298 236.597 518.298 239.097H514.678L515.712 202.115H589.935L590.969 239.097H587.349C587.349 236.597 586.918 232.718 586.056 227.459C585.194 222.115 583.513 217.675 581.013 214.141C577.047 208.624 572.349 205.865 566.918 205.865H562.263C560.97 205.865 560.065 206.167 559.548 206.77C559.03 207.287 558.772 208.149 558.772 209.356V286.553C558.772 288.881 559.935 290.045 562.263 290.045H574.677V294.182H530.97V290.045ZM587.451 290.045H592.235C597.321 290.045 601.028 286.898 603.356 280.605L631.157 202.115H634.39L662.45 284.355C663.312 286.51 664.346 288.019 665.553 288.881C666.76 289.657 668.311 290.045 670.208 290.045H677.449V294.182H637.364V290.045H645.898C647.191 290.045 648.269 289.743 649.131 289.139C649.993 288.45 650.424 287.674 650.424 286.812C650.424 285.691 650.251 284.743 649.907 283.967L643.829 266.769H613.571L610.468 275.433C609.261 278.881 608.657 281.381 608.657 282.933C608.657 284.829 609.131 286.51 610.08 287.976C611.028 289.355 612.666 290.045 614.993 290.045H622.881V294.182H587.451V290.045ZM614.993 262.631H642.407L628.959 223.192L614.993 262.631ZM700.941 216.21H700.424V279.7C700.424 282.889 701.156 285.433 702.622 287.329C704.174 289.139 706.156 290.045 708.57 290.045H713.225V294.182H682.45V290.045H687.105C689.605 290.045 691.588 289.139 693.053 287.329C694.519 285.433 695.251 282.889 695.251 279.7V209.744C695.165 208.537 694.863 207.675 694.346 207.158C693.829 206.555 692.967 206.253 691.76 206.253H682.45V202.115H706.889L751.759 274.269V216.598C751.759 213.408 751.026 210.908 749.561 209.098C748.095 207.201 746.156 206.253 743.742 206.253H739.087V202.115H769.862V206.253H765.207C762.793 206.253 760.811 207.201 759.259 209.098C757.707 210.908 756.931 213.408 756.931 216.598V296.51H751.759L700.941 216.21ZM776.138 290.045H785.448C787.775 290.045 788.939 288.881 788.939 286.553V209.744C788.939 208.537 788.637 207.675 788.034 207.158C787.517 206.555 786.655 206.253 785.448 206.253H776.138V202.115H823.464C830.619 202.115 837.171 204.055 843.119 207.934C849.067 211.727 853.766 217.072 857.214 223.968C860.748 230.778 862.515 238.58 862.515 247.373C862.515 256.166 860.748 264.14 857.214 271.295C853.766 278.45 849.024 284.053 842.99 288.105C837.042 292.157 830.533 294.182 823.464 294.182H776.138V290.045ZM822.947 290.045C828.982 290.045 833.938 288.019 837.818 283.967C841.697 279.829 844.498 274.571 846.223 268.191C847.947 261.726 848.809 254.787 848.809 247.373C848.809 235.821 846.697 226.08 842.473 218.149C838.335 210.218 831.826 206.253 822.947 206.253H804.327C803.12 206.253 802.215 206.555 801.611 207.158C801.094 207.675 800.835 208.537 800.835 209.744V286.553C800.835 288.881 801.999 290.045 804.327 290.045H822.947ZM860.811 290.045H865.596C870.682 290.045 874.389 286.898 876.716 280.605L904.517 202.115H907.75L935.81 284.355C936.672 286.51 937.706 288.019 938.913 288.881C940.12 289.657 941.672 290.045 943.568 290.045H950.81V294.182H910.724V290.045H919.258C920.552 290.045 921.629 289.743 922.491 289.139C923.353 288.45 923.784 287.674 923.784 286.812C923.784 285.691 923.612 284.743 923.267 283.967L917.19 266.769H886.931L883.828 275.433C882.621 278.881 882.018 281.381 882.018 282.933C882.018 284.829 882.492 286.51 883.44 287.976C884.388 289.355 886.026 290.045 888.354 290.045H896.242V294.182H860.811V290.045ZM888.354 262.631H915.767L902.319 223.192L888.354 262.631ZM1022.79 295.734C1019.95 295.734 1017.53 295.26 1015.55 294.312C1013.65 293.363 1012.15 291.812 1011.02 289.657C1008.7 285.174 1007.45 277.545 1007.27 266.769C1007.19 260.993 1006.15 256.209 1004.17 252.416C1002.19 248.537 998.999 246.597 994.603 246.597H980.508V286.553C980.508 287.76 980.767 288.665 981.284 289.269C981.801 289.786 982.706 290.045 983.999 290.045H995.508V294.182H955.81V290.045H965.12C967.448 290.045 968.612 288.881 968.612 286.553V209.744C968.612 208.537 968.31 207.675 967.707 207.158C967.189 206.555 966.327 206.253 965.12 206.253H955.81V202.115H998.223C1006.59 202.115 1013.44 203.71 1018.78 206.899C1024.13 210.089 1026.8 215.391 1026.8 222.804C1026.8 229.183 1024.39 234.313 1019.56 238.192C1014.82 242.071 1009.09 244.356 1002.36 245.045V245.563C1007.27 246.511 1011.28 248.795 1014.39 252.416C1017.58 255.95 1019.69 262.028 1020.72 270.648C1021.33 275.562 1021.84 279.14 1022.27 281.381C1022.79 283.622 1023.4 285.217 1024.08 286.165C1024.86 287.027 1025.98 287.458 1027.45 287.458C1031.15 287.458 1033.01 282.803 1033.01 273.493H1036.24C1036.24 279.096 1035.42 284.226 1033.78 288.881C1032.15 293.45 1028.48 295.734 1022.79 295.734ZM993.051 242.459C1000.29 242.459 1005.42 240.735 1008.44 237.287C1011.54 233.752 1013.09 228.925 1013.09 222.804C1013.09 217.546 1011.67 213.494 1008.83 210.649C1006.07 207.718 1002.27 206.253 997.447 206.253H983.999C982.792 206.253 981.887 206.555 981.284 207.158C980.767 207.675 980.508 208.537 980.508 209.744V242.459H993.051ZM1060.14 290.045H1072.55C1074.88 290.045 1076.04 288.881 1076.04 286.553V209.356C1076.04 208.149 1075.78 207.287 1075.27 206.77C1074.75 206.167 1073.85 205.865 1072.55 205.865H1067.9C1062.47 205.865 1057.77 208.624 1053.8 214.141C1051.3 217.675 1049.62 222.115 1048.76 227.459C1047.9 232.718 1047.47 236.597 1047.47 239.097H1043.85L1044.88 202.115H1119.1L1120.14 239.097H1116.52C1116.52 236.597 1116.09 232.718 1115.22 227.459C1114.36 222.115 1112.68 217.675 1110.18 214.141C1106.22 208.624 1101.52 205.865 1096.09 205.865H1091.43C1090.14 205.865 1089.23 206.167 1088.72 206.77C1088.2 207.287 1087.94 208.149 1087.94 209.356V286.553C1087.94 288.881 1089.1 290.045 1091.43 290.045H1103.84V294.182H1060.14V290.045ZM1177.05 290.045H1189.46C1191.79 290.045 1192.96 288.881 1192.96 286.553V209.356C1192.96 208.149 1192.7 207.287 1192.18 206.77C1191.66 206.167 1190.76 205.865 1189.46 205.865H1184.81C1179.38 205.865 1174.68 208.624 1170.72 214.141C1168.22 217.675 1166.53 222.115 1165.67 227.459C1164.81 232.718 1164.38 236.597 1164.38 239.097H1160.76L1161.79 202.115H1236.02L1237.05 239.097H1233.43C1233.43 236.597 1233 232.718 1232.14 227.459C1231.27 222.115 1229.59 217.675 1227.09 214.141C1223.13 208.624 1218.43 205.865 1213 205.865H1208.34C1207.05 205.865 1206.15 206.167 1205.63 206.77C1205.11 207.287 1204.85 208.149 1204.85 209.356V286.553C1204.85 288.881 1206.02 290.045 1208.34 290.045H1220.76V294.182H1177.05V290.045ZM1263.54 290.045H1275.95C1278.28 290.045 1279.45 288.881 1279.45 286.553V209.356C1279.45 208.149 1279.19 207.287 1278.67 206.77C1278.15 206.167 1277.25 205.865 1275.95 205.865H1271.3C1265.87 205.865 1261.17 208.624 1257.21 214.141C1254.71 217.675 1253.02 222.115 1252.16 227.459C1251.3 232.718 1250.87 236.597 1250.87 239.097H1247.25L1248.28 202.115H1322.51L1323.54 239.097H1319.92C1319.92 236.597 1319.49 232.718 1318.63 227.459C1317.76 222.115 1316.08 217.675 1313.58 214.141C1309.62 208.624 1304.92 205.865 1299.49 205.865H1294.83C1293.54 205.865 1292.64 206.167 1292.12 206.77C1291.6 207.287 1291.34 208.149 1291.34 209.356V286.553C1291.34 288.881 1292.51 290.045 1294.83 290.045H1307.25V294.182H1263.54V290.045Z" fill="#FDFDFD"/>
<path d="M1069.36 466.828C1069.36 466.235 1069.29 465.713 1069.14 465.261C1068.99 464.801 1068.8 464.415 1068.55 464.104C1068.3 463.792 1068.01 463.554 1067.68 463.39C1067.35 463.227 1067.01 463.145 1066.65 463.145C1066.08 463.145 1065.58 463.27 1065.18 463.519C1064.77 463.768 1064.44 464.111 1064.19 464.548C1063.93 464.977 1063.74 465.479 1063.62 466.056C1063.51 466.633 1063.45 467.249 1063.45 467.904C1063.45 468.254 1063.47 468.621 1063.51 469.003C1063.55 469.385 1063.62 469.759 1063.72 470.125C1063.81 470.491 1063.94 470.838 1064.09 471.166C1064.25 471.493 1064.44 471.782 1064.68 472.031C1064.91 472.28 1065.18 472.479 1065.49 472.627C1065.81 472.768 1066.18 472.838 1066.61 472.838C1067.5 472.838 1068.18 472.522 1068.65 471.891C1069.13 471.251 1069.36 470.347 1069.36 469.178V466.828ZM1069.36 472.674H1069.32C1069.09 473.072 1068.85 473.395 1068.6 473.645C1068.36 473.886 1068.11 474.073 1067.83 474.206C1067.57 474.346 1067.29 474.44 1066.99 474.486C1066.7 474.541 1066.41 474.568 1066.1 474.568C1065.49 474.568 1064.9 474.424 1064.33 474.136C1063.75 473.847 1063.23 473.422 1062.78 472.861C1062.34 472.292 1061.98 471.587 1061.71 470.745C1061.43 469.903 1061.3 468.933 1061.3 467.833C1061.3 467.296 1061.34 466.762 1061.41 466.232C1061.49 465.694 1061.61 465.183 1061.78 464.7C1061.94 464.217 1062.15 463.764 1062.4 463.344C1062.65 462.923 1062.96 462.56 1063.31 462.256C1063.67 461.952 1064.08 461.714 1064.54 461.543C1065 461.364 1065.51 461.274 1066.08 461.274C1066.51 461.274 1066.89 461.336 1067.24 461.461C1067.58 461.578 1067.88 461.73 1068.14 461.917C1068.4 462.104 1068.63 462.307 1068.82 462.525C1069.01 462.743 1069.18 462.95 1069.32 463.145H1069.36V456.995H1071.52V463.145H1071.56C1071.7 462.95 1071.87 462.743 1072.05 462.525C1072.25 462.307 1072.48 462.104 1072.73 461.917C1073 461.73 1073.3 461.578 1073.63 461.461C1073.98 461.336 1074.37 461.274 1074.8 461.274C1075.37 461.274 1075.89 461.364 1076.35 461.543C1076.81 461.714 1077.21 461.952 1077.56 462.256C1077.92 462.56 1078.22 462.923 1078.47 463.344C1078.73 463.764 1078.94 464.217 1079.1 464.7C1079.27 465.183 1079.39 465.694 1079.47 466.232C1079.55 466.762 1079.58 467.296 1079.58 467.833C1079.58 468.933 1079.45 469.903 1079.17 470.745C1078.9 471.587 1078.54 472.292 1078.09 472.861C1077.64 473.422 1077.13 473.847 1076.56 474.136C1075.98 474.424 1075.39 474.568 1074.78 474.568C1074.47 474.568 1074.17 474.541 1073.88 474.486C1073.59 474.44 1073.31 474.346 1073.04 474.206C1072.77 474.073 1072.51 473.886 1072.26 473.645C1072.02 473.395 1071.78 473.072 1071.56 472.674H1071.52V479.117H1069.36V472.674ZM1074.23 472.838C1074.66 472.838 1075.04 472.768 1075.36 472.627C1075.69 472.479 1075.97 472.28 1076.2 472.031C1076.45 471.782 1076.65 471.493 1076.8 471.166C1076.96 470.838 1077.08 470.491 1077.18 470.125C1077.27 469.759 1077.34 469.385 1077.37 469.003C1077.41 468.621 1077.43 468.254 1077.43 467.904C1077.43 467.249 1077.37 466.633 1077.25 466.056C1077.13 465.479 1076.94 464.977 1076.68 464.548C1076.43 464.111 1076.1 463.768 1075.69 463.519C1075.29 463.27 1074.8 463.145 1074.23 463.145C1073.87 463.145 1073.53 463.227 1073.2 463.39C1072.87 463.554 1072.58 463.792 1072.33 464.104C1072.09 464.415 1071.89 464.801 1071.74 465.261C1071.59 465.713 1071.52 466.235 1071.52 466.828V469.178C1071.52 470.347 1071.75 471.251 1072.22 471.891C1072.69 472.522 1073.36 472.838 1074.23 472.838ZM1081.98 461.66H1084.13V467.717L1090.46 461.66H1093.28L1087.39 467.19L1093.37 474.182H1090.6L1085.71 468.5L1084.13 469.821V474.182H1081.98V461.66Z" fill="#FDFDFD"/>
<path d="M1191.99 465.588C1191.99 464.793 1191.87 464.084 1191.63 463.46C1191.38 462.829 1191.01 462.295 1190.51 461.859C1190.02 461.422 1189.4 461.091 1188.63 460.865C1187.87 460.631 1186.97 460.514 1185.93 460.514V470.651C1186.97 470.651 1187.87 470.538 1188.63 470.312C1189.4 470.078 1190.02 469.747 1190.51 469.318C1191.01 468.882 1191.38 468.352 1191.63 467.728C1191.87 467.097 1191.99 466.384 1191.99 465.588ZM1183.63 472.616C1182.33 472.616 1181.17 472.467 1180.14 472.171C1179.11 471.867 1178.24 471.419 1177.52 470.827C1176.81 470.234 1176.26 469.502 1175.88 468.629C1175.49 467.748 1175.3 466.734 1175.3 465.588C1175.3 464.443 1175.49 463.433 1175.88 462.56C1176.26 461.679 1176.81 460.943 1177.52 460.35C1178.24 459.758 1179.11 459.314 1180.14 459.017C1181.17 458.713 1182.33 458.561 1183.63 458.561V456.644H1185.93V458.561C1187.23 458.561 1188.39 458.713 1189.42 459.017C1190.44 459.314 1191.32 459.758 1192.03 460.35C1192.75 460.943 1193.3 461.679 1193.68 462.56C1194.07 463.433 1194.27 464.443 1194.27 465.588C1194.27 466.734 1194.07 467.748 1193.68 468.629C1193.3 469.502 1192.75 470.234 1192.03 470.827C1191.32 471.419 1190.44 471.867 1189.42 472.171C1188.39 472.467 1187.23 472.616 1185.93 472.616V474.533H1183.63V472.616ZM1177.57 465.588C1177.57 466.384 1177.69 467.097 1177.93 467.728C1178.18 468.352 1178.54 468.882 1179.03 469.318C1179.53 469.747 1180.16 470.078 1180.92 470.312C1181.68 470.538 1182.58 470.651 1183.63 470.651V460.514C1182.58 460.514 1181.68 460.631 1180.92 460.865C1180.16 461.091 1179.53 461.422 1179.03 461.859C1178.54 462.295 1178.18 462.829 1177.93 463.46C1177.69 464.084 1177.57 464.793 1177.57 465.588ZM1196.81 456.995H1199.1V465.366L1207.48 456.995H1210.68L1203.53 463.928L1210.88 474.182H1207.94L1201.88 465.518L1199.1 468.196V474.182H1196.81V456.995Z" fill="#FDFDFD"/>
<line x1="1064" y1="407.428" x2="1089" y2="407.428" stroke="#AE9090" stroke-width="3.50951"/>
<line x1="1064" y1="426.428" x2="1089" y2="426.428" stroke="#AE9090" stroke-width="3.50951"/>
<line x1="1061" y1="416.428" x2="1094" y2="416.428" stroke="#AE9090" stroke-width="3.50951"/>
<line x1="948" y1="407.428" x2="973" y2="407.428" stroke="#AE9090" stroke-width="3.50951"/>
<line x1="948" y1="426.428" x2="973" y2="426.428" stroke="#AE9090" stroke-width="3.50951"/>
<line x1="948" y1="416.428" x2="981" y2="416.428" stroke="#AE9090" stroke-width="3.50951"/>
<line x1="1186" y1="407.428" x2="1211" y2="407.428" stroke="#AE9090" stroke-width="3.50951"/>
<line x1="1186" y1="426.428" x2="1211" y2="426.428" stroke="#AE9090" stroke-width="3.50951"/>
<line x1="1178" y1="416.428" x2="1211" y2="416.428" stroke="#AE9090" stroke-width="3.50951"/>
<path d="M966.717 468.588C966.717 467.793 966.596 467.084 966.354 466.46C966.113 465.829 965.742 465.295 965.243 464.859C964.752 464.422 964.125 464.091 963.361 463.865C962.597 463.631 961.697 463.514 960.66 463.514V473.651C961.697 473.651 962.597 473.538 963.361 473.312C964.125 473.078 964.752 472.747 965.243 472.318C965.742 471.882 966.113 471.352 966.354 470.728C966.596 470.097 966.717 469.384 966.717 468.588ZM958.357 475.616C957.063 475.616 955.901 475.467 954.872 475.171C953.843 474.867 952.97 474.419 952.253 473.827C951.536 473.234 950.986 472.502 950.605 471.629C950.223 470.748 950.032 469.734 950.032 468.588C950.032 467.443 950.223 466.433 950.605 465.56C950.986 464.679 951.536 463.943 952.253 463.35C952.97 462.758 953.843 462.314 954.872 462.017C955.901 461.713 957.063 461.561 958.357 461.561V459.644H960.66V461.561C961.954 461.561 963.115 461.713 964.144 462.017C965.173 462.314 966.046 462.758 966.763 463.35C967.481 463.943 968.03 464.679 968.412 465.56C968.802 466.433 968.997 467.443 968.997 468.588C968.997 469.734 968.802 470.748 968.412 471.629C968.03 472.502 967.481 473.234 966.763 473.827C966.046 474.419 965.173 474.867 964.144 475.171C963.115 475.467 961.954 475.616 960.66 475.616V477.533H958.357V475.616ZM952.3 468.588C952.3 469.384 952.421 470.097 952.662 470.728C952.904 471.352 953.27 471.882 953.761 472.318C954.26 472.747 954.888 473.078 955.644 473.312C956.408 473.538 957.312 473.651 958.357 473.651V463.514C957.312 463.514 956.408 463.631 955.644 463.865C954.888 464.091 954.26 464.422 953.761 464.859C953.27 465.295 952.904 465.829 952.662 466.46C952.421 467.084 952.3 467.793 952.3 468.588ZM971.534 459.995H973.826V468.366L982.209 459.995H985.413L978.257 466.928L985.611 477.182H982.665L976.608 468.518L973.826 471.196V477.182H971.534V459.995Z" fill="#FDFDFD"/>
<path d="M74.9987 503.734C72.1539 503.734 69.7402 503.26 67.7575 502.312C65.8609 501.363 64.3523 499.812 63.2317 497.657C60.9041 493.174 59.6541 485.545 59.4817 474.769C59.3955 468.993 58.3611 464.209 56.3783 460.416C54.3956 456.537 51.206 454.597 46.8095 454.597H32.715V494.553C32.715 495.76 32.9736 496.665 33.4908 497.269C34.008 497.786 34.9132 498.045 36.2063 498.045H47.7147V502.182H8.0171V498.045H17.3273C19.6548 498.045 20.8186 496.881 20.8186 494.553V417.744C20.8186 416.537 20.5169 415.675 19.9135 415.158C19.3962 414.555 18.5342 414.253 17.3273 414.253H8.0171V410.115H50.4302C58.7921 410.115 65.6454 411.71 70.9902 414.899C76.3349 418.089 79.0073 423.391 79.0073 430.804C79.0073 437.183 76.5935 442.313 71.766 446.192C67.0247 450.071 61.292 452.356 54.568 453.045V453.563C59.4817 454.511 63.4903 456.795 66.5937 460.416C69.7833 463.95 71.8953 470.028 72.9298 478.648C73.5332 483.562 74.0504 487.14 74.4815 489.381C74.9987 491.622 75.6021 493.217 76.2918 494.165C77.0676 495.027 78.1883 495.458 79.6538 495.458C83.3606 495.458 85.214 490.803 85.214 481.493H88.4467C88.4467 487.096 87.6278 492.226 85.9899 496.881C84.352 501.45 80.6883 503.734 74.9987 503.734ZM45.2578 450.459C52.4991 450.459 57.6283 448.735 60.6455 445.287C63.7489 441.752 65.3006 436.925 65.3006 430.804C65.3006 425.546 63.8782 421.494 61.0334 418.649C58.2749 415.718 54.4818 414.253 49.6543 414.253H36.2063C34.9994 414.253 34.0942 414.555 33.4908 415.158C32.9736 415.675 32.715 416.537 32.715 417.744V450.459H45.2578ZM94.7596 498.045H104.07C106.397 498.045 107.561 496.881 107.561 494.553V417.744C107.561 416.537 107.259 415.675 106.656 415.158C106.139 414.555 105.277 414.253 104.07 414.253H94.7596V410.115H166.914L167.431 442.442H164.198C164.198 440.718 163.81 437.787 163.034 433.649C162.345 429.511 160.922 425.804 158.767 422.529C155.147 417.011 150.06 414.253 143.509 414.253H122.949C121.742 414.253 120.837 414.555 120.233 415.158C119.716 415.675 119.457 416.537 119.457 417.744V452.528H129.414C133.811 452.528 136.957 450.287 138.854 445.804C140.836 441.321 141.828 436.537 141.828 431.451H145.19V477.743H141.828C141.828 472.657 140.836 467.873 138.854 463.39C136.957 458.907 133.811 456.666 129.414 456.666H119.457V494.553C119.457 496.881 120.621 498.045 122.949 498.045H143.638C146.138 498.045 148.681 497.484 151.267 496.364C153.853 495.243 156.052 493.519 157.862 491.191C159.586 488.777 161.008 485.76 162.129 482.14C163.25 478.519 164.026 475.243 164.457 472.312C164.888 469.295 165.146 467.355 165.233 466.493H168.465L166.914 502.182H94.7596V498.045ZM215.46 504.51C208.046 504.51 201.581 502.355 196.063 498.045C190.632 493.648 186.452 487.743 183.521 480.329C180.676 472.829 179.253 464.511 179.253 455.373C179.253 446.666 180.719 438.692 183.65 431.451C186.581 424.21 190.762 418.477 196.193 414.253C201.624 409.943 207.96 407.787 215.201 407.787C218.994 407.787 222.572 408.65 225.934 410.374C229.296 412.098 232.054 413.951 234.209 415.934C236.278 417.83 237.658 418.779 238.347 418.779C239.037 418.779 239.511 418.563 239.77 418.132C240.114 417.701 240.459 417.011 240.804 416.063L243.261 408.822H246.494L247.011 448.907H243.39C241.494 440.718 239.037 433.865 236.02 428.347C233.002 422.744 229.684 418.606 226.063 415.934C222.528 413.261 218.994 411.925 215.46 411.925C209.511 411.925 204.899 413.736 201.624 417.356C198.348 420.891 196.063 425.847 194.77 432.227C193.563 438.606 192.96 446.58 192.96 456.149C192.96 465.717 193.563 473.691 194.77 480.071C196.063 486.45 198.348 491.45 201.624 495.07C204.899 498.605 209.511 500.372 215.46 500.372C218.649 500.372 221.71 499.251 224.641 497.01C227.571 494.683 229.942 491.752 231.752 488.217C233.649 484.683 234.597 481.191 234.597 477.743V466.105C234.597 464.899 234.296 464.036 233.692 463.519C233.175 462.916 232.313 462.614 231.106 462.614H216.753V458.476H259.424V462.614H249.985C248.778 462.614 247.873 462.916 247.269 463.519C246.752 464.036 246.494 464.899 246.494 466.105V503.863H242.356V492.096C242.356 490.631 242.183 489.553 241.838 488.864C241.494 488.088 240.933 487.7 240.157 487.7C239.209 487.7 238.39 488.045 237.701 488.734C237.011 489.424 236.321 490.372 235.632 491.579C233.649 494.769 230.847 497.743 227.227 500.501C223.606 503.174 219.684 504.51 215.46 504.51ZM310.983 504.51C303.224 504.51 296.802 503.001 291.716 499.984C286.63 496.881 282.88 492.872 280.466 487.958C278.139 482.959 276.975 477.485 276.975 471.536V417.744C276.975 416.537 276.673 415.675 276.07 415.158C275.553 414.555 274.69 414.253 273.484 414.253H264.173V410.115H301.802V414.253H292.363C291.156 414.253 290.251 414.555 289.647 415.158C289.13 415.675 288.871 416.537 288.871 417.744V475.028C288.871 483.045 290.811 489.295 294.69 493.777C298.569 498.174 304 500.372 310.983 500.372C316.414 500.372 321.069 499.294 324.948 497.139C328.827 494.898 331.758 491.967 333.741 488.346C335.724 484.726 336.715 480.803 336.715 476.579V424.727C336.715 421.537 335.939 418.994 334.388 417.098C332.836 415.201 330.853 414.253 328.44 414.253H323.914V410.115H354.689V414.253H350.163C347.75 414.253 345.767 415.201 344.215 417.098C342.663 418.994 341.888 421.537 341.888 424.727V475.286C341.888 480.717 340.638 485.674 338.138 490.157C335.724 494.553 332.146 498.045 327.405 500.631C322.75 503.217 317.276 504.51 310.983 504.51ZM360.543 498.045H369.854C372.181 498.045 373.345 496.881 373.345 494.553V417.744C373.345 416.537 373.043 415.675 372.44 415.158C371.922 414.555 371.06 414.253 369.854 414.253H360.543V410.115H400.112V414.253H388.732C387.526 414.253 386.62 414.555 386.017 415.158C385.5 415.675 385.241 416.537 385.241 417.744V494.553C385.241 496.881 386.405 498.045 388.732 498.045H401.793C406.361 498.045 410.456 497.01 414.077 494.941C417.698 492.872 420.413 489.855 422.223 485.89C423.603 482.959 424.723 479.855 425.585 476.579C426.534 473.217 427.223 470.373 427.654 468.045C428.085 465.717 428.344 464.252 428.43 463.649H431.663L430.499 502.182H360.543V498.045ZM439.282 498.045H444.066C449.152 498.045 452.859 494.898 455.187 488.605L482.988 410.115H486.221L514.281 492.355C515.143 494.51 516.177 496.019 517.384 496.881C518.591 497.657 520.143 498.045 522.039 498.045H529.28V502.182H489.195V498.045H497.729C499.022 498.045 500.1 497.743 500.962 497.139C501.824 496.45 502.255 495.674 502.255 494.812C502.255 493.691 502.082 492.743 501.738 491.967L495.66 474.769H465.402L462.299 483.433C461.092 486.881 460.488 489.381 460.488 490.933C460.488 492.829 460.963 494.51 461.911 495.976C462.859 497.355 464.497 498.045 466.824 498.045H474.712V502.182H439.282V498.045ZM466.824 470.631H494.238L480.79 431.192L466.824 470.631ZM601.263 503.734C598.418 503.734 596.004 503.26 594.021 502.312C592.125 501.363 590.616 499.812 589.495 497.657C587.168 493.174 585.918 485.545 585.746 474.769C585.659 468.993 584.625 464.209 582.642 460.416C580.659 456.537 577.47 454.597 573.073 454.597H558.979V494.553C558.979 495.76 559.237 496.665 559.755 497.269C560.272 497.786 561.177 498.045 562.47 498.045H573.978V502.182H534.281V498.045H543.591C545.919 498.045 547.082 496.881 547.082 494.553V417.744C547.082 416.537 546.781 415.675 546.177 415.158C545.66 414.555 544.798 414.253 543.591 414.253H534.281V410.115H576.694C585.056 410.115 591.909 411.71 597.254 414.899C602.599 418.089 605.271 423.391 605.271 430.804C605.271 437.183 602.857 442.313 598.03 446.192C593.288 450.071 587.556 452.356 580.832 453.045V453.563C585.746 454.511 589.754 456.795 592.857 460.416C596.047 463.95 598.159 470.028 599.194 478.648C599.797 483.562 600.314 487.14 600.745 489.381C601.262 491.622 601.866 493.217 602.556 494.165C603.331 495.027 604.452 495.458 605.918 495.458C609.624 495.458 611.478 490.803 611.478 481.493H614.711C614.711 487.096 613.892 492.226 612.254 496.881C610.616 501.45 606.952 503.734 601.263 503.734ZM571.522 450.459C578.763 450.459 583.892 448.735 586.909 445.287C590.013 441.752 591.564 436.925 591.564 430.804C591.564 425.546 590.142 421.494 587.297 418.649C584.539 415.718 580.746 414.253 575.918 414.253H562.47C561.263 414.253 560.358 414.555 559.755 415.158C559.237 415.675 558.979 416.537 558.979 417.744V450.459H571.522Z" fill="#FDFDFD"/>
<path d="M733.199 427.244H737.324V442.314L752.414 427.244H758.181L745.301 439.725L758.539 458.182H753.235L742.333 442.587L737.324 447.407V458.182H733.199V427.244ZM761.948 427.244H784.531V430.864H766.073V440.419H783.1V444.039H766.073V454.562H784.825V458.182H761.948V427.244ZM798.947 419.268C799.144 420.404 799.593 421.211 800.294 421.688C801.01 422.165 801.929 422.404 803.052 422.404C804.188 422.404 805.107 422.144 805.809 421.625C806.51 421.106 806.959 420.32 807.156 419.268H810.965C810.965 420.18 810.768 421.001 810.376 421.73C809.997 422.46 809.457 423.084 808.755 423.603C808.068 424.123 807.233 424.522 806.251 424.803C805.282 425.07 804.216 425.203 803.052 425.203C801.817 425.203 800.708 425.056 799.726 424.761C798.744 424.452 797.909 424.038 797.222 423.519C796.548 422.986 796.029 422.362 795.664 421.646C795.314 420.916 795.145 420.124 795.159 419.268H798.947ZM790.697 427.244H794.822V452.268H794.907L810.649 427.244H815.427V458.182H811.281V433.011H811.196L795.475 458.182H790.697V427.244ZM824.456 442.671C824.456 444.608 824.701 446.361 825.192 447.933C825.683 449.49 826.371 450.816 827.255 451.911C828.153 453.005 829.226 453.854 830.475 454.457C831.738 455.046 833.127 455.341 834.642 455.341C835.961 455.341 837.139 455.103 838.178 454.626C839.23 454.149 840.135 453.524 840.893 452.752C841.65 451.967 842.261 451.083 842.724 450.101C843.187 449.118 843.495 448.122 843.65 447.112H847.648C847.564 448.01 847.368 448.929 847.059 449.869C846.765 450.795 846.358 451.7 845.839 452.584C845.333 453.454 844.723 454.282 844.007 455.068C843.292 455.839 842.464 456.513 841.524 457.088C840.598 457.663 839.56 458.119 838.409 458.456C837.259 458.793 836.003 458.961 834.642 458.961C833.702 458.961 832.692 458.863 831.611 458.666C830.545 458.47 829.479 458.14 828.412 457.677C827.36 457.214 826.343 456.597 825.361 455.825C824.392 455.039 823.537 454.057 822.793 452.879C822.049 451.7 821.453 450.311 821.004 448.712C820.555 447.098 820.33 445.225 820.33 443.092C820.33 441.002 820.527 439.136 820.92 437.494C821.327 435.852 821.874 434.421 822.561 433.2C823.263 431.966 824.077 430.92 825.003 430.065C825.943 429.209 826.946 428.514 828.012 427.981C829.079 427.448 830.187 427.062 831.338 426.823C832.488 426.585 833.632 426.466 834.768 426.466C836.171 426.466 837.448 426.613 838.599 426.908C839.763 427.188 840.801 427.581 841.713 428.086C842.639 428.577 843.446 429.153 844.134 429.812C844.821 430.471 845.397 431.173 845.86 431.917C846.337 432.646 846.701 433.397 846.954 434.169C847.221 434.94 847.382 435.691 847.438 436.421H843.397C843.131 435.424 842.738 434.533 842.219 433.748C841.699 432.962 841.068 432.303 840.324 431.769C839.595 431.222 838.767 430.808 837.841 430.528C836.929 430.233 835.947 430.086 834.894 430.086C833.309 430.086 831.871 430.38 830.58 430.97C829.303 431.559 828.209 432.401 827.297 433.495C826.385 434.59 825.683 435.915 825.192 437.473C824.701 439.016 824.456 440.749 824.456 442.671Z" fill="#FDFDFD"/>
<path d="M799.199 527.244H820.372V530.864H803.324V539.998H811.953C813.763 539.998 815.334 540.209 816.667 540.63C818 541.051 819.109 541.654 819.993 542.44C820.877 543.226 821.529 544.18 821.95 545.302C822.385 546.425 822.602 547.687 822.602 549.09C822.602 550.465 822.385 551.714 821.95 552.837C821.515 553.945 820.877 554.899 820.035 555.699C819.207 556.485 818.183 557.095 816.962 557.53C815.755 557.965 814.373 558.182 812.816 558.182H799.199V527.244ZM803.324 554.562H812.269C813.111 554.562 813.889 554.471 814.605 554.289C815.334 554.106 815.966 553.805 816.499 553.384C817.032 552.949 817.446 552.388 817.741 551.7C818.049 550.999 818.204 550.129 818.204 549.09C818.204 548.066 818.042 547.203 817.72 546.502C817.411 545.8 816.962 545.239 816.373 544.818C815.783 544.383 815.068 544.074 814.226 543.892C813.384 543.71 812.43 543.618 811.364 543.618H803.324V554.562ZM856.382 542.713C856.382 544.046 856.248 545.379 855.982 546.712C855.715 548.031 855.308 549.294 854.761 550.5C854.214 551.693 853.526 552.809 852.699 553.847C851.885 554.871 850.917 555.769 849.794 556.541C848.672 557.298 847.402 557.888 845.985 558.309C844.582 558.744 843.024 558.961 841.313 558.961C839.601 558.961 838.036 558.744 836.619 558.309C835.202 557.888 833.932 557.298 832.81 556.541C831.701 555.769 830.733 554.871 829.905 553.847C829.078 552.809 828.39 551.693 827.843 550.5C827.296 549.294 826.889 548.031 826.622 546.712C826.356 545.379 826.222 544.046 826.222 542.713C826.222 540.314 826.559 538.118 827.233 536.126C827.92 534.134 828.909 532.422 830.2 530.991C831.491 529.559 833.069 528.451 834.936 527.665C836.802 526.866 838.927 526.466 841.313 526.466C843.684 526.466 845.802 526.866 847.669 527.665C849.549 528.451 851.127 529.559 852.404 530.991C853.695 532.422 854.677 534.134 855.35 536.126C856.038 538.118 856.382 540.314 856.382 542.713ZM852.257 542.713C852.257 540.875 852.011 539.185 851.52 537.641C851.029 536.084 850.313 534.751 849.373 533.642C848.447 532.52 847.304 531.65 845.943 531.033C844.582 530.401 843.038 530.086 841.313 530.086C839.573 530.086 838.022 530.401 836.661 531.033C835.3 531.65 834.15 532.52 833.21 533.642C832.284 534.751 831.575 536.084 831.084 537.641C830.593 539.185 830.347 540.875 830.347 542.713C830.347 544.594 830.572 546.312 831.021 547.87C831.47 549.413 832.15 550.739 833.062 551.847C833.974 552.956 835.111 553.819 836.472 554.436C837.847 555.039 839.46 555.341 841.313 555.341C843.151 555.341 844.757 555.039 846.132 554.436C847.507 553.819 848.644 552.956 849.542 551.847C850.454 550.739 851.134 549.413 851.583 547.87C852.032 546.312 852.257 544.594 852.257 542.713ZM861.285 527.244H865.411V542.314L880.501 527.244H886.267L873.387 539.725L886.625 558.182H881.321L870.42 542.587L865.411 547.407V558.182H861.285V527.244ZM892.644 542.671C892.644 544.608 892.89 546.361 893.381 547.933C893.872 549.49 894.56 550.816 895.443 551.911C896.341 553.005 897.415 553.854 898.664 554.457C899.926 555.046 901.315 555.341 902.831 555.341C904.15 555.341 905.328 555.103 906.366 554.626C907.419 554.149 908.324 553.524 909.081 552.752C909.839 551.967 910.449 551.083 910.912 550.101C911.375 549.118 911.684 548.122 911.839 547.112H915.837C915.753 548.01 915.557 548.929 915.248 549.869C914.953 550.795 914.546 551.7 914.027 552.584C913.522 553.454 912.912 554.282 912.196 555.068C911.481 555.839 910.653 556.513 909.713 557.088C908.787 557.663 907.749 558.119 906.598 558.456C905.447 558.793 904.192 558.961 902.831 558.961C901.891 558.961 900.88 558.863 899.8 558.666C898.734 558.47 897.667 558.14 896.601 557.677C895.549 557.214 894.531 556.597 893.549 555.825C892.581 555.039 891.725 554.057 890.982 552.879C890.238 551.7 889.642 550.311 889.193 548.712C888.744 547.098 888.519 545.225 888.519 543.092C888.519 541.002 888.716 539.136 889.109 537.494C889.515 535.852 890.063 534.421 890.75 533.2C891.452 531.966 892.266 530.92 893.192 530.065C894.132 529.209 895.135 528.514 896.201 527.981C897.267 527.448 898.376 527.062 899.526 526.823C900.677 526.585 901.821 526.466 902.957 526.466C904.36 526.466 905.637 526.613 906.787 526.908C907.952 527.188 908.99 527.581 909.902 528.086C910.828 528.577 911.635 529.153 912.323 529.812C913.01 530.471 913.585 531.173 914.048 531.917C914.525 532.646 914.89 533.397 915.143 534.169C915.409 534.94 915.571 535.691 915.627 536.421H911.586C911.319 535.424 910.927 534.533 910.407 533.748C909.888 532.962 909.257 532.303 908.513 531.769C907.784 531.222 906.956 530.808 906.03 530.528C905.118 530.233 904.136 530.086 903.083 530.086C901.498 530.086 900.06 530.38 898.769 530.97C897.492 531.559 896.398 532.401 895.486 533.495C894.574 534.59 893.872 535.915 893.381 537.473C892.89 539.016 892.644 540.749 892.644 542.671Z" fill="#FDFDFD"/>
<path d="M1164.14 28.7926H1168.28C1168.71 28.7926 1169.01 28.7064 1169.19 28.534C1169.39 28.3616 1169.49 28.0742 1169.49 27.6719V6.50849H1164.14V4.95679H1166.51C1168.07 4.95679 1169.32 4.54013 1170.26 3.70681C1171.24 2.8735 1171.84 1.86777 1172.07 0.689625H1173.45V27.6719C1173.45 28.0742 1173.54 28.3616 1173.71 28.534C1173.91 28.7064 1174.23 28.7926 1174.66 28.7926H1178.8V30.1719H1164.14V28.7926ZM1187.55 30.1719C1187.55 28.5914 1187.85 27.0254 1188.46 25.4737C1189.06 23.922 1190.41 22.2553 1192.51 20.4738L1196.65 16.9393C1198 15.8187 1199.02 14.5831 1199.71 13.2325C1200.42 11.882 1200.78 10.3303 1200.78 8.57742C1200.78 6.33608 1200.24 4.61197 1199.15 3.40509C1198.05 2.16948 1196.5 1.55168 1194.49 1.55168C1193.57 1.55168 1192.68 1.76719 1191.82 2.19822C1190.98 2.62925 1190.3 3.20395 1189.75 3.92233C1189.23 4.61197 1188.97 5.33035 1188.97 6.07746C1188.97 6.76711 1189.13 7.28434 1189.45 7.62916C1189.76 7.94525 1190.19 8.14639 1190.74 8.2326C1191.66 8.37627 1192.34 8.69236 1192.77 9.18086C1193.23 9.64062 1193.46 10.201 1193.46 10.8619C1193.46 11.4078 1193.26 11.8676 1192.85 12.2412C1192.48 12.6147 1191.95 12.8015 1191.26 12.8015C1190.08 12.8015 1189.1 12.3417 1188.33 11.4222C1187.55 10.4739 1187.16 9.23833 1187.16 7.71537C1187.16 6.24987 1187.52 4.92806 1188.24 3.74992C1188.99 2.57178 1190.01 1.65225 1191.3 0.991343C1192.62 0.330435 1194.09 -1.92214e-05 1195.7 -1.92214e-05C1197.54 -1.92214e-05 1199.19 0.344802 1200.65 1.03445C1202.12 1.72409 1203.27 2.71545 1204.1 4.00853C1204.94 5.30161 1205.35 6.82458 1205.35 8.57742C1205.35 10.3303 1204.73 11.9107 1203.5 13.3187C1202.26 14.7267 1200.64 16.1491 1198.63 17.5859L1194.4 20.8617C1193.2 21.695 1192.26 22.4996 1191.6 23.2754C1190.97 24.0226 1190.65 24.7984 1190.65 25.603C1190.65 26.2926 1191.1 26.6375 1191.99 26.6375H1200.14C1201.29 26.6375 1202.09 26.3932 1202.55 25.9047C1203.04 25.3875 1203.37 24.6691 1203.54 23.7496L1204.02 21.2065H1204.96L1204.36 30.1719H1187.55ZM1220.01 30.8615C1217.71 30.8615 1215.82 30.373 1214.32 29.396C1212.83 28.3903 1212.08 26.9392 1212.08 25.0427C1212.08 24.0082 1212.38 23.1318 1212.99 22.4134C1213.59 21.6663 1214.38 21.2927 1215.36 21.2927C1216.19 21.2927 1216.84 21.5226 1217.3 21.9824C1217.78 22.4134 1218.03 23.0168 1218.03 23.7927C1218.03 24.3961 1217.84 24.9277 1217.47 25.3875C1217.12 25.8185 1216.66 26.034 1216.09 26.034C1215.08 26.034 1214.58 26.2783 1214.58 26.7668C1214.58 28.5771 1216.39 29.4822 1220.01 29.4822C1222.11 29.4822 1223.62 28.7639 1224.54 27.3271C1225.48 25.8903 1225.96 24.1662 1225.96 22.1548C1225.96 19.856 1225.46 18.1319 1224.45 16.9824C1223.47 15.833 1222.27 15.2583 1220.83 15.2583C1220.4 15.2583 1220.04 15.2871 1219.75 15.3445C1219.49 15.402 1219.16 15.5026 1218.76 15.6463C1217.81 15.9624 1217.08 16.1204 1216.56 16.1204C1216.13 16.1204 1215.74 16.0198 1215.4 15.8187C1215.08 15.6175 1214.92 15.3158 1214.92 14.9135C1214.92 14.5112 1215.08 14.2095 1215.4 14.0084C1215.71 13.8072 1216.1 13.7066 1216.56 13.7066C1217.05 13.7066 1217.73 13.7785 1218.59 13.9222C1219.16 14.0084 1219.95 14.0515 1220.96 14.0515C1222.34 14.0515 1223.39 13.4337 1224.11 12.198C1224.85 10.9337 1225.23 9.49694 1225.23 7.88778C1225.23 6.01999 1224.8 4.4683 1223.93 3.23269C1223.07 1.99707 1221.82 1.37927 1220.18 1.37927C1218.49 1.37927 1217.28 1.65225 1216.56 2.19822C1215.87 2.74419 1215.53 3.36199 1215.53 4.05164C1215.53 4.31025 1215.63 4.58324 1215.83 4.87059C1216.03 5.1292 1216.3 5.34472 1216.65 5.51713C1217.68 5.94815 1218.2 6.65217 1218.2 7.62916C1218.2 8.2326 1218 8.73546 1217.6 9.13775C1217.19 9.51131 1216.62 9.69809 1215.87 9.69809C1215.04 9.69809 1214.31 9.35327 1213.67 8.66363C1213.07 7.94525 1212.77 7.15503 1212.77 6.29298C1212.77 4.28152 1213.53 2.72982 1215.05 1.63788C1216.61 0.545948 1218.47 -1.92214e-05 1220.66 -1.92214e-05C1223.27 -1.92214e-05 1225.37 0.703992 1226.95 2.11201C1228.56 3.4913 1229.36 5.31598 1229.36 7.58606C1229.36 8.79293 1229.08 9.8705 1228.5 10.8188C1227.96 11.7383 1227.25 12.4998 1226.39 13.1032C1225.56 13.6779 1224.71 14.0658 1223.85 14.267V14.6118C1224.8 14.7842 1225.79 15.2009 1226.82 15.8618C1227.86 16.494 1228.73 17.356 1229.45 18.4479C1230.17 19.5399 1230.53 20.7899 1230.53 22.1979C1230.53 23.9507 1230.05 25.488 1229.11 26.8099C1228.16 28.1029 1226.88 29.1087 1225.27 29.8271C1223.69 30.5167 1221.94 30.8615 1220.01 30.8615ZM1242 28.7926H1246.18C1246.58 28.7926 1246.87 28.7064 1247.04 28.534C1247.24 28.3616 1247.34 28.0742 1247.34 27.6719V21.8962H1236.39V20.3445L1249.76 0.646521H1251.31V20.3445H1256.52V21.8962H1251.31V27.6719C1251.31 28.0742 1251.39 28.3616 1251.57 28.534C1251.77 28.7064 1252.07 28.7926 1252.47 28.7926H1256.65V30.1719H1242V28.7926ZM1238.38 20.3445H1247.34V7.15503L1238.38 20.3445ZM1270.53 30.8615C1268.92 30.8615 1267.53 30.5885 1266.35 30.0426C1265.17 29.4679 1264.27 28.7064 1263.64 27.7581C1263.01 26.7811 1262.69 25.7036 1262.69 24.5254C1262.69 23.1749 1263.03 22.1404 1263.72 21.422C1264.41 20.7036 1265.22 20.3445 1266.14 20.3445C1266.91 20.3445 1267.52 20.5887 1267.95 21.0772C1268.41 21.537 1268.64 22.126 1268.64 22.8444C1268.64 23.3329 1268.49 23.7927 1268.21 24.2237C1267.92 24.626 1267.55 24.9277 1267.09 25.1289C1266.68 25.33 1266.37 25.5312 1266.14 25.7323C1265.91 25.9334 1265.79 26.2064 1265.79 26.5512C1265.79 27.4708 1266.15 28.1892 1266.87 28.7064C1267.59 29.2236 1268.81 29.4822 1270.53 29.4822C1272.66 29.4822 1274.2 28.5627 1275.15 26.7237C1276.09 24.8846 1276.57 22.5571 1276.57 19.741C1276.57 17.0974 1276.11 15.0716 1275.19 13.6635C1274.27 12.2555 1272.78 11.5515 1270.71 11.5515C1269.87 11.5515 1269.15 11.6808 1268.55 11.9394C1267.95 12.1693 1267.33 12.6003 1266.7 13.2325C1266.41 13.5199 1266.17 13.9078 1265.97 14.3963C1265.79 14.856 1265.71 15.2583 1265.71 15.6032C1265.71 15.9192 1265.62 16.1779 1265.45 16.379C1265.3 16.5802 1265.1 16.6807 1264.84 16.6807C1264.38 16.6807 1264.15 16.3215 1264.15 15.6032V0.732728L1265.1 -1.92214e-05C1265.71 0.517213 1266.58 0.948241 1267.73 1.29306C1268.91 1.63788 1270 1.81029 1271.01 1.81029C1272.39 1.81029 1273.64 1.68099 1274.76 1.42237C1275.88 1.16375 1277.03 0.689624 1278.21 -1.92214e-05L1278.72 0.603419C1277.69 1.95397 1276.41 3.04591 1274.89 3.87923C1273.39 4.68381 1271.8 5.0861 1270.1 5.0861C1269.04 5.0861 1268.19 5.02863 1267.56 4.91369C1266.93 4.77001 1266.31 4.54013 1265.71 4.22405V12.4567L1265.97 12.5429C1266.65 11.7383 1267.49 11.1205 1268.46 10.6895C1269.47 10.2297 1270.51 9.99981 1271.57 9.99981C1274.59 9.99981 1276.93 10.8906 1278.59 12.6722C1280.29 14.4538 1281.14 16.81 1281.14 19.741C1281.14 21.8387 1280.65 23.7352 1279.67 25.4306C1278.72 27.126 1277.44 28.4621 1275.84 29.4391C1274.23 30.3874 1272.46 30.8615 1270.53 30.8615ZM1296.83 30.8615C1294.96 30.8615 1293.31 30.2868 1291.87 29.1374C1290.47 27.988 1289.37 26.3501 1288.6 24.2237C1287.82 22.0686 1287.43 19.5399 1287.43 16.6376C1287.43 14.2813 1287.74 11.9682 1288.34 9.69809C1288.94 7.42801 1289.82 5.54586 1290.97 4.05164C1293.07 1.35053 1295.52 -1.92214e-05 1298.34 -1.92214e-05C1300.38 -1.92214e-05 1302.03 0.689625 1303.3 2.06891C1303.73 2.58614 1304.03 3.16085 1304.2 3.79302C1304.4 4.42519 1304.5 4.98553 1304.5 5.47403C1304.5 6.47975 1304.14 7.29871 1303.42 7.93088C1302.94 8.36191 1302.35 8.57742 1301.66 8.57742C1301 8.57742 1300.48 8.3188 1300.11 7.80157C1299.96 7.60042 1299.86 7.41365 1299.8 7.24124C1299.78 7.06882 1299.76 6.83894 1299.76 6.55159C1299.76 6.12057 1299.95 5.68954 1300.32 5.25851C1300.58 4.97116 1300.85 4.72691 1301.14 4.52577C1301.4 4.35336 1301.57 4.18094 1301.66 4.00853C1301.77 3.80739 1301.83 3.57751 1301.83 3.31889C1301.83 2.80166 1301.53 2.35626 1300.92 1.98271C1300.35 1.58041 1299.46 1.37927 1298.25 1.37927C1297.22 1.37927 1296.23 1.68099 1295.28 2.28443C1294.36 2.88786 1293.58 3.89359 1292.95 5.30161C1292.46 6.36481 1292.09 7.701 1291.83 9.31017C1291.57 10.9193 1291.44 12.2699 1291.44 13.3618V15.3014L1291.74 15.4308C1292.26 14.3388 1293.05 13.448 1294.11 12.7584C1295.21 12.04 1296.26 11.6808 1297.26 11.6808C1299.19 11.6808 1300.81 12.1549 1302.13 13.1032C1303.25 13.9078 1304.11 14.9997 1304.72 16.379C1305.32 17.7296 1305.62 19.1807 1305.62 20.7324C1305.62 22.2841 1305.28 23.8501 1304.59 25.4306C1303.9 26.9823 1302.88 28.2754 1301.53 29.3098C1300.21 30.3443 1298.64 30.8615 1296.83 30.8615ZM1296.83 29.4822C1298.58 29.4822 1299.85 28.6489 1300.62 26.9823C1301.43 25.3156 1301.83 23.4191 1301.83 21.2927C1301.83 18.9939 1301.49 17.083 1300.8 15.5601C1300.11 14.0371 1298.96 13.2756 1297.35 13.2756C1296.34 13.2756 1295.44 13.6061 1294.63 14.267C1293.83 14.9279 1293.18 15.8761 1292.69 17.1118C1292.23 18.3186 1292 19.7123 1292 21.2927C1292 23.6777 1292.38 25.6461 1293.12 27.1978C1293.87 28.7208 1295.11 29.4822 1296.83 29.4822ZM1321.19 30.8615C1320.15 30.8615 1319.32 30.488 1318.69 29.7408C1318.08 28.9937 1317.78 27.988 1317.78 26.7237C1317.78 24.9996 1318.2 23.2323 1319.03 21.422C1319.89 19.583 1320.99 17.7152 1322.31 15.8187L1325.76 10.8619C1326.39 9.97107 1326.9 9.02281 1327.31 8.01709C1327.74 6.98262 1327.95 6.09183 1327.95 5.34472C1327.95 4.91369 1327.84 4.62634 1327.61 4.48266C1327.41 4.31025 1327.08 4.22405 1326.62 4.22405H1317.69C1316.55 4.22405 1315.73 4.48266 1315.24 4.99989C1314.78 5.48839 1314.46 6.1924 1314.29 7.11193L1313.82 9.65499H1312.87L1313.47 0.689625H1330.02C1330.02 2.18385 1329.79 3.89359 1329.33 5.81885C1328.9 7.7441 1328.15 9.49694 1327.09 11.0774L1324.63 14.7842C1323.46 16.5083 1322.87 18.3761 1322.87 20.3876C1322.87 21.6232 1322.95 22.7007 1323.13 23.6203L1323.38 25.1289C1323.61 26.2783 1323.73 27.284 1323.73 28.146C1323.73 29.9564 1322.88 30.8615 1321.19 30.8615ZM1346.1 30.8615C1344.41 30.8615 1342.83 30.5311 1341.36 29.8702C1339.93 29.2092 1338.76 28.261 1337.87 27.0254C1337.01 25.7898 1336.58 24.3386 1336.58 22.672C1336.58 20.5743 1337.17 18.9364 1338.34 17.7583C1339.52 16.5802 1340.77 15.8043 1342.09 15.4308V15.2583L1341.62 15.0428C1340.1 14.4107 1338.93 13.4768 1338.13 12.2412C1337.32 11.0055 1336.92 9.56878 1336.92 7.93088C1336.92 6.43665 1337.38 5.0861 1338.3 3.87923C1339.22 2.64361 1340.41 1.69535 1341.88 1.03445C1343.34 0.344802 1344.87 -1.92214e-05 1346.45 -1.92214e-05C1348.4 -1.92214e-05 1350.05 0.35917 1351.4 1.07755C1352.78 1.76719 1353.82 2.68672 1354.51 3.83612C1355.2 4.95679 1355.54 6.1493 1355.54 7.41365C1355.54 8.96534 1355.04 10.3159 1354.03 11.4653C1353.06 12.586 1351.91 13.448 1350.59 14.0515V14.2239L1351.58 14.6118C1354.97 15.9911 1356.66 18.1606 1356.66 21.1203C1356.66 22.9019 1356.25 24.5398 1355.41 26.034C1354.61 27.4995 1353.4 28.6776 1351.79 29.5684C1350.21 30.4305 1348.32 30.8615 1346.1 30.8615ZM1349.34 13.7497C1350.6 13.0601 1351.49 12.2124 1352.01 11.2067C1352.53 10.201 1352.78 9.02281 1352.78 7.67226C1352.78 6.49412 1352.5 5.43092 1351.92 4.48266C1351.35 3.50567 1350.57 2.74419 1349.59 2.19822C1348.65 1.65225 1347.6 1.37927 1346.45 1.37927C1344.67 1.37927 1343.16 1.88213 1341.92 2.88786C1340.72 3.89359 1340.11 5.22978 1340.11 6.89641C1340.11 8.10329 1340.4 9.06592 1340.97 9.7843C1341.58 10.5027 1342.51 11.1205 1343.78 11.6377L1349.34 13.7497ZM1346.58 29.4822C1348.16 29.4822 1349.45 29.1518 1350.46 28.4909C1351.46 27.83 1352.18 27.0397 1352.61 26.1202C1353.07 25.172 1353.3 24.2812 1353.3 23.4479C1353.3 21.8387 1352.94 20.6462 1352.22 19.8703C1351.53 19.0945 1350.51 18.4336 1349.16 17.8876L1343.34 15.7756C1342.17 16.2641 1341.25 17.0399 1340.59 18.1031C1339.93 19.1663 1339.59 20.718 1339.59 22.7582C1339.59 25.057 1340.28 26.7524 1341.66 27.8443C1343.07 28.9363 1344.71 29.4822 1346.58 29.4822ZM1369.64 30.8615C1367.6 30.8615 1365.95 30.1719 1364.68 28.7926C1364.25 28.2754 1363.94 27.7007 1363.74 27.0685C1363.56 26.4363 1363.48 25.876 1363.48 25.3875C1363.48 24.3817 1363.84 23.5628 1364.55 22.9306C1365.07 22.4996 1365.66 22.2841 1366.32 22.2841C1366.98 22.2841 1367.5 22.5427 1367.87 23.0599C1368.02 23.2611 1368.1 23.4479 1368.13 23.6203C1368.19 23.7927 1368.22 24.0226 1368.22 24.3099C1368.22 24.7409 1368.03 25.172 1367.66 25.603C1367.4 25.8903 1367.13 26.1346 1366.84 26.3357C1366.58 26.5081 1366.39 26.6949 1366.28 26.8961C1366.19 27.0685 1366.15 27.284 1366.15 27.5426C1366.15 28.0598 1366.44 28.5196 1367.01 28.9219C1367.61 29.2955 1368.52 29.4822 1369.73 29.4822C1370.76 29.4822 1371.74 29.1805 1372.66 28.5771C1373.61 27.9736 1374.4 26.9679 1375.03 25.5599C1375.52 24.4967 1375.89 23.1605 1376.15 21.5513C1376.41 19.9134 1376.54 18.5629 1376.54 17.4997V15.5601L1376.24 15.4308C1375.72 16.5227 1374.91 17.4278 1373.82 18.1462C1372.76 18.8359 1371.72 19.1807 1370.72 19.1807C1368.79 19.1807 1367.17 18.7066 1365.85 17.7583C1364.73 16.9537 1363.86 15.8761 1363.26 14.5256C1362.66 13.1463 1362.36 11.6808 1362.36 10.1291C1362.36 8.57742 1362.7 7.02572 1363.39 5.47403C1364.08 3.89359 1365.09 2.58614 1366.41 1.55168C1367.76 0.517213 1369.34 -1.92214e-05 1371.15 -1.92214e-05C1373.02 -1.92214e-05 1374.65 0.574684 1376.06 1.72409C1377.5 2.8735 1378.61 4.52577 1379.38 6.6809C1380.16 8.8073 1380.55 11.3216 1380.55 14.2239C1380.55 16.5802 1380.24 18.8933 1379.64 21.1634C1379.04 23.4335 1378.16 25.3156 1377.01 26.8099C1374.91 29.511 1372.46 30.8615 1369.64 30.8615ZM1370.63 17.5859C1371.64 17.5859 1372.54 17.2554 1373.35 16.5945C1374.15 15.9336 1374.78 14.9997 1375.24 13.7928C1375.73 12.5572 1375.98 11.1492 1375.98 9.56878C1375.98 7.18377 1375.6 5.22978 1374.86 3.70681C1374.11 2.15512 1372.87 1.37927 1371.15 1.37927C1369.4 1.37927 1368.12 2.21259 1367.31 3.87923C1366.54 5.54586 1366.15 7.44238 1366.15 9.56878C1366.15 11.8676 1366.49 13.7785 1367.18 15.3014C1367.87 16.8244 1369.02 17.5859 1370.63 17.5859ZM1396.5 30.8615C1394.46 30.8615 1392.65 30.1288 1391.07 28.6633C1389.49 27.1978 1388.25 25.2869 1387.36 22.9306C1386.5 20.5456 1386.07 18.0456 1386.07 15.4308C1386.07 12.8159 1386.5 10.3303 1387.36 7.97398C1388.25 5.58896 1389.49 3.66371 1391.07 2.19822C1392.65 0.732727 1394.46 -1.92214e-05 1396.5 -1.92214e-05C1398.51 -1.92214e-05 1400.3 0.732727 1401.88 2.19822C1403.49 3.66371 1404.73 5.58896 1405.59 7.97398C1406.48 10.3303 1406.93 12.8159 1406.93 15.4308C1406.93 18.0456 1406.48 20.5456 1405.59 22.9306C1404.73 25.2869 1403.49 27.1978 1401.88 28.6633C1400.3 30.1288 1398.51 30.8615 1396.5 30.8615ZM1396.5 29.4822C1398.88 29.4822 1400.45 28.1317 1401.2 25.4306C1401.97 22.7295 1402.36 19.3962 1402.36 15.4308C1402.36 11.4653 1401.97 8.13203 1401.2 5.43092C1400.45 2.72982 1398.88 1.37927 1396.5 1.37927C1394.11 1.37927 1392.53 2.72982 1391.76 5.43092C1391.01 8.10329 1390.63 11.4366 1390.63 15.4308C1390.63 19.4249 1391.01 22.7726 1391.76 25.4737C1392.53 28.146 1394.11 29.4822 1396.5 29.4822Z" fill="#AE868A"/>
<rect y="94.1558" width="90" height="63" rx="16" fill="#FDFDFD"/>
<path d="M29.7417 131.324H30.6257C31.1457 131.324 31.605 131.124 32.0037 130.726C32.4023 130.31 32.7057 129.807 32.9137 129.218L38.3997 113.176H39.4917L45.0557 129.998C45.3503 130.882 45.8617 131.324 46.5897 131.324H47.6297V132.156H38.5037V131.324H40.3757C40.5837 131.324 40.7483 131.246 40.8697 131.09C41.0083 130.916 41.0777 130.717 41.0777 130.492C41.0777 130.301 41.0257 130.05 40.9217 129.738L40.0897 127.242H34.6297L34.0837 128.828C33.893 129.313 33.7977 129.755 33.7977 130.154C33.7977 130.466 33.919 130.743 34.1617 130.986C34.4217 131.211 34.751 131.324 35.1497 131.324H36.3717V132.156H29.7417V131.324ZM34.9677 126.28H39.7777L37.4117 119.13L34.9677 126.28ZM52.8272 132.468C51.8739 132.468 51.0592 132.234 50.3832 131.766C49.7246 131.298 49.3952 130.509 49.3952 129.4C49.3952 128.273 49.8026 127.389 50.6172 126.748C51.4492 126.089 52.4979 125.543 53.7632 125.11L55.6872 124.434V122.666C55.6872 121.782 55.5052 121.14 55.1412 120.742C54.7772 120.343 54.3092 120.144 53.7372 120.144C53.2519 120.144 52.8272 120.256 52.4632 120.482C52.1166 120.69 51.9432 120.984 51.9432 121.366C51.9432 121.47 51.9692 121.6 52.0212 121.756C52.0906 121.894 52.2032 122.016 52.3592 122.12C52.6192 122.276 52.8012 122.44 52.9052 122.614C53.0266 122.787 53.0872 123.012 53.0872 123.29C53.0872 123.706 52.9312 124.035 52.6192 124.278C52.3246 124.503 51.9952 124.616 51.6312 124.616C51.1806 124.616 50.7906 124.468 50.4612 124.174C50.1492 123.862 49.9932 123.42 49.9932 122.848C49.9932 122.189 50.1926 121.608 50.5912 121.106C50.9899 120.586 51.5012 120.196 52.1252 119.936C52.7492 119.658 53.3819 119.52 54.0232 119.52C55.2712 119.52 56.3632 119.858 57.2992 120.534C58.2352 121.192 58.7032 122.25 58.7032 123.706V130.284C58.7032 130.908 58.8766 131.22 59.2232 131.22C59.5352 131.22 59.7692 130.96 59.9252 130.44C60.0812 129.92 60.1592 129.322 60.1592 128.646H60.8872C60.8872 129.911 60.6966 130.838 60.3152 131.428C60.1246 131.74 59.8559 131.991 59.5092 132.182C59.1626 132.372 58.7639 132.468 58.3132 132.468C57.6026 132.468 57.0652 132.364 56.7012 132.156C56.3372 131.93 56.0339 131.566 55.7912 131.064H55.7392C55.0459 132 54.0752 132.468 52.8272 132.468ZM54.1012 131.428C54.7772 131.428 55.3059 131.046 55.6872 130.284V125.136L54.2312 125.656C53.6592 125.864 53.2346 126.262 52.9572 126.852C52.6972 127.424 52.5672 128.195 52.5672 129.166C52.5672 130.015 52.7232 130.604 53.0352 130.934C53.3472 131.263 53.7026 131.428 54.1012 131.428Z" fill="#0D0D0D"/>
<rect x="143" y="94.1558" width="90" height="63" rx="16" fill="#FDFDFD"/>
<path d="M173.883 131.324H175.703C175.945 131.324 176.11 131.28 176.197 131.194C176.283 131.09 176.327 130.925 176.327 130.7V115.1C176.327 114.857 176.283 114.692 176.197 114.606C176.11 114.519 175.945 114.476 175.703 114.476H173.883V113.644H183.035C184.057 113.644 185.011 113.834 185.895 114.216C186.796 114.597 187.515 115.126 188.053 115.802C188.59 116.46 188.859 117.214 188.859 118.064C188.859 119.208 188.434 120.135 187.585 120.846C186.735 121.556 185.695 122.076 184.465 122.406V122.562C185.262 122.683 186.042 122.943 186.805 123.342C187.585 123.723 188.226 124.234 188.729 124.876C189.231 125.517 189.483 126.262 189.483 127.112C189.483 128.169 189.205 129.079 188.651 129.842C188.096 130.604 187.351 131.185 186.415 131.584C185.496 131.965 184.482 132.156 183.373 132.156H173.883V131.324ZM182.567 122.068C183.503 122.068 184.135 121.738 184.465 121.08C184.794 120.404 184.959 119.398 184.959 118.064C184.959 116.937 184.759 116.062 184.361 115.438C183.962 114.796 183.416 114.476 182.723 114.476H180.799C180.573 114.476 180.409 114.519 180.305 114.606C180.218 114.692 180.175 114.857 180.175 115.1V122.068H182.567ZM182.567 131.324C183.485 131.324 184.17 131.02 184.621 130.414C185.089 129.79 185.323 128.689 185.323 127.112C185.323 125.534 185.089 124.442 184.621 123.836C184.17 123.212 183.485 122.9 182.567 122.9H180.175V130.7C180.175 130.925 180.218 131.09 180.305 131.194C180.409 131.28 180.573 131.324 180.799 131.324H182.567ZM191.769 131.532H192.757C192.913 131.532 193.017 131.506 193.069 131.454C193.139 131.384 193.173 131.272 193.173 131.116V120.872C193.173 120.716 193.139 120.612 193.069 120.56C193.017 120.49 192.913 120.456 192.757 120.456H191.769V119.832H198.035C199.197 119.832 200.115 120.1 200.791 120.638C201.485 121.158 201.831 121.877 201.831 122.796C201.831 123.576 201.528 124.2 200.921 124.668C200.315 125.118 199.561 125.404 198.659 125.526V125.63C199.855 125.716 200.809 126.046 201.519 126.618C202.23 127.19 202.585 127.97 202.585 128.958C202.585 129.876 202.221 130.639 201.493 131.246C200.765 131.852 199.873 132.156 198.815 132.156H191.769V131.532ZM197.411 125.344C197.931 125.344 198.295 125.127 198.503 124.694C198.711 124.243 198.815 123.636 198.815 122.874C198.815 122.094 198.694 121.496 198.451 121.08C198.209 120.664 197.862 120.456 197.411 120.456H196.605C196.449 120.456 196.337 120.49 196.267 120.56C196.215 120.612 196.189 120.716 196.189 120.872V125.344H197.411ZM197.593 131.532C198.131 131.532 198.538 131.272 198.815 130.752C199.11 130.214 199.257 129.538 199.257 128.724C199.257 127.926 199.119 127.285 198.841 126.8C198.564 126.314 198.148 126.072 197.593 126.072H196.189V131.116C196.189 131.272 196.215 131.384 196.267 131.454C196.337 131.506 196.449 131.532 196.605 131.532H197.593Z" fill="#0D0D0D"/>
<rect y="182.156" width="90" height="63" rx="16" fill="#FDFDFD"/>
<path d="M30.8063 219.324H32.6263C32.869 219.324 33.0337 219.28 33.1203 219.194C33.207 219.09 33.2503 218.925 33.2503 218.7V203.1C33.2503 202.857 33.207 202.692 33.1203 202.606C33.0337 202.519 32.869 202.476 32.6263 202.476H30.8063V201.644H44.8983L45.1063 208.404H44.2743C44.2743 208.3 44.1877 207.901 44.0143 207.208C43.841 206.514 43.6157 205.882 43.3383 205.31C42.4543 203.42 41.3537 202.476 40.0363 202.476H37.7223C37.497 202.476 37.3323 202.519 37.2283 202.606C37.1417 202.692 37.0983 202.857 37.0983 203.1V210.068H40.2183C41.4317 210.068 42.5063 210.284 43.4423 210.718C44.3957 211.151 45.1323 211.749 45.6523 212.512C46.1897 213.257 46.4583 214.106 46.4583 215.06C46.4583 216.013 46.1897 216.88 45.6523 217.66C45.1323 218.422 44.3957 219.029 43.4423 219.48C42.5063 219.93 41.4317 220.156 40.2183 220.156H30.8063V219.324ZM39.8283 219.324C41.475 219.324 42.2983 217.85 42.2983 214.904C42.2983 213.638 42.1163 212.659 41.7523 211.966C41.3883 211.255 40.747 210.9 39.8283 210.9H37.0983V218.7C37.0983 218.925 37.1417 219.09 37.2283 219.194C37.3323 219.28 37.497 219.324 37.7223 219.324H39.8283ZM54.2585 220.468C53.3225 220.468 52.4472 220.19 51.6325 219.636C50.8179 219.064 50.1679 218.284 49.6825 217.296C49.1972 216.308 48.9545 215.207 48.9545 213.994C48.9545 212.26 48.9892 210.917 49.0585 209.964C49.1279 209.01 49.3012 208.152 49.5785 207.39C49.8732 206.627 50.3239 205.908 50.9305 205.232C51.5545 204.556 52.3345 204.036 53.2705 203.672C54.2239 203.308 55.3852 202.961 56.7545 202.632C57.3959 202.476 57.8379 202.32 58.0805 202.164C58.3232 201.99 58.4792 201.748 58.5485 201.436H59.1725C59.1725 202.476 59.0252 203.282 58.7305 203.854C58.4359 204.408 58.0459 204.798 57.5605 205.024C57.0925 205.249 56.4772 205.431 55.7145 205.57C54.6052 205.778 53.7212 205.986 53.0625 206.194C52.4039 206.384 51.7885 206.688 51.2165 207.104C50.6965 207.485 50.3152 208.014 50.0725 208.69C49.8299 209.348 49.6825 210.059 49.6305 210.822L49.7605 210.848C50.8005 208.629 52.2999 207.52 54.2585 207.52C55.1945 207.52 56.0699 207.806 56.8845 208.378C57.6992 208.932 58.3492 209.704 58.8345 210.692C59.3199 211.68 59.5625 212.78 59.5625 213.994C59.5625 215.207 59.3199 216.308 58.8345 217.296C58.3492 218.284 57.6992 219.064 56.8845 219.636C56.0699 220.19 55.1945 220.468 54.2585 220.468ZM54.2585 219.844C55.0039 219.844 55.5152 219.384 55.7925 218.466C56.0872 217.547 56.2345 216.056 56.2345 213.994C56.2345 211.931 56.0872 210.44 55.7925 209.522C55.5152 208.603 55.0039 208.144 54.2585 208.144C53.4959 208.144 52.9759 208.603 52.6985 209.522C52.4212 210.423 52.2825 211.914 52.2825 213.994C52.2825 216.074 52.4212 217.573 52.6985 218.492C52.9759 219.393 53.4959 219.844 54.2585 219.844Z" fill="#0D0D0D"/>
<path d="M80.83 659.756H82.0096C82.4173 659.756 82.7231 659.661 82.927 659.472C83.1455 659.282 83.3493 658.977 83.5386 658.554C84.1648 657.156 84.6454 655.438 84.9803 653.399C85.3298 651.346 85.5045 649.074 85.5045 646.584C85.5045 645.725 85.1259 645.295 84.3687 645.295H83.1455V644.596H94.9846V645.295H93.4119C93.208 645.295 93.0551 645.346 92.9531 645.448C92.8658 645.536 92.8221 645.681 92.8221 645.885V658.576C92.8221 659.363 93.2153 659.756 94.0016 659.756H95.4651V664.518H94.9191C94.9191 664.139 94.8462 663.571 94.7006 662.814C94.5696 662.071 94.2783 661.452 93.8269 660.957C93.6084 660.724 93.3172 660.528 92.9531 660.367C92.6037 660.222 92.225 660.149 91.8173 660.149H84.4561C84.0629 660.149 83.6843 660.222 83.3202 660.367C82.9707 660.528 82.6867 660.724 82.4683 660.957C82.0169 661.452 81.7183 662.071 81.5727 662.814C81.4417 663.571 81.3761 664.139 81.3761 664.518H80.83V659.756ZM90.2227 659.45C90.6159 659.45 90.8125 659.253 90.8125 658.86V645.885C90.8125 645.492 90.6159 645.295 90.2227 645.295H88.1913C87.4632 645.295 86.9753 645.55 86.7278 646.06C86.4948 646.555 86.3783 647.072 86.3783 647.611C86.3783 649.329 86.2254 651.149 85.9196 653.072C85.6138 654.979 85.2788 656.465 84.9148 657.528C84.8711 657.673 84.8056 657.892 84.7182 658.183C84.6454 658.46 84.609 658.649 84.609 658.751C84.609 658.999 84.6526 659.181 84.74 659.297C84.8274 659.399 85.0313 659.45 85.3516 659.45H90.2227ZM102.416 660.542C101.543 660.542 100.727 660.367 99.97 660.018C99.2273 659.668 98.6303 659.181 98.1788 658.554C97.742 657.914 97.5235 657.171 97.5235 656.326C97.5235 655.773 97.691 655.314 98.0259 654.95C98.3754 654.572 98.7832 654.382 99.2492 654.382C99.7443 654.382 100.123 654.528 100.385 654.819C100.662 655.096 100.8 655.453 100.8 655.889C100.8 656.254 100.698 656.545 100.494 656.763C100.305 656.967 100.065 657.098 99.7734 657.156C99.555 657.2 99.3729 657.258 99.2273 657.331C99.0817 657.404 99.0089 657.528 99.0089 657.702C99.0089 658.11 99.1909 658.482 99.555 658.816C99.919 659.137 100.37 659.392 100.909 659.581C101.448 659.756 101.95 659.843 102.416 659.843C103.713 659.843 104.695 659.486 105.365 658.773C106.05 658.059 106.392 657.091 106.392 655.868C106.392 654.863 106.159 653.989 105.693 653.246C105.242 652.489 104.513 652.111 103.509 652.111H101.281V651.324H103.465C104.397 651.324 105.089 651.011 105.54 650.385C105.992 649.744 106.217 648.98 106.217 648.091C106.217 647.188 105.97 646.431 105.475 645.82C104.994 645.208 104.28 644.902 103.334 644.902C102.154 644.902 101.157 645.354 100.341 646.257C99.5259 647.145 99.0016 648.404 98.7686 650.035H98.2225V644.378H98.7686L98.9215 645.164C98.9652 645.339 99.0162 645.463 99.0744 645.536C99.1472 645.608 99.2419 645.645 99.3584 645.645C99.5331 645.645 99.8171 645.514 100.21 645.252C101.23 644.553 102.271 644.203 103.334 644.203C104.499 644.203 105.453 644.4 106.195 644.793C106.938 645.186 107.477 645.681 107.812 646.278C108.147 646.861 108.314 647.458 108.314 648.07C108.314 648.696 108.132 649.271 107.768 649.795C107.419 650.305 107.004 650.72 106.523 651.04C106.042 651.346 105.62 651.528 105.256 651.586V651.805C105.751 651.848 106.268 652.06 106.807 652.438C107.346 652.802 107.797 653.283 108.161 653.88C108.525 654.462 108.707 655.074 108.707 655.715C108.707 656.778 108.409 657.673 107.812 658.401C107.215 659.115 106.436 659.654 105.475 660.018C104.528 660.367 103.509 660.542 102.416 660.542ZM111.154 659.45H112.727C113.12 659.45 113.317 659.253 113.317 658.86V645.885C113.317 645.681 113.266 645.536 113.164 645.448C113.077 645.346 112.931 645.295 112.727 645.295H111.154V644.596H117.489V645.295H115.916C115.712 645.295 115.559 645.346 115.457 645.448C115.37 645.536 115.326 645.681 115.326 645.885V651.368H119.236C120.154 651.368 120.991 651.557 121.748 651.936C122.506 652.314 123.095 652.839 123.518 653.509C123.955 654.178 124.173 654.921 124.173 655.737C124.173 656.552 123.955 657.302 123.518 657.986C123.081 658.656 122.484 659.188 121.727 659.581C120.984 659.96 120.154 660.149 119.236 660.149H111.154V659.45ZM124.26 659.45H125.833C126.226 659.45 126.423 659.253 126.423 658.86V645.885C126.423 645.681 126.372 645.536 126.27 645.448C126.183 645.346 126.037 645.295 125.833 645.295H124.26V644.596H130.595V645.295H129.022C128.818 645.295 128.665 645.346 128.564 645.448C128.476 645.536 128.432 645.681 128.432 645.885V658.86C128.432 659.253 128.629 659.45 129.022 659.45H130.595V660.149H124.26V659.45ZM118.843 659.45C119.411 659.45 119.921 659.29 120.372 658.969C120.838 658.634 121.202 658.19 121.464 657.637C121.727 657.069 121.858 656.436 121.858 655.737C121.858 655.052 121.727 654.433 121.464 653.88C121.202 653.312 120.838 652.868 120.372 652.547C119.921 652.227 119.411 652.067 118.843 652.067H115.326V658.86C115.326 659.253 115.523 659.45 115.916 659.45H118.843ZM132.87 659.45H134.442C134.836 659.45 135.032 659.253 135.032 658.86V645.885C135.032 645.492 134.836 645.295 134.442 645.295H132.87V644.596H139.204V645.295H137.632C137.238 645.295 137.042 645.492 137.042 645.885V651.63H143.639V645.885C143.639 645.492 143.442 645.295 143.049 645.295H141.476V644.596H147.811V645.295H146.238C145.845 645.295 145.648 645.492 145.648 645.885V658.86C145.648 659.253 145.845 659.45 146.238 659.45H147.811V660.149H141.476V659.45H143.049C143.442 659.45 143.639 659.253 143.639 658.86V652.329H137.042V658.86C137.042 659.253 137.238 659.45 137.632 659.45H139.204V660.149H132.87V659.45ZM150.084 659.45H151.657C152.05 659.45 152.247 659.253 152.247 658.86V645.885C152.247 645.681 152.196 645.536 152.094 645.448C152.006 645.346 151.861 645.295 151.657 645.295H150.084V644.596H156.419V645.295H154.846C154.642 645.295 154.489 645.346 154.387 645.448C154.3 645.536 154.256 645.681 154.256 645.885V651.368H158.166C159.084 651.368 159.921 651.557 160.678 651.936C161.436 652.314 162.025 652.839 162.448 653.509C162.884 654.178 163.103 654.921 163.103 655.737C163.103 656.552 162.884 657.302 162.448 657.986C162.011 658.656 161.414 659.188 160.656 659.581C159.914 659.96 159.084 660.149 158.166 660.149H150.084V659.45ZM157.773 659.45C158.341 659.45 158.851 659.29 159.302 658.969C159.768 658.634 160.132 658.19 160.394 657.637C160.656 657.069 160.788 656.436 160.788 655.737C160.788 655.052 160.656 654.433 160.394 653.88C160.132 653.312 159.768 652.868 159.302 652.547C158.851 652.227 158.341 652.067 157.773 652.067H154.256V658.86C154.256 659.253 154.453 659.45 154.846 659.45H157.773Z" fill="#E6B0B5"/>
<path d="M81.58 693.401H83.4149C83.8736 693.401 84.1029 693.171 84.1029 692.713V677.575C84.1029 677.337 84.0435 677.168 83.9245 677.066C83.8226 676.947 83.6527 676.887 83.4149 676.887H81.58V676.072H95.3414L95.6472 682.749H95.0101C94.9931 682.647 94.9421 682.4 94.8572 682.009C94.7892 681.602 94.6703 681.118 94.5004 680.557C94.3305 679.979 94.1096 679.444 93.8378 678.951C93.498 678.323 93.0393 677.822 92.4617 677.448C91.884 677.074 91.1705 676.887 90.321 676.887H87.1355C86.8977 676.887 86.7193 676.947 86.6004 677.066C86.4984 677.168 86.4474 677.337 86.4474 677.575V684.329H91.0091C92.0794 684.329 93.0478 684.541 93.9143 684.966C94.7977 685.373 95.4943 685.951 96.0039 686.699C96.5136 687.446 96.7685 688.304 96.7685 689.272C96.7685 690.241 96.5136 691.099 96.0039 691.846C95.4943 692.594 94.7977 693.18 93.9143 693.605C93.0478 694.012 92.0794 694.216 91.0091 694.216H81.58V693.401ZM90.5759 693.401C91.7311 693.401 92.5976 693.044 93.1752 692.33C93.7698 691.6 94.0672 690.581 94.0672 689.272C94.0672 687.964 93.7698 686.953 93.1752 686.24C92.5976 685.509 91.7311 685.144 90.5759 685.144H86.4474V692.713C86.4474 693.171 86.6768 693.401 87.1355 693.401H90.5759ZM105.331 694.675C104.312 694.675 103.361 694.471 102.477 694.063C101.611 693.656 100.914 693.087 100.387 692.356C99.8777 691.608 99.6229 690.742 99.6229 689.757C99.6229 689.111 99.8182 688.576 100.209 688.151C100.617 687.709 101.092 687.489 101.636 687.489C102.214 687.489 102.655 687.658 102.961 687.998C103.284 688.321 103.445 688.737 103.445 689.247C103.445 689.672 103.327 690.011 103.089 690.266C102.868 690.504 102.588 690.657 102.248 690.725C101.993 690.776 101.781 690.844 101.611 690.929C101.441 691.014 101.356 691.158 101.356 691.362C101.356 691.838 101.568 692.271 101.993 692.662C102.418 693.036 102.944 693.333 103.573 693.554C104.201 693.758 104.788 693.86 105.331 693.86C106.843 693.86 107.99 693.443 108.772 692.611C109.57 691.778 109.969 690.649 109.969 689.221C109.969 688.049 109.698 687.03 109.154 686.163C108.627 685.28 107.778 684.838 106.605 684.838H104.006V683.921H106.555C107.642 683.921 108.449 683.556 108.975 682.825C109.502 682.077 109.765 681.185 109.765 680.149C109.765 679.096 109.477 678.212 108.899 677.499C108.338 676.785 107.506 676.428 106.402 676.428C105.025 676.428 103.862 676.955 102.91 678.008C101.959 679.045 101.347 680.514 101.075 682.417H100.438V675.817H101.075L101.254 676.734C101.305 676.938 101.364 677.083 101.432 677.168C101.517 677.252 101.628 677.295 101.764 677.295C101.967 677.295 102.299 677.142 102.757 676.836C103.947 676.021 105.161 675.613 106.402 675.613C107.761 675.613 108.874 675.842 109.74 676.301C110.606 676.76 111.235 677.337 111.626 678.034C112.017 678.714 112.212 679.41 112.212 680.124C112.212 680.854 112 681.525 111.575 682.137C111.167 682.732 110.683 683.216 110.122 683.589C109.562 683.946 109.069 684.159 108.644 684.227V684.481C109.222 684.532 109.825 684.779 110.454 685.22C111.082 685.645 111.609 686.206 112.034 686.902C112.458 687.582 112.671 688.296 112.671 689.043C112.671 690.283 112.322 691.328 111.626 692.178C110.929 693.01 110.02 693.639 108.899 694.063C107.795 694.471 106.605 694.675 105.331 694.675ZM114.292 693.758H115.668C116.144 693.758 116.5 693.647 116.738 693.426C116.993 693.205 117.231 692.849 117.452 692.356C118.182 690.725 118.743 688.72 119.134 686.342C119.541 683.946 119.745 681.296 119.745 678.391C119.745 677.388 119.304 676.887 118.42 676.887H116.993V676.072H130.805V676.887H128.97C128.733 676.887 128.554 676.947 128.435 677.066C128.333 677.168 128.282 677.337 128.282 677.575V692.381C128.282 693.299 128.741 693.758 129.659 693.758H131.366V699.313H130.729C130.729 698.871 130.644 698.209 130.474 697.325C130.321 696.459 129.981 695.737 129.455 695.159C129.2 694.887 128.86 694.658 128.435 694.471C128.028 694.301 127.586 694.216 127.11 694.216H118.522C118.063 694.216 117.622 694.301 117.197 694.471C116.789 694.658 116.458 694.887 116.203 695.159C115.676 695.737 115.328 696.459 115.158 697.325C115.005 698.209 114.929 698.871 114.929 699.313H114.292V693.758ZM125.25 693.401C125.709 693.401 125.938 693.171 125.938 692.713V677.575C125.938 677.117 125.709 676.887 125.25 676.887H122.88C122.03 676.887 121.461 677.185 121.172 677.779C120.901 678.357 120.765 678.96 120.765 679.589C120.765 681.593 120.586 683.717 120.229 685.959C119.873 688.185 119.482 689.918 119.057 691.158C119.006 691.328 118.93 691.583 118.828 691.923C118.743 692.246 118.7 692.466 118.7 692.585C118.7 692.874 118.751 693.087 118.853 693.222C118.955 693.341 119.193 693.401 119.567 693.401H125.25ZM133.767 693.401H135.602C136.061 693.401 136.29 693.171 136.29 692.713V677.575C136.29 677.337 136.231 677.168 136.112 677.066C136.01 676.947 135.84 676.887 135.602 676.887H133.767V676.072H142.279C143.468 676.072 144.522 676.276 145.439 676.683C146.374 677.074 147.096 677.635 147.605 678.365C148.132 679.079 148.395 679.894 148.395 680.812C148.395 681.746 148.132 682.579 147.605 683.309C147.096 684.04 146.374 684.617 145.439 685.042C144.522 685.45 143.468 685.654 142.279 685.654H138.635V692.713C138.635 692.951 138.686 693.129 138.788 693.248C138.89 693.35 139.068 693.401 139.323 693.401H141.566V694.216H133.767V693.401ZM142.61 684.838C143.528 684.838 144.267 684.447 144.827 683.666C145.405 682.867 145.694 681.916 145.694 680.812C145.694 679.707 145.414 678.782 144.853 678.034C144.292 677.269 143.545 676.887 142.61 676.887H139.323C139.085 676.887 138.907 676.947 138.788 677.066C138.686 677.168 138.635 677.337 138.635 677.575V684.838H142.61ZM151.089 693.401H152.923C153.382 693.401 153.611 693.171 153.611 692.713V677.575C153.611 677.337 153.552 677.168 153.433 677.066C153.331 676.947 153.161 676.887 152.923 676.887H151.089V676.072H158.479V676.887H156.644C156.406 676.887 156.228 676.947 156.109 677.066C156.007 677.168 155.956 677.337 155.956 677.575V683.972H160.518C161.588 683.972 162.565 684.193 163.448 684.634C164.332 685.076 165.02 685.688 165.513 686.469C166.022 687.251 166.277 688.117 166.277 689.069C166.277 690.02 166.022 690.895 165.513 691.693C165.003 692.475 164.306 693.095 163.423 693.554C162.556 693.995 161.588 694.216 160.518 694.216H151.089V693.401ZM166.379 693.401H168.214C168.673 693.401 168.902 693.171 168.902 692.713V677.575C168.902 677.337 168.842 677.168 168.723 677.066C168.622 676.947 168.452 676.887 168.214 676.887H166.379V676.072H173.769V676.887H171.934C171.697 676.887 171.518 676.947 171.399 677.066C171.297 677.168 171.246 677.337 171.246 677.575V692.713C171.246 693.171 171.476 693.401 171.934 693.401H173.769V694.216H166.379V693.401ZM160.059 693.401C160.722 693.401 161.316 693.214 161.843 692.84C162.386 692.449 162.811 691.931 163.117 691.286C163.423 690.623 163.576 689.884 163.576 689.069C163.576 688.27 163.423 687.548 163.117 686.902C162.811 686.24 162.386 685.722 161.843 685.348C161.316 684.974 160.722 684.787 160.059 684.787H155.956V692.713C155.956 693.171 156.185 693.401 156.644 693.401H160.059ZM189.573 694.522C188.707 694.522 188.044 694.327 187.585 693.936C187.127 693.545 186.821 693.053 186.668 692.458C186.515 691.846 186.421 691.09 186.387 690.19C186.303 688.576 186.107 687.327 185.801 686.444C185.513 685.543 184.943 685.093 184.094 685.093H181.291V692.713C181.291 693.171 181.52 693.401 181.979 693.401H183.814V694.216H176.423V693.401H178.258C178.717 693.401 178.946 693.171 178.946 692.713V677.575C178.946 677.337 178.887 677.168 178.768 677.066C178.666 676.947 178.496 676.887 178.258 676.887H176.423V676.072H183.814V676.887H181.979C181.741 676.887 181.563 676.947 181.444 677.066C181.342 677.168 181.291 677.337 181.291 677.575V684.278H183.482C184.434 684.278 185.096 683.929 185.47 683.233C185.844 682.519 186.073 681.355 186.158 679.741C186.209 678.62 186.379 677.788 186.668 677.244C186.906 676.785 187.22 676.428 187.611 676.174C188.018 675.902 188.435 675.766 188.859 675.766C189.624 675.766 190.236 675.953 190.694 676.327C191.272 676.853 191.561 677.533 191.561 678.365C191.561 678.977 191.425 679.495 191.153 679.92C190.983 680.175 190.762 680.379 190.49 680.531C190.236 680.684 189.964 680.761 189.675 680.761C189.216 680.761 188.859 680.633 188.605 680.379C188.333 680.107 188.197 679.784 188.197 679.41C188.197 679.087 188.256 678.824 188.375 678.62C188.511 678.416 188.707 678.229 188.961 678.059C189.335 677.771 189.522 677.516 189.522 677.295C189.522 677.108 189.437 676.981 189.267 676.913C189.097 676.828 188.927 676.785 188.757 676.785C188.112 676.785 187.662 677.074 187.407 677.652C187.169 678.229 187.008 679.181 186.923 680.506C186.855 681.542 186.71 682.409 186.489 683.105C186.269 683.802 185.844 684.295 185.215 684.583V684.711C186.32 685.22 187.135 685.713 187.662 686.189C188.188 686.665 188.554 687.259 188.757 687.973C188.961 688.669 189.106 689.689 189.191 691.031C189.242 691.812 189.344 692.398 189.497 692.789C189.666 693.163 189.972 693.35 190.414 693.35C190.924 693.35 191.306 693.002 191.561 692.305C191.816 691.591 191.943 690.869 191.943 690.139H192.58C192.58 691.141 192.368 692.127 191.943 693.095C191.518 694.046 190.728 694.522 189.573 694.522ZM202.558 694.675C201.131 694.675 199.857 694.225 198.735 693.324C197.614 692.424 196.739 691.243 196.111 689.782C195.482 688.304 195.168 686.758 195.168 685.144C195.168 683.53 195.482 681.992 196.111 680.531C196.739 679.053 197.614 677.864 198.735 676.964C199.857 676.063 201.131 675.613 202.558 675.613C203.985 675.613 205.259 676.063 206.381 676.964C207.502 677.864 208.377 679.053 209.006 680.531C209.634 681.992 209.948 683.53 209.948 685.144C209.948 686.758 209.634 688.304 209.006 689.782C208.377 691.243 207.502 692.424 206.381 693.324C205.259 694.225 203.985 694.675 202.558 694.675ZM202.558 693.86C204.223 693.86 205.421 693.104 206.151 691.591C206.882 690.062 207.247 687.913 207.247 685.144C207.247 682.358 206.882 680.209 206.151 678.697C205.421 677.185 204.223 676.428 202.558 676.428C200.893 676.428 199.695 677.185 198.965 678.697C198.234 680.209 197.869 682.358 197.869 685.144C197.869 687.913 198.234 690.062 198.965 691.591C199.695 693.104 200.893 693.86 202.558 693.86ZM214.504 694.522C213.723 694.522 213.069 694.267 212.542 693.758C212.033 693.248 211.778 692.551 211.778 691.668C211.778 690.954 211.99 690.385 212.415 689.96C212.857 689.536 213.383 689.323 213.995 689.323C214.47 689.323 214.836 689.476 215.091 689.782C215.362 690.071 215.498 690.411 215.498 690.801C215.498 691.192 215.405 691.507 215.218 691.744C215.048 691.982 214.81 692.203 214.504 692.407C214.182 692.645 214.02 692.9 214.02 693.171C214.02 693.341 214.08 693.477 214.199 693.579C214.335 693.664 214.504 693.707 214.708 693.707C215.456 693.707 216.008 693.503 216.365 693.095C216.722 692.67 217.002 692.144 217.206 691.515C217.563 690.428 217.843 688.593 218.047 686.01C218.268 683.411 218.378 680.871 218.378 678.391C218.378 677.881 218.251 677.507 217.996 677.269C217.741 677.015 217.316 676.887 216.722 676.887H215.549V676.072H229.362V676.887H227.527C227.289 676.887 227.111 676.947 226.992 677.066C226.89 677.168 226.839 677.337 226.839 677.575V692.713C226.839 693.171 227.068 693.401 227.527 693.401H229.362V694.216H221.971V693.401H223.806C224.265 693.401 224.494 693.171 224.494 692.713V677.575C224.494 677.32 224.443 677.142 224.341 677.04C224.256 676.938 224.095 676.887 223.857 676.887H221.665C220.969 676.887 220.451 677.074 220.111 677.448C219.771 677.805 219.55 678.255 219.448 678.798C219.346 679.342 219.278 680.047 219.244 680.914C219.058 685.569 218.709 688.958 218.2 691.082C218.013 691.897 217.656 692.679 217.129 693.426C216.603 694.157 215.728 694.522 214.504 694.522ZM239.614 694.675C238.187 694.675 236.913 694.225 235.792 693.324C234.67 692.424 233.796 691.243 233.167 689.782C232.538 688.304 232.224 686.758 232.224 685.144C232.224 683.53 232.538 681.992 233.167 680.531C233.796 679.053 234.67 677.864 235.792 676.964C236.913 676.063 238.187 675.613 239.614 675.613C241.041 675.613 242.316 676.063 243.437 676.964C244.558 677.864 245.433 679.053 246.062 680.531C246.69 681.992 247.005 683.53 247.005 685.144C247.005 686.758 246.69 688.304 246.062 689.782C245.433 691.243 244.558 692.424 243.437 693.324C242.316 694.225 241.041 694.675 239.614 694.675ZM239.614 693.86C241.279 693.86 242.477 693.104 243.208 691.591C243.938 690.062 244.303 687.913 244.303 685.144C244.303 682.358 243.938 680.209 243.208 678.697C242.477 677.185 241.279 676.428 239.614 676.428C237.949 676.428 236.752 677.185 236.021 678.697C235.291 680.209 234.925 682.358 234.925 685.144C234.925 687.913 235.291 690.062 236.021 691.591C236.752 693.104 237.949 693.86 239.614 693.86ZM249.864 693.401H251.699C252.157 693.401 252.387 693.171 252.387 692.713V677.575C252.387 677.337 252.327 677.168 252.208 677.066C252.107 676.947 251.937 676.887 251.699 676.887H249.864V676.072H263.218L263.523 683.105H262.886C262.869 682.969 262.818 682.672 262.733 682.213C262.665 681.755 262.538 681.219 262.351 680.608C262.164 679.996 261.935 679.444 261.663 678.951C261.306 678.34 260.831 677.847 260.236 677.473C259.641 677.083 258.928 676.887 258.095 676.887H255.419C255.182 676.887 255.003 676.947 254.884 677.066C254.782 677.168 254.731 677.337 254.731 677.575V692.713C254.731 693.171 254.961 693.401 255.419 693.401H257.687V694.216H249.864V693.401ZM266.438 693.401H268.273C268.732 693.401 268.961 693.171 268.961 692.713V677.575C268.961 677.337 268.902 677.168 268.783 677.066C268.681 676.947 268.511 676.887 268.273 676.887H266.438V676.072H273.829V676.887H271.994C271.756 676.887 271.578 676.947 271.459 677.066C271.357 677.168 271.306 677.337 271.306 677.575V690.394L278.543 678.416V677.575C278.543 677.337 278.484 677.168 278.365 677.066C278.263 676.947 278.093 676.887 277.855 676.887H276.02V676.072H283.411V676.887H281.576C281.117 676.887 280.888 677.117 280.888 677.575V692.713C280.888 693.171 281.117 693.401 281.576 693.401H283.411V694.216H276.02V693.401H277.855C278.314 693.401 278.543 693.171 278.543 692.713V679.894L271.306 691.872V692.713C271.306 693.171 271.535 693.401 271.994 693.401H273.829V694.216H266.438V693.401ZM288.572 694.522C287.4 694.522 286.644 694.089 286.304 693.222C285.964 692.356 285.794 691.328 285.794 690.139H286.431C286.431 692.28 286.916 693.35 287.884 693.35C288.258 693.35 288.521 693.154 288.674 692.764C288.827 692.356 288.929 691.719 288.98 690.852C289.065 689.612 289.371 688.525 289.897 687.59C290.441 686.656 291.384 685.883 292.726 685.271V685.144C291.316 684.991 290.169 684.524 289.286 683.742C288.419 682.944 287.986 681.967 287.986 680.812C287.986 679.826 288.249 678.977 288.776 678.263C289.303 677.55 289.991 677.006 290.84 676.632C291.707 676.259 292.624 676.072 293.592 676.072H302.512V676.887H300.677C300.439 676.887 300.261 676.947 300.142 677.066C300.04 677.168 299.989 677.337 299.989 677.575V692.713C299.989 693.171 300.218 693.401 300.677 693.401H302.512V694.216H294.688V693.401H296.956C297.211 693.401 297.39 693.35 297.491 693.248C297.593 693.129 297.644 692.951 297.644 692.713V685.348H294.153C293.423 685.348 292.87 685.764 292.497 686.597C292.123 687.412 291.91 688.423 291.86 689.629C291.809 690.649 291.707 691.498 291.554 692.178C291.401 692.84 291.087 693.401 290.611 693.86C290.152 694.301 289.473 694.522 288.572 694.522ZM297.644 684.532V677.575C297.644 677.337 297.585 677.168 297.466 677.066C297.364 676.947 297.194 676.887 296.956 676.887H293.771C292.853 676.887 292.106 677.261 291.528 678.008C290.968 678.756 290.687 679.673 290.687 680.761C290.687 681.967 290.985 682.901 291.579 683.564C292.174 684.21 293.193 684.532 294.637 684.532H297.644Z" fill="#E6B0B5"/>
<path d="M34 706.183C15.2476 706.183 0 690.935 0 672.183C0 653.43 15.2476 638.183 34 638.183C52.7523 638.183 68 653.43 68 672.183C68 690.935 52.7523 706.183 34 706.183Z" fill="#58595B"/>
<path d="M34 706.183C15.2476 706.183 0 690.935 0 672.183C0 653.43 15.2476 638.183 34 638.183C52.7523 638.183 68 653.43 68 672.183C68 690.935 52.7523 706.183 34 706.183Z" fill="#6D6D6D" fill-opacity="0.6"/>
<path d="M33.5 705.183C15.0322 705.183 0 690.15 0 671.683C0 653.215 15.0182 638.183 33.5 638.183C51.9818 638.183 67 653.215 67 671.683C67 690.15 51.9678 705.183 33.5 705.183Z" fill="url(#paint0_radial_89_286)"/>
<path d="M60 672.183C60 686.532 48.3633 698.183 34 698.183C19.6367 698.183 8 686.546 8 672.183C8 657.819 19.6504 646.183 34 646.183C48.3496 646.183 60 657.819 60 672.183Z" fill="#0B0B0B" fill-opacity="0.3"/>
<path d="M64 672.183C64 688.748 50.5688 702.183 34.007 702.183C17.4451 702.183 4 688.762 4 672.183C4 655.603 17.4312 642.183 33.993 642.183C50.5549 642.183 63.986 655.617 63.986 672.183H64Z" fill="url(#paint1_linear_89_286)"/>
<path d="M64.9996 672.683C64.9996 689.526 51.3436 703.183 34.4998 703.183C17.656 703.183 4 689.526 4 672.683C4 655.839 17.656 642.183 34.4998 642.183C51.3436 642.183 64.9996 655.839 64.9996 672.683Z" fill="#F7F9F9"/>
<path d="M65 673.19C65 689.758 51.5585 703.183 35 703.183C18.4415 703.183 5 689.758 5 673.19C5 656.621 18.4274 643.183 35 643.183C51.5726 643.183 65 656.607 65 673.176V673.19Z" fill="url(#paint2_linear_89_286)"/>
<path d="M62 671.683C62 687.424 49.2413 700.183 33.5 700.183C17.7587 700.183 5 687.424 5 671.683C5 655.941 17.7587 643.183 33.5 643.183C49.2413 643.183 62 655.941 62 671.683Z" fill="url(#paint3_linear_89_286)"/>
<path d="M62.3522 671.898C62.5492 656.436 50.1739 643.741 34.7112 643.544C19.2485 643.347 6.55375 655.722 6.35673 671.185C6.15971 686.648 18.535 699.342 33.9977 699.539C49.4604 699.736 62.1552 687.361 62.3522 671.898Z" fill="url(#paint4_linear_89_286)"/>
<path d="M62 673.183C62 688.097 49.9148 700.183 35 700.183C20.0852 700.183 8 688.097 8 673.183C8 658.268 20.0852 646.183 35 646.183C49.9148 646.183 62 658.268 62 673.183Z" fill="url(#paint5_linear_89_286)"/>
<path d="M46 672.183L28 682.575L28 661.79L46 672.183Z" fill="#E6B0B5"/>
<line x1="1060" y1="668.38" x2="1410" y2="668.38" stroke="#E6B0B5" stroke-width="1.60461"/>
<line x1="1059.2" y1="690.183" x2="1059.2" y2="647.183" stroke="#E6B0B5" stroke-width="1.60461"/>
<path d="M1087.85 691.561H1088.51C1088.9 691.561 1089.25 691.412 1089.54 691.115C1089.84 690.804 1090.07 690.429 1090.22 689.989L1094.32 678.009H1095.14L1099.29 690.571C1099.51 691.231 1099.89 691.561 1100.44 691.561H1101.21V692.183H1094.4V691.561H1095.8C1095.95 691.561 1096.07 691.503 1096.16 691.387C1096.27 691.257 1096.32 691.108 1096.32 690.94C1096.32 690.798 1096.28 690.61 1096.2 690.377L1095.58 688.513H1091.5L1091.1 689.697C1090.95 690.06 1090.88 690.39 1090.88 690.688C1090.88 690.921 1090.97 691.128 1091.16 691.309C1091.35 691.477 1091.6 691.561 1091.89 691.561H1092.81V692.183H1087.85V691.561ZM1091.76 687.795H1095.35L1093.58 682.455L1091.76 687.795ZM1105.09 692.416C1104.38 692.416 1103.77 692.241 1103.27 691.891C1102.78 691.542 1102.53 690.953 1102.53 690.124C1102.53 689.283 1102.84 688.623 1103.44 688.144C1104.07 687.652 1104.85 687.244 1105.79 686.921L1107.23 686.416V685.096C1107.23 684.435 1107.09 683.957 1106.82 683.659C1106.55 683.361 1106.2 683.212 1105.77 683.212C1105.41 683.212 1105.09 683.296 1104.82 683.465C1104.56 683.62 1104.43 683.84 1104.43 684.125C1104.43 684.202 1104.45 684.3 1104.49 684.416C1104.54 684.52 1104.63 684.61 1104.74 684.688C1104.94 684.804 1105.07 684.927 1105.15 685.057C1105.24 685.186 1105.29 685.355 1105.29 685.562C1105.29 685.872 1105.17 686.118 1104.94 686.299C1104.72 686.468 1104.47 686.552 1104.2 686.552C1103.86 686.552 1103.57 686.442 1103.33 686.222C1103.09 685.989 1102.98 685.659 1102.98 685.232C1102.98 684.74 1103.13 684.306 1103.42 683.931C1103.72 683.542 1104.1 683.251 1104.57 683.057C1105.04 682.85 1105.51 682.746 1105.99 682.746C1106.92 682.746 1107.73 682.999 1108.43 683.503C1109.13 683.995 1109.48 684.785 1109.48 685.872V690.785C1109.48 691.251 1109.61 691.484 1109.87 691.484C1110.1 691.484 1110.28 691.289 1110.39 690.901C1110.51 690.513 1110.57 690.066 1110.57 689.561H1111.11C1111.11 690.506 1110.97 691.199 1110.69 691.639C1110.54 691.872 1110.34 692.06 1110.08 692.202C1109.83 692.344 1109.53 692.416 1109.19 692.416C1108.66 692.416 1108.26 692.338 1107.99 692.183C1107.72 692.014 1107.49 691.743 1107.31 691.367H1107.27C1106.75 692.066 1106.03 692.416 1105.09 692.416ZM1106.05 691.639C1106.55 691.639 1106.95 691.354 1107.23 690.785V686.94L1106.14 687.329C1105.72 687.484 1105.4 687.782 1105.19 688.222C1105 688.649 1104.9 689.225 1104.9 689.95C1104.9 690.584 1105.02 691.024 1105.25 691.27C1105.48 691.516 1105.75 691.639 1106.05 691.639Z" fill="#E6B0B5"/>
<path d="M1388.46 692.649C1387.59 692.649 1386.99 692.306 1386.65 691.62C1386.31 690.921 1386.15 689.943 1386.15 688.688H1386.77C1386.77 689.49 1386.84 690.17 1387 690.726C1387.15 691.283 1387.4 691.561 1387.74 691.561C1388.1 691.561 1388.28 691.289 1388.28 690.746V688.746C1388.28 687.62 1388.55 686.798 1389.08 686.28C1389.62 685.762 1390.4 685.413 1391.43 685.232V685.096C1390.36 684.979 1389.5 684.643 1388.84 684.086C1388.18 683.516 1387.85 682.785 1387.85 681.892C1387.85 681.193 1388.05 680.578 1388.44 680.047C1388.84 679.504 1389.39 679.09 1390.09 678.805C1390.8 678.507 1391.61 678.358 1392.51 678.358H1398.8V678.979H1397.45C1397.28 678.979 1397.15 679.012 1397.08 679.077C1397.01 679.141 1396.98 679.264 1396.98 679.445V691.095C1396.98 691.264 1397.01 691.387 1397.08 691.464C1397.15 691.529 1397.28 691.561 1397.45 691.561H1398.8V692.183H1391.93V691.561H1393.64C1393.82 691.561 1393.94 691.529 1394.01 691.464C1394.07 691.387 1394.11 691.264 1394.11 691.095V685.348H1393.02C1392.38 685.348 1391.91 685.549 1391.6 685.95C1391.3 686.351 1391.15 686.863 1391.15 687.484V689.736C1391.15 690.694 1390.91 691.419 1390.42 691.911C1389.94 692.403 1389.28 692.649 1388.46 692.649ZM1394.11 684.727V679.445C1394.11 679.264 1394.07 679.141 1394.01 679.077C1393.94 679.012 1393.82 678.979 1393.64 678.979H1392.8C1391.58 678.979 1390.96 679.937 1390.96 681.853C1390.96 683.769 1391.58 684.727 1392.8 684.727H1394.11ZM1401.78 692.532C1401.11 692.532 1400.64 692.299 1400.39 691.833C1400.14 691.367 1400.02 690.707 1400.02 689.853H1400.52C1400.52 690.383 1400.57 690.83 1400.68 691.192C1400.78 691.542 1400.95 691.717 1401.18 691.717C1401.47 691.717 1401.61 691.542 1401.61 691.192V690.008C1401.61 689.27 1401.8 688.727 1402.19 688.377C1402.59 688.028 1403.14 687.801 1403.82 687.697V687.6C1402.11 687.316 1401.26 686.571 1401.26 685.367C1401.26 684.643 1401.56 684.067 1402.15 683.639C1402.76 683.199 1403.58 682.979 1404.62 682.979H1409.1V683.445H1408.48C1408.37 683.445 1408.28 683.471 1408.23 683.523C1408.19 683.562 1408.17 683.639 1408.17 683.756V691.406C1408.17 691.522 1408.19 691.607 1408.23 691.658C1408.28 691.697 1408.37 691.717 1408.48 691.717H1409.22V692.183H1404.87V691.717H1405.61C1405.72 691.717 1405.8 691.697 1405.84 691.658C1405.89 691.607 1405.92 691.522 1405.92 691.406V687.756H1405.16C1404.29 687.756 1403.86 688.209 1403.86 689.115V690.59C1403.86 691.225 1403.67 691.71 1403.3 692.047C1402.92 692.37 1402.42 692.532 1401.78 692.532ZM1405.92 687.29V683.756C1405.92 683.639 1405.89 683.562 1405.84 683.523C1405.8 683.471 1405.72 683.445 1405.59 683.445H1404.89C1404.41 683.445 1404.07 683.62 1403.88 683.969C1403.69 684.306 1403.59 684.772 1403.59 685.367C1403.59 686.649 1404.02 687.29 1404.89 687.29H1405.92Z" fill="#E6B0B5"/>
<path d="M1011.67 680.405H1017.96L1031.37 689.773C1031.72 690.018 1032.13 690.158 1032.55 690.18C1032.98 690.201 1033.4 690.103 1033.77 689.895C1034.14 689.686 1034.45 689.375 1034.67 688.996C1034.89 688.616 1035 688.182 1035 687.739V648.626C1035 648.184 1034.89 647.75 1034.67 647.371C1034.45 646.991 1034.14 646.681 1033.77 646.472C1033.4 646.263 1032.98 646.164 1032.56 646.185C1032.13 646.207 1031.73 646.347 1031.37 646.592L1017.96 655.96H1011.67C1009.09 655.96 1007 658.152 1007 660.849V675.516C1007 678.212 1009.09 680.405 1011.67 680.405ZM1011.67 660.849H1018.67C1018.74 660.849 1018.81 660.81 1018.88 660.802C1019.19 660.769 1019.49 660.673 1019.77 660.519C1019.83 660.484 1019.9 660.477 1019.96 660.438L1030.33 653.192V683.172L1019.96 675.927C1019.9 675.883 1019.83 675.878 1019.77 675.846C1019.5 675.688 1019.19 675.592 1018.88 675.563C1018.8 675.555 1018.74 675.516 1018.67 675.516H1011.67V660.849Z" fill="#E6B0B5"/>
<path d="M1049 683.183V653.183" stroke="#E6B0B5" stroke-width="2.65168"/>
<line y1="-1.32584" x2="16" y2="-1.32584" transform="matrix(0 -1 -1 0 1041 676.183)" stroke="#E6B0B5" stroke-width="2.65168"/>
<circle cx="1209.5" cy="669.683" r="14.5" fill="#FDFDFD" fill-opacity="0.9"/>
<circle cx="1209.5" cy="669.683" r="7.5" fill="#E6B0B5"/>
<defs>
<radialGradient id="paint0_radial_89_286" cx="0" cy="0" r="1" gradientUnits="userSpaceOnUse" gradientTransform="translate(33.5 671.683) scale(33.5)">
<stop stop-color="#ECECEC"/>
<stop offset="0.67" stop-color="#AE868A"/>
</radialGradient>
<linearGradient id="paint1_linear_89_286" x1="33.993" y1="642.183" x2="33.993" y2="702.197" gradientUnits="userSpaceOnUse">
<stop offset="0.09" stop-color="white"/>
<stop offset="1" stop-color="#D9D9D9"/>
</linearGradient>
<linearGradient id="paint2_linear_89_286" x1="5" y1="673.19" x2="65" y2="673.19" gradientUnits="userSpaceOnUse">
<stop offset="0.09" stop-color="#F8FAFA"/>
<stop offset="1" stop-color="#F2F4F5"/>
</linearGradient>
<linearGradient id="paint3_linear_89_286" x1="5" y1="671.683" x2="62" y2="671.683" gradientUnits="userSpaceOnUse">
<stop offset="0.09" stop-color="#FAFBFB"/>
<stop offset="1" stop-color="#EEF0F0"/>
</linearGradient>
<linearGradient id="paint4_linear_89_286" x1="6.33556" y1="671.554" x2="62.3496" y2="671.554" gradientUnits="userSpaceOnUse">
<stop offset="0.09" stop-color="#FBFCFC"/>
<stop offset="1" stop-color="#E9EBEC"/>
</linearGradient>
<linearGradient id="paint5_linear_89_286" x1="8" y1="673.183" x2="62" y2="673.183" gradientUnits="userSpaceOnUse">
<stop offset="0.09" stop-color="#FCFDFD"/>
<stop offset="1" stop-color="#E5E6E7"/>
</linearGradient>
</defs>
</svg>
