<svg width="1409" height="28" viewBox="0 0 1409 28" fill="none" xmlns="http://www.w3.org/2000/svg">
<path d="M599.746 21.34C598.382 21.34 597.216 20.9587 596.248 20.196C595.295 19.4187 594.576 18.4067 594.092 17.16C593.608 15.8987 593.366 14.5493 593.366 13.112C593.366 11.6307 593.616 10.2667 594.114 9.02C594.613 7.75867 595.324 6.754 596.248 6.006C597.187 5.258 598.28 4.884 599.526 4.884C600.069 4.884 600.568 4.97933 601.022 5.17C601.492 5.346 601.983 5.61 602.496 5.962C602.834 6.182 603.083 6.292 603.244 6.292C603.362 6.292 603.457 6.26267 603.53 6.204C603.604 6.13067 603.67 6.02067 603.728 5.874L604.124 5.06H604.85V11.814H604.146C603.809 9.922 603.222 8.41133 602.386 7.282C601.565 6.15267 600.612 5.588 599.526 5.588C598.837 5.588 598.258 5.92533 597.788 6.6C597.334 7.27467 597.106 8.34533 597.106 9.812V16.412C597.106 17.864 597.363 18.9347 597.876 19.624C598.404 20.2987 599.028 20.636 599.746 20.636C601.492 20.636 602.79 19.8367 603.64 18.238C604.066 17.4607 604.352 16.346 604.498 14.894H605.29C605.246 15.5393 605.144 16.192 604.982 16.852C604.836 17.4973 604.638 18.062 604.388 18.546C603.934 19.426 603.31 20.1153 602.518 20.614C601.741 21.098 600.817 21.34 599.746 21.34ZM607.714 20.24H609.254C609.459 20.24 609.598 20.2033 609.672 20.13C609.745 20.042 609.782 19.9027 609.782 19.712V6.512C609.782 6.30667 609.745 6.16733 609.672 6.094C609.598 6.02067 609.459 5.984 609.254 5.984H607.714V5.28H620.078L620.21 10.384H619.506C619.506 10.2813 619.425 9.95133 619.264 9.394C619.117 8.83667 618.904 8.33067 618.626 7.876C618.288 7.28933 617.9 6.82733 617.46 6.49C617.02 6.15267 616.528 5.984 615.986 5.984H613.566C613.375 5.984 613.236 6.02067 613.148 6.094C613.074 6.16733 613.038 6.30667 613.038 6.512V12.584H614.16C614.556 12.584 614.922 12.4227 615.26 12.1C615.597 11.7773 615.861 11.3813 616.052 10.912C616.257 10.428 616.36 9.97333 616.36 9.548H617.064V16.434H616.36C616.36 15.994 616.257 15.5393 616.052 15.07C615.861 14.586 615.597 14.1827 615.26 13.86C614.922 13.5373 614.556 13.376 614.16 13.376H613.038V19.712C613.038 19.9027 613.074 20.042 613.148 20.13C613.236 20.2033 613.375 20.24 613.566 20.24H615.964C616.77 20.24 617.445 19.9173 617.988 19.272C618.53 18.6267 618.941 17.908 619.22 17.116C619.337 16.7787 619.44 16.3607 619.528 15.862C619.616 15.3633 619.667 15.0333 619.682 14.872H620.386L620.254 20.944H607.714V20.24ZM630.823 4.62C629.928 4.62 629.158 4.488 628.513 4.224C627.868 3.96 627.376 3.61533 627.039 3.19C626.716 2.75 626.555 2.288 626.555 1.804C626.555 1.364 626.702 0.953333 626.995 0.571999C627.288 0.190666 627.684 -2.38419e-07 628.183 -2.38419e-07C628.535 -2.38419e-07 628.814 0.11 629.019 0.329999C629.239 0.535333 629.349 0.791999 629.349 1.1C629.349 1.364 629.268 1.59133 629.107 1.782C628.96 1.97267 628.784 2.112 628.579 2.2C628.506 2.22933 628.432 2.288 628.359 2.376C628.3 2.44933 628.271 2.53733 628.271 2.64C628.271 3.036 628.476 3.35867 628.887 3.608C629.312 3.84267 629.958 3.96 630.823 3.96C631.688 3.96 632.326 3.84267 632.737 3.608C633.162 3.35867 633.375 3.036 633.375 2.64C633.375 2.53733 633.338 2.44933 633.265 2.376C633.206 2.288 633.14 2.22933 633.067 2.2C632.862 2.112 632.678 1.97267 632.517 1.782C632.37 1.59133 632.297 1.364 632.297 1.1C632.297 0.791999 632.4 0.535333 632.605 0.329999C632.825 0.11 633.111 -2.38419e-07 633.463 -2.38419e-07C633.962 -2.38419e-07 634.358 0.190666 634.651 0.571999C634.944 0.953333 635.091 1.364 635.091 1.804C635.091 2.288 634.922 2.75 634.585 3.19C634.262 3.61533 633.778 3.96 633.133 4.224C632.488 4.488 631.718 4.62 630.823 4.62ZM622.903 20.24H624.443C624.648 20.24 624.788 20.2033 624.861 20.13C624.934 20.042 624.971 19.9027 624.971 19.712V6.512C624.971 6.30667 624.934 6.16733 624.861 6.094C624.788 6.02067 624.648 5.984 624.443 5.984H622.903V5.28H630.295V5.984H628.755C628.564 5.984 628.425 6.02067 628.337 6.094C628.264 6.16733 628.227 6.30667 628.227 6.512V17.446L633.419 7.172V6.512C633.419 6.30667 633.382 6.16733 633.309 6.094C633.236 6.02067 633.096 5.984 632.891 5.984H631.307V5.28H638.743V5.984H637.203C637.012 5.984 636.873 6.02067 636.785 6.094C636.712 6.16733 636.675 6.30667 636.675 6.512V19.712C636.675 19.9027 636.712 20.042 636.785 20.13C636.873 20.2033 637.012 20.24 637.203 20.24H638.743V20.944H631.351V20.24H632.891C633.096 20.24 633.236 20.2033 633.309 20.13C633.382 20.042 633.419 19.9027 633.419 19.712V8.756L628.227 19.052V19.712C628.227 19.9027 628.264 20.042 628.337 20.13C628.425 20.2033 628.564 20.24 628.755 20.24H630.295V20.944H622.903V20.24ZM648.648 20.24H650.188C650.393 20.24 650.533 20.2033 650.606 20.13C650.679 20.042 650.716 19.9027 650.716 19.712V14.036H646.8C644.189 14.036 642.884 12.8333 642.884 10.428V6.512C642.884 6.30667 642.847 6.16733 642.774 6.094C642.701 6.02067 642.561 5.984 642.356 5.984H640.816V5.28H647.9V5.984H646.668C646.477 5.984 646.338 6.02067 646.25 6.094C646.177 6.16733 646.14 6.30667 646.14 6.512V11.418C646.14 12.1367 646.287 12.6353 646.58 12.914C646.873 13.1927 647.299 13.332 647.856 13.332H650.716V6.512C650.716 6.30667 650.679 6.16733 650.606 6.094C650.533 6.02067 650.393 5.984 650.188 5.984H648.956V5.28H656.04V5.984H654.5C654.309 5.984 654.17 6.02067 654.082 6.094C654.009 6.16733 653.972 6.30667 653.972 6.512V19.712C653.972 19.9027 654.009 20.042 654.082 20.13C654.17 20.2033 654.309 20.24 654.5 20.24H656.04V20.944H648.648V20.24ZM657.935 20.24H658.683C659.123 20.24 659.511 20.0713 659.849 19.734C660.186 19.382 660.443 18.9567 660.619 18.458L665.261 4.884H666.185L670.893 19.118C671.142 19.866 671.575 20.24 672.191 20.24H673.071V20.944H665.349V20.24H666.933C667.109 20.24 667.248 20.174 667.351 20.042C667.468 19.8953 667.527 19.7267 667.527 19.536C667.527 19.3747 667.483 19.162 667.395 18.898L666.691 16.786H662.071L661.609 18.128C661.447 18.5387 661.367 18.9127 661.367 19.25C661.367 19.514 661.469 19.7487 661.675 19.954C661.895 20.1447 662.173 20.24 662.511 20.24H663.545V20.944H657.935V20.24ZM662.357 15.972H666.427L664.425 9.922L662.357 15.972ZM680.42 21.34C679.056 21.34 677.89 20.9587 676.922 20.196C675.969 19.4187 675.25 18.4067 674.766 17.16C674.282 15.8987 674.04 14.5493 674.04 13.112C674.04 11.6307 674.289 10.2667 674.788 9.02C675.287 7.75867 675.998 6.754 676.922 6.006C677.861 5.258 678.953 4.884 680.2 4.884C680.743 4.884 681.241 4.97933 681.696 5.17C682.165 5.346 682.657 5.61 683.17 5.962C683.507 6.182 683.757 6.292 683.918 6.292C684.035 6.292 684.131 6.26267 684.204 6.204C684.277 6.13067 684.343 6.02067 684.402 5.874L684.798 5.06H685.524V11.814H684.82C684.483 9.922 683.896 8.41133 683.06 7.282C682.239 6.15267 681.285 5.588 680.2 5.588C679.511 5.588 678.931 5.92533 678.462 6.6C678.007 7.27467 677.78 8.34533 677.78 9.812V16.412C677.78 17.864 678.037 18.9347 678.55 19.624C679.078 20.2987 679.701 20.636 680.42 20.636C682.165 20.636 683.463 19.8367 684.314 18.238C684.739 17.4607 685.025 16.346 685.172 14.894H685.964C685.92 15.5393 685.817 16.192 685.656 16.852C685.509 17.4973 685.311 18.062 685.062 18.546C684.607 19.426 683.984 20.1153 683.192 20.614C682.415 21.098 681.491 21.34 680.42 21.34ZM694.553 20.24H696.093C696.299 20.24 696.438 20.2033 696.511 20.13C696.585 20.042 696.621 19.9027 696.621 19.712V6.512C696.621 6.30667 696.585 6.16733 696.511 6.094C696.438 6.02067 696.299 5.984 696.093 5.984H694.553V5.28H702.297C703.163 5.28 703.969 5.44133 704.717 5.764C705.48 6.08667 706.089 6.534 706.543 7.106C706.998 7.66333 707.225 8.30133 707.225 9.02C707.225 9.988 706.866 10.7727 706.147 11.374C705.429 11.9753 704.549 12.4153 703.507 12.694V12.826C704.182 12.9287 704.842 13.1487 705.487 13.486C706.147 13.8087 706.69 14.2413 707.115 14.784C707.541 15.3267 707.753 15.9573 707.753 16.676C707.753 17.5707 707.519 18.3407 707.049 18.986C706.58 19.6313 705.949 20.1227 705.157 20.46C704.38 20.7827 703.522 20.944 702.583 20.944H694.553V20.24ZM701.901 12.408C702.693 12.408 703.229 12.1293 703.507 11.572C703.786 11 703.925 10.1493 703.925 9.02C703.925 8.06667 703.757 7.326 703.419 6.798C703.082 6.25533 702.62 5.984 702.033 5.984H700.405C700.215 5.984 700.075 6.02067 699.987 6.094C699.914 6.16733 699.877 6.30667 699.877 6.512V12.408H701.901ZM701.901 20.24C702.679 20.24 703.258 19.9833 703.639 19.47C704.035 18.942 704.233 18.0107 704.233 16.676C704.233 15.3413 704.035 14.4173 703.639 13.904C703.258 13.376 702.679 13.112 701.901 13.112H699.877V19.712C699.877 19.9027 699.914 20.042 699.987 20.13C700.075 20.2033 700.215 20.24 700.405 20.24H701.901ZM721.575 21.34C720.709 21.34 719.895 21.1713 719.133 20.834C718.385 20.4967 717.783 20.0347 717.329 19.448C716.874 18.8613 716.647 18.194 716.647 17.446C716.647 16.61 716.874 15.95 717.329 15.466C717.798 14.9673 718.355 14.718 719.001 14.718C719.543 14.718 719.991 14.8867 720.343 15.224C720.695 15.5467 720.871 15.9647 720.871 16.478C720.871 16.918 720.761 17.2773 720.541 17.556C720.321 17.82 720.02 18.0767 719.639 18.326C719.257 18.5607 719.067 18.876 719.067 19.272C719.067 19.6827 719.309 20.0127 719.793 20.262C720.277 20.5113 720.871 20.636 721.575 20.636C722.616 20.636 723.415 20.2473 723.973 19.47C724.545 18.6927 724.831 17.6733 724.831 16.412V13.112H719.683V12.32H724.831V9.812C724.831 8.43333 724.618 7.38467 724.193 6.666C723.767 5.94733 723.085 5.588 722.147 5.588C721.516 5.588 720.907 5.83733 720.321 6.336C719.734 6.82 719.221 7.502 718.781 8.382C718.355 9.262 718.055 10.2593 717.879 11.374H717.175V5.06H717.879L718.187 5.94C718.275 6.204 718.421 6.336 718.627 6.336C718.729 6.336 718.847 6.29933 718.979 6.226C719.111 6.15267 719.235 6.072 719.353 5.984C719.793 5.66133 720.284 5.39733 720.827 5.192C721.369 4.98667 721.927 4.884 722.499 4.884C723.76 4.884 724.845 5.214 725.755 5.874C726.679 6.51933 727.375 7.44333 727.845 8.646C728.329 9.84867 728.571 11.264 728.571 12.892C728.571 14.5347 728.285 15.994 727.713 17.27C727.141 18.546 726.327 19.5433 725.271 20.262C724.215 20.9807 722.983 21.34 721.575 21.34ZM735.698 20.24H737.106C737.311 20.24 737.451 20.2033 737.524 20.13C737.597 20.042 737.634 19.9027 737.634 19.712V17.952H736.446C735.463 17.952 734.539 17.7467 733.674 17.336C732.809 16.9253 732.112 16.346 731.584 15.598C731.071 14.85 730.814 13.992 730.814 13.024C730.814 12.056 731.071 11.198 731.584 10.45C732.112 9.702 732.809 9.12267 733.674 8.712C734.539 8.30133 735.463 8.096 736.446 8.096H737.634V6.512C737.634 6.30667 737.597 6.16733 737.524 6.094C737.451 6.02067 737.311 5.984 737.106 5.984H735.698V5.28H742.826V5.984H741.418C741.227 5.984 741.088 6.02067 741 6.094C740.927 6.16733 740.89 6.30667 740.89 6.512V8.096H742.078C743.061 8.096 743.985 8.30133 744.85 8.712C745.715 9.12267 746.405 9.702 746.918 10.45C747.446 11.198 747.71 12.056 747.71 13.024C747.71 13.992 747.446 14.85 746.918 15.598C746.405 16.346 745.715 16.9253 744.85 17.336C743.985 17.7467 743.061 17.952 742.078 17.952H740.89V19.712C740.89 19.9027 740.927 20.042 741 20.13C741.088 20.2033 741.227 20.24 741.418 20.24H742.826V20.944H735.698V20.24ZM737.634 17.248V8.8H736.996C736.043 8.8 735.361 9.14467 734.95 9.834C734.539 10.5233 734.334 11.5867 734.334 13.024C734.334 14.4613 734.539 15.5247 734.95 16.214C735.361 16.9033 736.043 17.248 736.996 17.248H737.634ZM741.528 17.248C742.481 17.248 743.163 16.9033 743.574 16.214C743.985 15.5247 744.19 14.4613 744.19 13.024C744.19 11.5867 743.985 10.5233 743.574 9.834C743.163 9.14467 742.481 8.8 741.528 8.8H740.89V17.248H741.528ZM749.768 20.24H751.308C751.514 20.24 751.653 20.2033 751.726 20.13C751.8 20.042 751.836 19.9027 751.836 19.712V6.512C751.836 6.30667 751.8 6.16733 751.726 6.094C751.653 6.02067 751.514 5.984 751.308 5.984H749.768V5.28H757.16V5.984H755.62C755.43 5.984 755.29 6.02067 755.202 6.094C755.129 6.16733 755.092 6.30667 755.092 6.512V17.446L760.284 7.172V6.512C760.284 6.30667 760.248 6.16733 760.174 6.094C760.101 6.02067 759.962 5.984 759.756 5.984H758.172V5.28H765.608V5.984H764.068C763.878 5.984 763.738 6.02067 763.65 6.094C763.577 6.16733 763.54 6.30667 763.54 6.512V19.712C763.54 19.9027 763.577 20.042 763.65 20.13C763.738 20.2033 763.878 20.24 764.068 20.24H765.608V20.944H758.216V20.24H759.756C759.962 20.24 760.101 20.2033 760.174 20.13C760.248 20.042 760.284 19.9027 760.284 19.712V8.756L755.092 19.052V19.712C755.092 19.9027 755.129 20.042 755.202 20.13C755.29 20.2033 755.43 20.24 755.62 20.24H757.16V20.944H749.768V20.24ZM767.901 20.24H769.441C769.646 20.24 769.786 20.2033 769.859 20.13C769.932 20.042 769.969 19.9027 769.969 19.712V6.512C769.969 6.30667 769.932 6.16733 769.859 6.094C769.786 6.02067 769.646 5.984 769.441 5.984H767.901V5.28H775.733C776.76 5.28 777.669 5.456 778.461 5.808C779.268 6.14533 779.891 6.62933 780.331 7.26C780.786 7.876 781.013 8.58 781.013 9.372C781.013 10.1787 780.786 10.8973 780.331 11.528C779.891 12.1587 779.268 12.6573 778.461 13.024C777.669 13.376 776.76 13.552 775.733 13.552H773.225V19.712C773.225 19.9027 773.262 20.042 773.335 20.13C773.423 20.2033 773.562 20.24 773.753 20.24H775.689V20.944H767.901V20.24ZM775.403 12.848C776.166 12.848 776.701 12.54 777.009 11.924C777.332 11.308 777.493 10.4573 777.493 9.372C777.493 8.30133 777.339 7.47267 777.031 6.886C776.723 6.28467 776.18 5.984 775.403 5.984H773.753C773.562 5.984 773.423 6.02067 773.335 6.094C773.262 6.16733 773.225 6.30667 773.225 6.512V12.848H775.403ZM783.348 20.24H784.888C785.094 20.24 785.233 20.2033 785.306 20.13C785.38 20.042 785.416 19.9027 785.416 19.712V6.512C785.416 6.30667 785.38 6.16733 785.306 6.094C785.233 6.02067 785.094 5.984 784.888 5.984H783.348V5.28H795.712L795.844 10.384H795.14C795.14 10.2813 795.06 9.95133 794.898 9.394C794.752 8.83667 794.539 8.33067 794.26 7.876C793.923 7.28933 793.534 6.82733 793.094 6.49C792.654 6.15267 792.163 5.984 791.62 5.984H789.2C789.01 5.984 788.87 6.02067 788.782 6.094C788.709 6.16733 788.672 6.30667 788.672 6.512V12.584H789.794C790.19 12.584 790.557 12.4227 790.894 12.1C791.232 11.7773 791.496 11.3813 791.686 10.912C791.892 10.428 791.994 9.97333 791.994 9.548H792.698V16.434H791.994C791.994 15.994 791.892 15.5393 791.686 15.07C791.496 14.586 791.232 14.1827 790.894 13.86C790.557 13.5373 790.19 13.376 789.794 13.376H788.672V19.712C788.672 19.9027 788.709 20.042 788.782 20.13C788.87 20.2033 789.01 20.24 789.2 20.24H791.598C792.405 20.24 793.08 19.9173 793.622 19.272C794.165 18.6267 794.576 17.908 794.854 17.116C794.972 16.7787 795.074 16.3607 795.162 15.862C795.25 15.3633 795.302 15.0333 795.316 14.872H796.02L795.888 20.944H783.348V20.24Z" fill="#E6B0B5"/>
<path fill-rule="evenodd" clip-rule="evenodd" d="M815.564 8.73689C815.915 8.34637 816.485 8.34637 816.836 8.73689L822.236 14.7369C822.588 15.1274 822.588 15.7606 822.236 16.1511L816.836 22.1511C816.485 22.5416 815.915 22.5416 815.564 22.1511C815.212 21.7606 815.212 21.1274 815.564 20.7369L819.427 16.444H805.4C804.903 16.444 804.5 15.9963 804.5 15.444C804.5 14.8917 804.903 14.444 805.4 14.444H819.427L815.564 10.1511C815.212 9.76058 815.212 9.12742 815.564 8.73689Z" fill="#E6B0B5"/>
</svg>
