<svg width="44" height="44" viewBox="0 0 44 44" fill="none" xmlns="http://www.w3.org/2000/svg">
<path d="M4.66674 34.2226H10.9598L24.3721 43.5902C24.7239 43.835 25.1323 43.9756 25.5542 43.9971C25.976 44.0186 26.3956 43.9203 26.7684 43.7124C27.1409 43.5035 27.4522 43.1927 27.6691 42.8129C27.8861 42.4332 28.0006 41.9989 28.0005 41.5563V2.4433C28.0002 2.00112 27.8855 1.56728 27.6686 1.18798C27.4516 0.808692 27.1405 0.498153 26.7684 0.289442C26.3963 0.0807308 25.9772 -0.018336 25.5556 0.00279284C25.134 0.0239217 24.7258 0.164455 24.3744 0.409424L10.9598 9.77699H4.66674C2.09303 9.77699 0 11.9698 0 14.6661V29.3335C0 32.0299 2.09303 34.2226 4.66674 34.2226ZM4.66674 14.6661H11.6669C11.7439 14.6661 11.8092 14.627 11.8839 14.6197C12.1934 14.5862 12.4938 14.4899 12.7682 14.3361C12.8289 14.3019 12.9012 14.2945 12.9595 14.2554L23.3337 7.00975V36.9899L12.9619 29.7442C12.9035 29.7002 12.8312 29.6953 12.7705 29.6635C12.4952 29.5057 12.1918 29.4092 11.8792 29.38C11.8045 29.3726 11.7415 29.3335 11.6669 29.3335H4.66674V14.6661Z" fill="#E6B0B5"/>
<path d="M42 37V7" stroke="#E6B0B5" stroke-width="2.65168"/>
<line y1="-1.32584" x2="16" y2="-1.32584" transform="matrix(0 -1 -1 0 34 30)" stroke="#E6B0B5" stroke-width="2.65168"/>
</svg>
