<svg width="1410" height="705" viewBox="0 0 1410 705" fill="none" xmlns="http://www.w3.org/2000/svg">
<g clip-path="url(#clip0_9_722)">
<path d="M488.488 705C488.488 585.424 585.422 488.49 704.998 488.49C824.574 488.49 921.508 585.424 921.508 705M1192.12 705C1192.12 435.961 974.037 217.875 704.998 217.875C435.959 217.875 217.872 435.961 217.872 705H1192.15H1192.12Z" fill="#AE868A"/>
<path d="M904.988 622.13L955.001 601.458" stroke="#FDFDFD" stroke-width="5.42564" stroke-miterlimit="71.43"/>
<path d="M858.069 551.93L896.381 513.617" stroke="#FDFDFD" stroke-width="5.42564" stroke-miterlimit="71.43"/>
<path d="M787.868 505.009L808.54 454.996" stroke="#FDFDFD" stroke-width="5.42564" stroke-miterlimit="71.43"/>
<path d="M705 488.49V407.317" stroke="#FDFDFD" stroke-width="5.42564" stroke-miterlimit="71.43"/>
<path d="M622.13 505.009L601.458 454.996" stroke="#FDFDFD" stroke-width="5.42564" stroke-miterlimit="71.43"/>
<path d="M551.927 551.93L513.614 513.617" stroke="#FDFDFD" stroke-width="5.42564" stroke-miterlimit="71.43"/>
<path d="M505.007 622.13L454.994 601.458" stroke="#FDFDFD" stroke-width="5.42564" stroke-miterlimit="71.43"/>
<path d="M1155.05 518.588L1263.32 473.486" stroke="#FE42AA" stroke-width="5.42564" stroke-miterlimit="71.43"/>
<path d="M1049.45 360.547L1131.47 278.526" stroke="#FE42AA" stroke-width="5.42564" stroke-miterlimit="71.43"/>
<path d="M891.412 254.945L936.484 146.674" stroke="#FE42AA" stroke-width="5.42564" stroke-miterlimit="71.43"/>
<path d="M705 217.874V82.5364" stroke="#FE42AA" stroke-width="5.42564" stroke-miterlimit="71.43"/>
<path d="M518.588 254.945L473.485 146.674" stroke="#FE42AA" stroke-width="5.42564" stroke-miterlimit="71.43"/>
<path d="M360.548 360.547L278.526 278.526" stroke="#FE42AA" stroke-width="5.42564" stroke-miterlimit="71.43"/>
<path d="M254.942 518.588L146.672 473.486" stroke="#FE42AA" stroke-width="5.42564" stroke-miterlimit="71.43"/>
<path d="M1011.35 668.139H1017.86C1018.73 668.139 1019.32 667.984 1019.63 667.674C1019.94 667.302 1020.09 666.713 1020.09 665.907V610.11C1020.09 609.242 1019.94 608.653 1019.63 608.343C1019.32 608.033 1018.73 607.878 1017.86 607.878H1011.35V604.902H1041.3V607.878H1036.09C1035.28 607.878 1034.69 608.033 1034.32 608.343C1034.01 608.653 1033.86 609.242 1033.86 610.11V665.907C1033.86 666.713 1034.01 667.302 1034.32 667.674C1034.69 667.984 1035.28 668.139 1036.09 668.139H1050.04C1050.91 668.139 1051.5 667.984 1051.81 667.674C1052.12 667.302 1052.27 666.713 1052.27 665.907V610.11C1052.27 609.242 1052.12 608.653 1051.81 608.343C1051.5 608.033 1050.91 607.878 1050.04 607.878H1044.83V604.902H1073.47V607.878H1068.27C1067.46 607.878 1066.87 608.033 1066.5 608.343C1066.19 608.653 1066.03 609.242 1066.03 610.11V665.907C1066.03 666.713 1066.19 667.302 1066.5 667.674C1066.87 667.984 1067.46 668.139 1068.27 668.139H1082.21C1083.08 668.139 1083.67 667.984 1083.98 667.674C1084.29 667.302 1084.45 666.713 1084.45 665.907V610.11C1084.45 609.242 1084.29 608.653 1083.98 608.343C1083.67 608.033 1083.08 607.878 1082.21 607.878H1077.01V604.902H1106.95V607.878H1100.44C1099.64 607.878 1099.05 608.033 1098.67 608.343C1098.36 608.653 1098.21 609.242 1098.21 610.11V665.907C1098.21 666.713 1098.36 667.302 1098.67 667.674C1099.05 667.984 1099.64 668.139 1100.44 668.139H1106.95V671.114H1011.35V668.139Z" fill="#FDFDFD"/>
<path d="M1031 561.936C1030.93 561.564 1030.75 560.758 1030.44 559.518C1030.13 558.278 1029.63 556.759 1028.95 554.961C1028.27 553.225 1027.43 551.582 1026.44 550.033C1024.89 547.677 1023.37 545.972 1021.88 544.918C1020.39 543.864 1018.75 543.337 1016.95 543.337H965.713V540.361H972.223C973.091 540.361 973.68 540.206 973.99 539.896C974.3 539.524 974.455 538.935 974.455 538.129V482.333C974.455 481.465 974.3 480.876 973.99 480.566C973.68 480.256 973.091 480.101 972.223 480.101H965.713V477.125H996.401V480.101H990.45C989.644 480.101 989.055 480.256 988.683 480.566C988.373 480.876 988.218 481.465 988.218 482.333V538.129C988.218 538.935 988.373 539.524 988.683 539.896C989.055 540.206 989.644 540.361 990.45 540.361H1006.82C1007.68 540.361 1008.27 540.206 1008.58 539.896C1008.89 539.524 1009.05 538.935 1009.05 538.129V482.333C1009.05 481.465 1008.89 480.876 1008.58 480.566C1008.27 480.256 1007.68 480.101 1006.82 480.101H1000.86V477.125H1031.55V480.101H1025.04C1024.24 480.101 1023.65 480.256 1023.28 480.566C1022.97 480.876 1022.81 481.465 1022.81 482.333V536.641C1022.81 538.315 1023.18 539.493 1023.93 540.175C1024.73 540.795 1026 541.105 1027.74 541.105H1033.97V561.936H1031Z" fill="#FDFDFD"/>
<path d="M882.133 440.617H888.085C888.952 440.617 889.541 440.462 889.851 440.152C890.161 439.78 890.316 439.191 890.316 438.385V430.945H885.295C881.141 430.945 877.235 430.077 873.577 428.342C869.92 426.606 866.975 424.157 864.743 420.995C862.573 417.833 861.488 414.206 861.488 410.115C861.488 406.023 862.573 402.396 864.743 399.234C866.975 396.073 869.92 393.624 873.577 391.888C877.235 390.152 881.141 389.284 885.295 389.284H890.316V382.588C890.316 381.72 890.161 381.131 889.851 380.821C889.541 380.512 888.952 380.357 888.085 380.357H882.133V377.381H912.263V380.357H906.311C905.505 380.357 904.917 380.512 904.545 380.821C904.235 381.131 904.08 381.72 904.08 382.588V389.284H909.101C913.255 389.284 917.161 390.152 920.819 391.888C924.476 393.624 927.39 396.073 929.56 399.234C931.792 402.396 932.908 406.023 932.908 410.115C932.908 414.206 931.792 417.833 929.56 420.995C927.39 424.157 924.476 426.606 920.819 428.342C917.161 430.077 913.255 430.945 909.101 430.945H904.08V438.385C904.08 439.191 904.235 439.78 904.545 440.152C904.917 440.462 905.505 440.617 906.311 440.617H912.263V443.593H882.133V440.617ZM890.316 427.97V392.26H887.62C883.59 392.26 880.707 393.717 878.971 396.631C877.235 399.544 876.367 404.039 876.367 410.115C876.367 416.19 877.235 420.685 878.971 423.599C880.707 426.513 883.59 427.97 887.62 427.97H890.316ZM906.776 427.97C910.806 427.97 913.689 426.513 915.425 423.599C917.161 420.685 918.029 416.19 918.029 410.115C918.029 404.039 917.161 399.544 915.425 396.631C913.689 393.717 910.806 392.26 906.776 392.26H904.08V427.97H906.776Z" fill="#FDFDFD"/>
<path d="M739.109 387.065H741.992C744.038 387.065 745.805 386.507 747.293 385.391C748.843 384.213 750.268 382.694 751.57 380.834L765.241 360.096L749.803 331.64C748.936 330.09 747.851 328.912 746.549 328.106C745.247 327.238 743.542 326.804 741.434 326.804H740.039V323.829H769.239V326.804H767.286C766.728 326.804 766.201 327.052 765.706 327.548C765.21 327.982 764.962 328.602 764.962 329.408C764.962 330.152 765.21 331.02 765.706 332.012L773.889 347.077L781.143 336.011C782.135 334.523 782.63 332.818 782.63 330.896C782.63 329.842 782.259 328.912 781.515 328.106C780.833 327.238 779.841 326.804 778.539 326.804H775.749V323.829H799.369V326.804H796.58C794.72 326.804 793.139 327.176 791.837 327.92C790.597 328.602 789.45 329.749 788.396 331.361L775.749 350.518L792.767 382.136C793.697 383.81 794.813 385.05 796.115 385.856C797.479 386.662 798.873 387.065 800.299 387.065H802.159V390.04H771.285V387.065H774.354C775.284 387.065 775.997 386.786 776.493 386.228C776.989 385.608 777.237 384.771 777.237 383.717C777.237 382.787 776.865 381.671 776.121 380.369L767.1 363.63L758.173 377.114C756.623 379.47 755.848 381.423 755.848 382.973C755.848 384.089 756.127 385.05 756.685 385.856C757.243 386.662 758.08 387.065 759.196 387.065H763.288V390.04H739.109V387.065Z" fill="#FDFDFD"/>
<path d="M622.704 391.714C616.939 391.714 612.01 390.102 607.918 386.879C603.889 383.593 600.851 379.315 598.805 374.045C596.759 368.714 595.736 363.01 595.736 356.934C595.736 350.673 596.79 344.907 598.898 339.638C601.006 334.306 604.013 330.059 607.918 326.897C611.886 323.736 616.505 322.155 621.774 322.155C624.068 322.155 626.176 322.558 628.098 323.364C630.082 324.107 632.159 325.223 634.329 326.711C635.755 327.641 636.809 328.106 637.49 328.106C637.986 328.106 638.389 327.982 638.699 327.734C639.009 327.424 639.288 326.959 639.536 326.339L641.21 322.899H644.279V351.448H641.303C639.877 343.45 637.397 337.065 633.864 332.291C630.392 327.517 626.362 325.13 621.774 325.13C618.861 325.13 616.412 326.556 614.428 329.408C612.506 332.26 611.545 336.786 611.545 342.985V370.884C611.545 377.021 612.63 381.547 614.8 384.461C617.032 387.313 619.667 388.739 622.704 388.739C630.082 388.739 635.569 385.36 639.164 378.602C640.962 375.316 642.171 370.605 642.791 364.467H646.139C645.953 367.195 645.519 369.954 644.837 372.744C644.217 375.471 643.38 377.858 642.326 379.904C640.404 383.624 637.769 386.538 634.422 388.646C631.136 390.691 627.23 391.714 622.704 391.714Z" fill="#FDFDFD"/>
<path d="M492.117 445.267C488.459 445.267 485.019 444.523 481.795 443.035C478.633 441.485 476.091 439.408 474.169 436.804C472.247 434.2 471.286 431.317 471.286 428.156C471.286 425.8 471.751 423.723 472.681 421.925C473.673 420.065 474.944 418.639 476.494 417.647C478.044 416.655 479.687 416.159 481.423 416.159C483.717 416.159 485.67 416.872 487.281 418.298C488.893 419.724 489.699 421.491 489.699 423.599C489.699 425.831 489.172 427.505 488.118 428.621C487.126 429.675 485.856 430.48 484.306 431.038C483.128 431.472 482.291 432.061 481.795 432.805C481.361 433.487 481.144 434.355 481.144 435.409C481.144 437.393 482.229 439.036 484.399 440.338C486.569 441.64 489.141 442.291 492.117 442.291C496.519 442.291 499.495 440.896 501.045 438.106C502.657 435.254 503.462 431.007 503.462 425.366C503.462 422.204 503.276 419.538 502.905 417.368C502.533 415.136 501.634 413.246 500.208 411.696C498.782 410.146 496.643 409.371 493.791 409.371H482.818V406.023H493.977C497.263 406.023 499.495 404.752 500.673 402.21C501.913 399.606 502.533 396.104 502.533 391.702C502.533 387.362 501.882 384.107 500.58 381.937C499.34 379.768 497.325 378.683 494.535 378.683C491.869 378.683 489.296 379.737 486.816 381.844C484.337 383.89 482.167 386.773 480.307 390.493C478.509 394.213 477.238 398.428 476.494 403.14H473.518V376.451H476.494L477.796 380.171C478.168 381.286 478.788 381.844 479.656 381.844C480.09 381.844 480.586 381.689 481.144 381.379C481.702 381.069 482.229 380.728 482.725 380.357C487.002 377.257 491.28 375.707 495.558 375.707C500.27 375.707 504.268 376.544 507.554 378.218C510.84 379.83 513.289 381.906 514.901 384.448C516.575 386.928 517.412 389.501 517.412 392.167C517.412 399.296 513.01 404.287 504.206 407.139V408.069C508.36 408.999 511.894 410.983 514.808 414.02C517.784 417.058 519.272 420.902 519.272 425.552C519.272 429.644 518.125 433.177 515.831 436.153C513.537 439.129 510.344 441.392 506.252 442.942C502.161 444.492 497.449 445.267 492.117 445.267Z" fill="#FDFDFD"/>
<path d="M400.238 540.361H406.747C407.615 540.361 408.204 540.206 408.514 539.896C408.824 539.524 408.979 538.935 408.979 538.129V514.137H392.426C381.391 514.137 375.873 509.053 375.873 498.886V482.333C375.873 481.465 375.718 480.876 375.408 480.566C375.098 480.256 374.509 480.101 373.641 480.101H367.132V477.125H397.076V480.101H391.868C391.062 480.101 390.473 480.256 390.101 480.566C389.791 480.876 389.636 481.465 389.636 482.333V503.07C389.636 506.108 390.256 508.216 391.496 509.394C392.736 510.572 394.534 511.161 396.89 511.161H408.979V482.333C408.979 481.465 408.824 480.876 408.514 480.566C408.204 480.256 407.615 480.101 406.747 480.101H401.54V477.125H431.484V480.101H424.974C424.168 480.101 423.579 480.256 423.207 480.566C422.897 480.876 422.742 481.465 422.742 482.333V538.129C422.742 538.935 422.897 539.524 423.207 539.896C423.579 540.206 424.168 540.361 424.974 540.361H431.484V543.337H400.238V540.361Z" fill="#FDFDFD"/>
<path d="M400.377 689.713C400.315 689.341 400.129 688.535 399.819 687.295C399.509 686.055 399.013 684.537 398.331 682.739C397.649 681.003 396.812 679.36 395.82 677.81C394.271 675.454 392.752 673.749 391.264 672.695C389.776 671.641 388.133 671.114 386.335 671.114H305.337V668.139H311.847C312.714 668.139 313.303 667.984 313.613 667.674C313.923 667.302 314.078 666.713 314.078 665.907V610.11C314.078 609.242 313.923 608.653 313.613 608.343C313.303 608.033 312.714 607.878 311.847 607.878H305.337V604.902H335.281V607.878H330.073C329.267 607.878 328.679 608.033 328.307 608.343C327.997 608.653 327.842 609.242 327.842 610.11V665.907C327.842 666.713 327.997 667.302 328.307 667.674C328.679 667.984 329.267 668.139 330.073 668.139H344.023C344.891 668.139 345.479 667.984 345.789 667.674C346.099 667.302 346.254 666.713 346.254 665.907V610.11C346.254 609.242 346.099 608.653 345.789 608.343C345.479 608.033 344.891 607.878 344.023 607.878H338.815V604.902H367.457V607.878H362.249C361.444 607.878 360.855 608.033 360.483 608.343C360.173 608.653 360.018 609.242 360.018 610.11V665.907C360.018 666.713 360.173 667.302 360.483 667.674C360.855 667.984 361.444 668.139 362.249 668.139H376.199C377.067 668.139 377.656 667.984 377.966 667.674C378.275 667.302 378.43 666.713 378.43 665.907V610.11C378.43 609.242 378.275 608.653 377.966 608.343C377.656 608.033 377.067 607.878 376.199 607.878H370.991V604.902H400.935V607.878H394.426C393.62 607.878 393.031 608.033 392.659 608.343C392.349 608.653 392.194 609.242 392.194 610.11V664.419C392.194 666.093 392.566 667.271 393.31 667.953C394.116 668.573 395.386 668.883 397.122 668.883H403.353V689.713H400.377Z" fill="#FDFDFD"/>
<path d="M1141.69 393.414H1145.18C1145.54 393.414 1145.8 393.342 1145.94 393.196C1146.11 393.051 1146.2 392.808 1146.2 392.469V374.61H1141.69V373.3H1143.69C1145 373.3 1146.05 372.949 1146.85 372.245C1147.68 371.542 1148.19 370.693 1148.38 369.699H1149.54V392.469C1149.54 392.808 1149.62 393.051 1149.76 393.196C1149.93 393.342 1150.2 393.414 1150.56 393.414H1154.05V394.578H1141.69V393.414ZM1168.17 395.16C1166.81 395.16 1165.64 394.93 1164.64 394.469C1163.65 393.984 1162.88 393.342 1162.35 392.541C1161.82 391.717 1161.55 390.808 1161.55 389.814C1161.55 388.674 1161.84 387.801 1162.42 387.195C1163.01 386.588 1163.68 386.285 1164.46 386.285C1165.12 386.285 1165.62 386.491 1165.99 386.904C1166.38 387.292 1166.57 387.789 1166.57 388.395C1166.57 388.807 1166.45 389.195 1166.21 389.559C1165.96 389.898 1165.65 390.153 1165.26 390.323C1164.92 390.492 1164.65 390.662 1164.46 390.832C1164.27 391.002 1164.17 391.232 1164.17 391.523C1164.17 392.299 1164.47 392.905 1165.08 393.342C1165.68 393.778 1166.72 393.996 1168.17 393.996C1169.96 393.996 1171.26 393.22 1172.06 391.669C1172.86 390.117 1173.26 388.152 1173.26 385.776C1173.26 383.545 1172.87 381.836 1172.1 380.648C1171.32 379.459 1170.06 378.865 1168.32 378.865C1167.61 378.865 1167.01 378.974 1166.5 379.193C1165.99 379.387 1165.47 379.75 1164.93 380.284C1164.69 380.526 1164.48 380.854 1164.31 381.266C1164.17 381.654 1164.1 381.993 1164.1 382.284C1164.1 382.551 1164.02 382.769 1163.88 382.939C1163.76 383.109 1163.59 383.194 1163.37 383.194C1162.98 383.194 1162.79 382.891 1162.79 382.284V369.736L1163.59 369.117C1164.1 369.554 1164.84 369.917 1165.81 370.208C1166.8 370.499 1167.72 370.645 1168.57 370.645C1169.73 370.645 1170.79 370.536 1171.73 370.318C1172.68 370.099 1173.65 369.699 1174.64 369.117L1175.08 369.626C1174.21 370.766 1173.13 371.688 1171.84 372.391C1170.58 373.07 1169.24 373.409 1167.81 373.409C1166.91 373.409 1166.19 373.361 1165.66 373.264C1165.13 373.143 1164.61 372.949 1164.1 372.682V379.629L1164.31 379.702C1164.9 379.023 1165.6 378.501 1166.42 378.138C1167.27 377.75 1168.15 377.556 1169.04 377.556C1171.59 377.556 1173.57 378.308 1174.97 379.811C1176.4 381.314 1177.12 383.303 1177.12 385.776C1177.12 387.546 1176.71 389.147 1175.88 390.577C1175.08 392.008 1174 393.136 1172.64 393.96C1171.29 394.76 1169.8 395.16 1168.17 395.16ZM1190.07 395.16C1188.35 395.16 1186.82 394.542 1185.49 393.305C1184.15 392.069 1183.11 390.456 1182.36 388.468C1181.63 386.455 1181.27 384.345 1181.27 382.139C1181.27 379.932 1181.63 377.835 1182.36 375.846C1183.11 373.834 1184.15 372.209 1185.49 370.972C1186.82 369.736 1188.35 369.117 1190.07 369.117C1191.77 369.117 1193.28 369.736 1194.62 370.972C1195.97 372.209 1197.02 373.834 1197.74 375.846C1198.5 377.835 1198.87 379.932 1198.87 382.139C1198.87 384.345 1198.5 386.455 1197.74 388.468C1197.02 390.456 1195.97 392.069 1194.62 393.305C1193.28 394.542 1191.77 395.16 1190.07 395.16ZM1190.07 393.996C1192.08 393.996 1193.4 392.857 1194.03 390.577C1194.69 388.298 1195.02 385.485 1195.02 382.139C1195.02 378.792 1194.69 375.98 1194.03 373.7C1193.4 371.421 1192.08 370.281 1190.07 370.281C1188.06 370.281 1186.72 371.421 1186.07 373.7C1185.44 375.955 1185.12 378.768 1185.12 382.139C1185.12 385.509 1185.44 388.334 1186.07 390.614C1186.72 392.869 1188.06 393.996 1190.07 393.996Z" fill="#AE868A"/>
<path d="M993.232 241.817C991.292 241.817 989.692 241.405 988.431 240.581C987.17 239.732 986.54 238.507 986.54 236.907C986.54 236.034 986.794 235.294 987.304 234.688C987.813 234.058 988.48 233.743 989.304 233.743C990.007 233.743 990.553 233.936 990.941 234.324C991.353 234.688 991.559 235.197 991.559 235.852C991.559 236.361 991.402 236.81 991.086 237.198C990.795 237.562 990.407 237.744 989.922 237.744C989.074 237.744 988.649 237.95 988.649 238.362C988.649 239.89 990.177 240.653 993.232 240.653C995.003 240.653 996.276 240.047 997.052 238.835C997.852 237.622 998.252 236.167 998.252 234.47C998.252 232.53 997.828 231.075 996.979 230.105C996.154 229.135 995.136 228.65 993.923 228.65C993.56 228.65 993.257 228.675 993.014 228.723C992.796 228.772 992.517 228.856 992.178 228.978C991.377 229.244 990.759 229.378 990.323 229.378C989.959 229.378 989.631 229.293 989.34 229.123C989.074 228.953 988.94 228.699 988.94 228.359C988.94 228.02 989.074 227.765 989.34 227.595C989.607 227.426 989.935 227.341 990.323 227.341C990.735 227.341 991.305 227.401 992.032 227.523C992.517 227.595 993.184 227.632 994.033 227.632C995.197 227.632 996.082 227.11 996.688 226.068C997.318 225.001 997.634 223.788 997.634 222.43C997.634 220.854 997.27 219.545 996.542 218.502C995.815 217.46 994.76 216.938 993.378 216.938C991.947 216.938 990.929 217.169 990.323 217.629C989.741 218.09 989.45 218.611 989.45 219.193C989.45 219.412 989.534 219.642 989.704 219.884C989.874 220.103 990.104 220.284 990.395 220.43C991.268 220.794 991.705 221.388 991.705 222.212C991.705 222.721 991.535 223.146 991.196 223.485C990.856 223.801 990.371 223.958 989.741 223.958C989.037 223.958 988.419 223.667 987.886 223.085C987.376 222.479 987.122 221.812 987.122 221.085C987.122 219.387 987.764 218.078 989.049 217.156C990.359 216.235 991.935 215.774 993.778 215.774C995.985 215.774 997.755 216.368 999.088 217.557C1000.45 218.72 1001.13 220.26 1001.13 222.176C1001.13 223.194 1000.88 224.104 1000.4 224.904C999.937 225.68 999.343 226.322 998.616 226.832C997.912 227.317 997.197 227.644 996.47 227.814V228.105C997.27 228.25 998.106 228.602 998.979 229.16C999.852 229.693 1000.59 230.42 1001.2 231.342C1001.8 232.263 1002.11 233.318 1002.11 234.506C1002.11 235.986 1001.71 237.283 1000.91 238.398C1000.11 239.489 999.028 240.338 997.67 240.944C996.336 241.526 994.857 241.817 993.232 241.817ZM1015.57 241.817C1013.85 241.817 1012.32 241.199 1010.99 239.962C1009.65 238.726 1008.61 237.113 1007.86 235.125C1007.13 233.112 1006.77 231.002 1006.77 228.796C1006.77 226.589 1007.13 224.492 1007.86 222.503C1008.61 220.491 1009.65 218.866 1010.99 217.629C1012.32 216.393 1013.85 215.774 1015.57 215.774C1017.27 215.774 1018.78 216.393 1020.11 217.629C1021.47 218.866 1022.52 220.491 1023.24 222.503C1023.99 224.492 1024.37 226.589 1024.37 228.796C1024.37 231.002 1023.99 233.112 1023.24 235.125C1022.52 237.113 1021.47 238.726 1020.11 239.962C1018.78 241.199 1017.27 241.817 1015.57 241.817ZM1015.57 240.653C1017.58 240.653 1018.9 239.514 1019.53 237.234C1020.19 234.955 1020.51 232.142 1020.51 228.796C1020.51 225.449 1020.19 222.637 1019.53 220.357C1018.9 218.078 1017.58 216.938 1015.57 216.938C1013.56 216.938 1012.22 218.078 1011.57 220.357C1010.94 222.612 1010.62 225.425 1010.62 228.796C1010.62 232.166 1010.94 234.991 1011.57 237.271C1012.22 239.526 1013.56 240.653 1015.57 240.653ZM1036.67 241.817C1034.95 241.817 1033.42 241.199 1032.08 239.962C1030.75 238.726 1029.71 237.113 1028.96 235.125C1028.23 233.112 1027.87 231.002 1027.87 228.796C1027.87 226.589 1028.23 224.492 1028.96 222.503C1029.71 220.491 1030.75 218.866 1032.08 217.629C1033.42 216.393 1034.95 215.774 1036.67 215.774C1038.36 215.774 1039.88 216.393 1041.21 217.629C1042.57 218.866 1043.61 220.491 1044.34 222.503C1045.09 224.492 1045.47 226.589 1045.47 228.796C1045.47 231.002 1045.09 233.112 1044.34 235.125C1043.61 237.113 1042.57 238.726 1041.21 239.962C1039.88 241.199 1038.36 241.817 1036.67 241.817ZM1036.67 240.653C1038.68 240.653 1040 239.514 1040.63 237.234C1041.29 234.955 1041.61 232.142 1041.61 228.796C1041.61 225.449 1041.29 222.637 1040.63 220.357C1040 218.078 1038.68 216.938 1036.67 216.938C1034.65 216.938 1033.32 218.078 1032.67 220.357C1032.04 222.612 1031.72 225.425 1031.72 228.796C1031.72 232.166 1032.04 234.991 1032.67 237.271C1033.32 239.526 1034.65 240.653 1036.67 240.653Z" fill="#AE868A"/>
<path d="M794.939 158.778H798.467C798.807 158.778 799.049 158.705 799.195 158.56C799.365 158.414 799.449 158.172 799.449 157.832V152.958H790.211V151.649L801.486 135.026H802.796V151.649H807.197V152.958H802.796V157.832C802.796 158.172 802.869 158.414 803.014 158.56C803.184 158.705 803.438 158.778 803.778 158.778H807.306V159.942H794.939V158.778ZM791.884 151.649H799.449V140.519L791.884 151.649ZM819.021 160.524C817.663 160.524 816.487 160.293 815.493 159.833C814.499 159.348 813.735 158.705 813.201 157.905C812.668 157.08 812.401 156.171 812.401 155.177C812.401 154.037 812.692 153.164 813.274 152.558C813.856 151.952 814.535 151.649 815.311 151.649C815.966 151.649 816.475 151.855 816.839 152.267C817.227 152.655 817.421 153.152 817.421 153.758C817.421 154.171 817.299 154.559 817.057 154.922C816.814 155.262 816.499 155.516 816.111 155.686C815.772 155.856 815.505 156.026 815.311 156.195C815.117 156.365 815.02 156.596 815.02 156.886C815.02 157.662 815.323 158.269 815.929 158.705C816.536 159.142 817.566 159.36 819.021 159.36C820.815 159.36 822.113 158.584 822.913 157.032C823.713 155.48 824.113 153.516 824.113 151.14C824.113 148.909 823.725 147.199 822.949 146.011C822.173 144.823 820.912 144.229 819.166 144.229C818.463 144.229 817.857 144.338 817.348 144.556C816.839 144.75 816.317 145.114 815.784 145.647C815.541 145.89 815.335 146.217 815.165 146.629C815.02 147.017 814.947 147.357 814.947 147.648C814.947 147.914 814.874 148.133 814.729 148.302C814.608 148.472 814.438 148.557 814.22 148.557C813.832 148.557 813.638 148.254 813.638 147.648V135.099L814.438 134.481C814.947 134.917 815.687 135.281 816.657 135.572C817.651 135.863 818.572 136.008 819.421 136.008C820.585 136.008 821.64 135.899 822.586 135.681C823.531 135.463 824.501 135.063 825.495 134.481L825.932 134.99C825.059 136.13 823.98 137.051 822.695 137.754C821.434 138.433 820.088 138.773 818.657 138.773C817.76 138.773 817.045 138.724 816.511 138.627C815.978 138.506 815.456 138.312 814.947 138.045V144.993L815.165 145.065C815.747 144.386 816.451 143.865 817.275 143.501C818.124 143.113 818.997 142.919 819.894 142.919C822.44 142.919 824.416 143.671 825.823 145.174C827.253 146.678 827.969 148.666 827.969 151.14C827.969 152.91 827.557 154.51 826.732 155.941C825.932 157.371 824.853 158.499 823.495 159.323C822.137 160.124 820.646 160.524 819.021 160.524ZM840.92 160.524C839.199 160.524 837.671 159.905 836.337 158.669C835.004 157.432 833.961 155.82 833.209 153.831C832.482 151.819 832.118 149.709 832.118 147.502C832.118 145.296 832.482 143.198 833.209 141.21C833.961 139.197 835.004 137.572 836.337 136.336C837.671 135.099 839.199 134.481 840.92 134.481C842.618 134.481 844.133 135.099 845.467 136.336C846.825 137.572 847.868 139.197 848.595 141.21C849.347 143.198 849.723 145.296 849.723 147.502C849.723 149.709 849.347 151.819 848.595 153.831C847.868 155.82 846.825 157.432 845.467 158.669C844.133 159.905 842.618 160.524 840.92 160.524ZM840.92 159.36C842.933 159.36 844.255 158.22 844.885 155.941C845.54 153.661 845.867 150.849 845.867 147.502C845.867 144.156 845.54 141.343 844.885 139.064C844.255 136.784 842.933 135.645 840.92 135.645C838.908 135.645 837.574 136.784 836.919 139.064C836.289 141.319 835.974 144.132 835.974 147.502C835.974 150.873 836.289 153.698 836.919 155.977C837.574 158.232 838.908 159.36 840.92 159.36Z" fill="#AE868A"/>
<path d="M578.502 160.524C576.926 160.524 575.532 160.039 574.319 159.069C573.131 158.099 572.21 156.717 571.555 154.922C570.9 153.104 570.573 150.97 570.573 148.521C570.573 146.532 570.828 144.58 571.337 142.665C571.846 140.749 572.586 139.161 573.556 137.9C575.326 135.62 577.399 134.481 579.775 134.481C581.497 134.481 582.891 135.063 583.958 136.227C584.322 136.663 584.577 137.148 584.722 137.682C584.892 138.215 584.977 138.688 584.977 139.1C584.977 139.949 584.674 140.64 584.067 141.173C583.655 141.537 583.158 141.719 582.576 141.719C582.018 141.719 581.582 141.501 581.267 141.064C581.145 140.894 581.06 140.737 581.012 140.591C580.988 140.446 580.976 140.252 580.976 140.009C580.976 139.646 581.133 139.282 581.448 138.918C581.667 138.676 581.897 138.47 582.14 138.3C582.358 138.154 582.503 138.009 582.576 137.863C582.673 137.694 582.722 137.5 582.722 137.281C582.722 136.845 582.467 136.469 581.958 136.154C581.473 135.814 580.721 135.645 579.703 135.645C578.83 135.645 577.993 135.899 577.193 136.408C576.417 136.918 575.762 137.766 575.229 138.955C574.816 139.852 574.501 140.979 574.283 142.337C574.065 143.695 573.956 144.835 573.956 145.756V147.393L574.21 147.502C574.647 146.581 575.314 145.829 576.211 145.247C577.132 144.641 578.017 144.338 578.866 144.338C580.491 144.338 581.861 144.738 582.976 145.538C583.922 146.217 584.649 147.139 585.159 148.302C585.668 149.442 585.922 150.667 585.922 151.976C585.922 153.286 585.631 154.607 585.049 155.941C584.467 157.25 583.607 158.341 582.467 159.214C581.351 160.087 580.03 160.524 578.502 160.524ZM578.502 159.36C579.981 159.36 581.048 158.657 581.703 157.25C582.382 155.844 582.722 154.243 582.722 152.449C582.722 150.509 582.431 148.897 581.849 147.611C581.267 146.326 580.297 145.684 578.939 145.684C578.09 145.684 577.326 145.962 576.647 146.52C575.968 147.078 575.423 147.878 575.01 148.921C574.622 149.939 574.428 151.115 574.428 152.449C574.428 154.462 574.744 156.123 575.374 157.432C576.005 158.717 577.047 159.36 578.502 159.36ZM599.31 160.524C597.589 160.524 596.061 159.905 594.727 158.669C593.394 157.432 592.351 155.82 591.599 153.831C590.872 151.819 590.508 149.709 590.508 147.502C590.508 145.296 590.872 143.198 591.599 141.21C592.351 139.197 593.394 137.572 594.727 136.336C596.061 135.099 597.589 134.481 599.31 134.481C601.008 134.481 602.523 135.099 603.857 136.336C605.215 137.572 606.258 139.197 606.985 141.21C607.737 143.198 608.113 145.296 608.113 147.502C608.113 149.709 607.737 151.819 606.985 153.831C606.258 155.82 605.215 157.432 603.857 158.669C602.523 159.905 601.008 160.524 599.31 160.524ZM599.31 159.36C601.323 159.36 602.645 158.22 603.275 155.941C603.93 153.661 604.257 150.849 604.257 147.502C604.257 144.156 603.93 141.343 603.275 139.064C602.645 136.784 601.323 135.645 599.31 135.645C597.298 135.645 595.964 136.784 595.309 139.064C594.679 141.319 594.364 144.132 594.364 147.502C594.364 150.873 594.679 153.698 595.309 155.977C595.964 158.232 597.298 159.36 599.31 159.36ZM620.41 160.524C618.688 160.524 617.16 159.905 615.827 158.669C614.493 157.432 613.45 155.82 612.699 153.831C611.971 151.819 611.607 149.709 611.607 147.502C611.607 145.296 611.971 143.198 612.699 141.21C613.45 139.197 614.493 137.572 615.827 136.336C617.16 135.099 618.688 134.481 620.41 134.481C622.107 134.481 623.623 135.099 624.956 136.336C626.314 137.572 627.357 139.197 628.084 141.21C628.836 143.198 629.212 145.296 629.212 147.502C629.212 149.709 628.836 151.819 628.084 153.831C627.357 155.82 626.314 157.432 624.956 158.669C623.623 159.905 622.107 160.524 620.41 160.524ZM620.41 159.36C622.422 159.36 623.744 158.22 624.374 155.941C625.029 153.661 625.356 150.849 625.356 147.502C625.356 144.156 625.029 141.343 624.374 139.064C623.744 136.784 622.422 135.645 620.41 135.645C618.397 135.645 617.063 136.784 616.409 139.064C615.778 141.319 615.463 144.132 615.463 147.502C615.463 150.873 615.778 153.698 616.409 155.977C617.063 158.232 618.397 159.36 620.41 159.36Z" fill="#AE868A"/>
<path d="M382.073 241.817C380.643 241.817 379.309 241.538 378.072 240.981C376.86 240.423 375.878 239.623 375.126 238.58C374.399 237.537 374.035 236.313 374.035 234.906C374.035 233.136 374.532 231.754 375.526 230.76C376.52 229.766 377.575 229.111 378.691 228.796V228.65L378.291 228.468C377.005 227.935 376.023 227.147 375.344 226.104C374.665 225.061 374.326 223.849 374.326 222.467C374.326 221.206 374.714 220.066 375.49 219.048C376.266 218.005 377.272 217.205 378.509 216.647C379.746 216.065 381.031 215.774 382.364 215.774C384.013 215.774 385.408 216.077 386.547 216.684C387.711 217.266 388.584 218.041 389.166 219.011C389.748 219.957 390.039 220.963 390.039 222.03C390.039 223.34 389.615 224.48 388.766 225.449C387.942 226.395 386.972 227.123 385.856 227.632V227.777L386.693 228.105C389.554 229.269 390.985 231.099 390.985 233.597C390.985 235.1 390.633 236.483 389.93 237.744C389.251 238.98 388.233 239.974 386.875 240.726C385.541 241.454 383.941 241.817 382.073 241.817ZM384.801 227.377C385.868 226.795 386.62 226.08 387.057 225.231C387.493 224.383 387.711 223.388 387.711 222.249C387.711 221.254 387.469 220.357 386.984 219.557C386.499 218.733 385.844 218.09 385.02 217.629C384.219 217.169 383.334 216.938 382.364 216.938C380.861 216.938 379.588 217.363 378.545 218.211C377.527 219.06 377.018 220.187 377.018 221.594C377.018 222.612 377.26 223.425 377.745 224.031C378.254 224.637 379.042 225.158 380.109 225.595L384.801 227.377ZM382.474 240.653C383.807 240.653 384.898 240.375 385.747 239.817C386.596 239.259 387.202 238.592 387.566 237.816C387.954 237.016 388.148 236.264 388.148 235.561C388.148 234.203 387.845 233.197 387.238 232.542C386.656 231.887 385.796 231.33 384.656 230.869L379.746 229.087C378.751 229.499 377.975 230.154 377.418 231.051C376.86 231.948 376.581 233.258 376.581 234.979C376.581 236.919 377.163 238.35 378.327 239.271C379.515 240.193 380.897 240.653 382.474 240.653ZM403.5 241.817C401.778 241.817 400.251 241.199 398.917 239.962C397.583 238.726 396.541 237.113 395.789 235.125C395.061 233.112 394.698 231.002 394.698 228.796C394.698 226.589 395.061 224.492 395.789 222.503C396.541 220.491 397.583 218.866 398.917 217.629C400.251 216.393 401.778 215.774 403.5 215.774C405.197 215.774 406.713 216.393 408.047 217.629C409.405 218.866 410.447 220.491 411.175 222.503C411.926 224.492 412.302 226.589 412.302 228.796C412.302 231.002 411.926 233.112 411.175 235.125C410.447 237.113 409.405 238.726 408.047 239.962C406.713 241.199 405.197 241.817 403.5 241.817ZM403.5 240.653C405.513 240.653 406.834 239.514 407.465 237.234C408.119 234.955 408.447 232.142 408.447 228.796C408.447 225.449 408.119 222.637 407.465 220.357C406.834 218.078 405.513 216.938 403.5 216.938C401.487 216.938 400.154 218.078 399.499 220.357C398.868 222.612 398.553 225.425 398.553 228.796C398.553 232.166 398.868 234.991 399.499 237.271C400.154 239.526 401.487 240.653 403.5 240.653ZM424.599 241.817C422.878 241.817 421.35 241.199 420.016 239.962C418.682 238.726 417.64 237.113 416.888 235.125C416.161 233.112 415.797 231.002 415.797 228.796C415.797 226.589 416.161 224.492 416.888 222.503C417.64 220.491 418.682 218.866 420.016 217.629C421.35 216.393 422.878 215.774 424.599 215.774C426.297 215.774 427.812 216.393 429.146 217.629C430.504 218.866 431.546 220.491 432.274 222.503C433.026 224.492 433.401 226.589 433.401 228.796C433.401 231.002 433.026 233.112 432.274 235.125C431.546 237.113 430.504 238.726 429.146 239.962C427.812 241.199 426.297 241.817 424.599 241.817ZM424.599 240.653C426.612 240.653 427.933 239.514 428.564 237.234C429.219 234.955 429.546 232.142 429.546 228.796C429.546 225.449 429.219 222.637 428.564 220.357C427.933 218.078 426.612 216.938 424.599 216.938C422.587 216.938 421.253 218.078 420.598 220.357C419.968 222.612 419.652 225.425 419.652 228.796C419.652 232.166 419.968 234.991 420.598 237.271C421.253 239.526 422.587 240.653 424.599 240.653Z" fill="#AE868A"/>
<path d="M227.465 395.16C225.743 395.16 224.349 394.578 223.282 393.414C222.918 392.978 222.651 392.493 222.482 391.96C222.336 391.426 222.263 390.953 222.263 390.541C222.263 389.692 222.566 389.001 223.173 388.468C223.609 388.104 224.106 387.922 224.664 387.922C225.222 387.922 225.658 388.14 225.973 388.577C226.095 388.747 226.167 388.904 226.192 389.05C226.24 389.195 226.264 389.389 226.264 389.632C226.264 389.995 226.107 390.359 225.791 390.723C225.573 390.965 225.343 391.171 225.1 391.341C224.882 391.487 224.725 391.644 224.628 391.814C224.555 391.96 224.518 392.141 224.518 392.36C224.518 392.796 224.761 393.184 225.246 393.524C225.755 393.839 226.519 393.996 227.537 393.996C228.41 393.996 229.235 393.742 230.011 393.233C230.811 392.723 231.478 391.875 232.011 390.686C232.423 389.789 232.739 388.662 232.957 387.304C233.175 385.922 233.284 384.782 233.284 383.885V382.248L233.03 382.139C232.593 383.06 231.914 383.824 230.993 384.43C230.096 385.012 229.223 385.303 228.374 385.303C226.749 385.303 225.379 384.903 224.264 384.103C223.318 383.424 222.591 382.515 222.081 381.375C221.572 380.211 221.318 378.974 221.318 377.665C221.318 376.355 221.609 375.046 222.191 373.737C222.772 372.403 223.621 371.3 224.737 370.427C225.876 369.554 227.21 369.117 228.738 369.117C230.314 369.117 231.696 369.602 232.884 370.572C234.097 371.542 235.03 372.936 235.685 374.755C236.34 376.549 236.667 378.671 236.667 381.12C236.667 383.109 236.412 385.061 235.903 386.976C235.394 388.892 234.654 390.48 233.684 391.741C231.914 394.021 229.841 395.16 227.465 395.16ZM228.301 383.957C229.15 383.957 229.914 383.679 230.593 383.121C231.272 382.563 231.805 381.775 232.193 380.757C232.605 379.714 232.811 378.526 232.811 377.192C232.811 375.179 232.496 373.531 231.866 372.245C231.235 370.936 230.193 370.281 228.738 370.281C227.258 370.281 226.179 370.984 225.5 372.391C224.846 373.797 224.518 375.398 224.518 377.192C224.518 379.132 224.809 380.744 225.391 382.03C225.973 383.315 226.943 383.957 228.301 383.957ZM249.328 395.16C247.97 395.16 246.794 394.93 245.799 394.469C244.805 393.984 244.041 393.342 243.508 392.541C242.974 391.717 242.708 390.808 242.708 389.814C242.708 388.674 242.999 387.801 243.581 387.195C244.163 386.588 244.842 386.285 245.618 386.285C246.272 386.285 246.782 386.491 247.145 386.904C247.533 387.292 247.727 387.789 247.727 388.395C247.727 388.807 247.606 389.195 247.363 389.559C247.121 389.898 246.806 390.153 246.418 390.323C246.078 390.492 245.812 390.662 245.618 390.832C245.424 391.002 245.327 391.232 245.327 391.523C245.327 392.299 245.63 392.905 246.236 393.342C246.842 393.778 247.873 393.996 249.328 393.996C251.122 393.996 252.419 393.22 253.22 391.669C254.02 390.117 254.42 388.152 254.42 385.776C254.42 383.545 254.032 381.836 253.256 380.648C252.48 379.459 251.219 378.865 249.473 378.865C248.77 378.865 248.164 378.974 247.654 379.193C247.145 379.387 246.624 379.75 246.09 380.284C245.848 380.526 245.642 380.854 245.472 381.266C245.327 381.654 245.254 381.993 245.254 382.284C245.254 382.551 245.181 382.769 245.036 382.939C244.914 383.109 244.745 383.194 244.526 383.194C244.138 383.194 243.944 382.891 243.944 382.284V369.736L244.745 369.117C245.254 369.554 245.993 369.917 246.963 370.208C247.958 370.499 248.879 370.645 249.728 370.645C250.892 370.645 251.946 370.536 252.892 370.318C253.838 370.099 254.808 369.699 255.802 369.117L256.239 369.626C255.366 370.766 254.286 371.688 253.001 372.391C251.74 373.07 250.395 373.409 248.964 373.409C248.067 373.409 247.351 373.361 246.818 373.264C246.284 373.143 245.763 372.949 245.254 372.682V379.629L245.472 379.702C246.054 379.023 246.757 378.501 247.582 378.138C248.43 377.75 249.303 377.556 250.201 377.556C252.747 377.556 254.723 378.308 256.129 379.811C257.56 381.314 258.275 383.303 258.275 385.776C258.275 387.546 257.863 389.147 257.039 390.577C256.239 392.008 255.159 393.136 253.802 393.96C252.444 394.76 250.952 395.16 249.328 395.16ZM271.227 395.16C269.505 395.16 267.978 394.542 266.644 393.305C265.31 392.069 264.268 390.456 263.516 388.468C262.788 386.455 262.425 384.345 262.425 382.139C262.425 379.932 262.788 377.835 263.516 375.846C264.268 373.834 265.31 372.209 266.644 370.972C267.978 369.736 269.505 369.117 271.227 369.117C272.924 369.117 274.44 369.736 275.774 370.972C277.132 372.209 278.174 373.834 278.902 375.846C279.653 377.835 280.029 379.932 280.029 382.139C280.029 384.345 279.653 386.455 278.902 388.468C278.174 390.456 277.132 392.069 275.774 393.305C274.44 394.542 272.924 395.16 271.227 395.16ZM271.227 393.996C273.24 393.996 274.561 392.857 275.192 390.577C275.846 388.298 276.174 385.485 276.174 382.139C276.174 378.792 275.846 375.98 275.192 373.7C274.561 371.421 273.24 370.281 271.227 370.281C269.214 370.281 267.881 371.421 267.226 373.7C266.596 375.955 266.28 378.768 266.28 382.139C266.28 385.509 266.596 388.334 267.226 390.614C267.881 392.869 269.214 393.996 271.227 393.996Z" fill="#AE868A"/>
<path d="M1.36425 705C1.36425 316.385 316.385 1.36394 705 1.36394C1093.62 1.36394 1408.64 316.385 1408.64 705" stroke="#FE42AA" stroke-width="2.69767" stroke-miterlimit="71.43"/>
<g filter="url(#filter0_d_9_722)">
<path d="M553.41 621.458L654.295 704.056L714.737 719.663L673.115 673.14L553.41 621.458Z" fill="#FDFDFD"/>
</g>
</g>
<defs>
<filter id="filter0_d_9_722" x="553.41" y="621.458" width="162.775" height="101.1" filterUnits="userSpaceOnUse" color-interpolation-filters="sRGB">
<feFlood flood-opacity="0" result="BackgroundImageFix"/>
<feColorMatrix in="SourceAlpha" type="matrix" values="0 0 0 0 0 0 0 0 0 0 0 0 0 0 0 0 0 0 127 0" result="hardAlpha"/>
<feOffset dx="1.44777" dy="2.89554"/>
<feComposite in2="hardAlpha" operator="out"/>
<feColorMatrix type="matrix" values="0 0 0 0 0.564706 0 0 0 0 0.486275 0 0 0 0 0.494118 0 0 0 1 0"/>
<feBlend mode="normal" in2="BackgroundImageFix" result="effect1_dropShadow_9_722"/>
<feBlend mode="normal" in="SourceGraphic" in2="effect1_dropShadow_9_722" result="shape"/>
</filter>
<clipPath id="clip0_9_722">
<rect width="1410" height="705" fill="white"/>
</clipPath>
</defs>
</svg>
