<svg width="1440" height="201" viewBox="0 0 1440 201" fill="none" xmlns="http://www.w3.org/2000/svg">
<path d="M214.082 110.146C206.536 110.146 199.382 107.549 192.62 102.355C185.956 97.161 180.615 90.35 176.597 81.922C172.579 73.396 170.57 64.478 170.57 55.168C170.57 45.858 172.579 36.989 176.597 28.561C180.615 20.035 185.956 13.175 192.62 7.98099C199.382 2.787 206.536 0.189997 214.082 0.189997C221.628 0.189997 228.733 2.787 235.397 7.98099C242.159 13.175 247.549 20.035 251.567 28.561C255.585 36.989 257.594 45.858 257.594 55.168C257.594 64.478 255.585 73.396 251.567 81.922C247.549 90.35 242.159 97.161 235.397 102.355C228.733 107.549 221.628 110.146 214.082 110.146ZM214.082 105.442C220.06 105.442 224.617 103.286 227.753 98.974C230.987 94.564 232.604 87.312 232.604 77.218V33.118C232.604 23.024 230.987 15.821 227.753 11.509C224.617 7.099 220.06 4.894 214.082 4.894C208.104 4.894 203.498 7.099 200.264 11.509C197.128 15.821 195.56 23.024 195.56 33.118V77.218C195.56 87.312 197.128 94.564 200.264 98.974C203.498 103.286 208.104 105.442 214.082 105.442ZM268.754 103.972H276.986C277.868 103.972 278.456 103.825 278.75 103.531C279.142 103.139 279.338 102.502 279.338 101.62V8.71599C279.338 7.83399 279.142 7.24599 278.75 6.952C278.456 6.56 277.868 6.364 276.986 6.364H268.754V2.836H296.39V101.62C296.39 102.502 296.537 103.139 296.831 103.531C297.223 103.825 297.86 103.972 298.742 103.972H306.974V107.5H268.754V103.972ZM343.667 109.264C338.571 109.264 334.014 107.549 329.996 104.119C325.978 100.591 322.842 96.034 320.588 90.448C318.334 84.764 317.207 78.835 317.207 72.661C317.207 66.389 318.285 60.46 320.441 54.874C322.597 49.288 325.635 44.78 329.555 41.35C333.475 37.822 337.983 36.058 343.079 36.058C346.215 36.058 349.008 36.989 351.458 38.851C353.908 40.713 355.917 43.261 357.485 46.495L358.367 46.201V8.71599C358.367 7.83399 358.171 7.24599 357.779 6.952C357.485 6.56 356.897 6.364 356.015 6.364H347.783V2.836H375.419V101.62C375.419 102.502 375.566 103.139 375.86 103.531C376.252 103.825 376.889 103.972 377.771 103.972H386.003V107.5H358.367V98.974H357.485C356.211 101.718 354.349 104.119 351.899 106.177C349.547 108.235 346.803 109.264 343.667 109.264ZM345.725 104.56C347.979 104.56 350.037 103.188 351.899 100.444C353.859 97.602 355.427 93.78 356.603 88.978C357.779 84.176 358.367 78.884 358.367 73.102C358.367 66.046 357.681 60.068 356.309 55.168C354.937 50.268 353.271 46.642 351.311 44.29C349.351 41.938 347.489 40.762 345.725 40.762C339.257 40.762 336.023 51.395 336.023 72.661C336.023 93.927 339.257 104.56 345.725 104.56ZM481.459 110.146C477.147 110.146 473.276 109.509 469.846 108.235C466.416 107.059 463.574 105.54 461.32 103.678C459.066 102.012 457.449 100.885 456.469 100.297C455.489 99.611 454.558 99.268 453.676 99.268C451.618 99.268 450.344 100.934 449.854 104.266L449.119 108.97H444.562L443.68 62.518H448.384C449.756 69.966 452.059 76.973 455.293 83.539C458.625 90.105 462.594 95.397 467.2 99.415C471.904 103.433 476.951 105.442 482.341 105.442C490.083 105.442 495.375 103.727 498.217 100.297C501.059 96.867 502.48 92.996 502.48 88.684C502.48 86.136 501.549 83.882 499.687 81.922C497.923 79.864 495.326 77.708 491.896 75.454L460.438 55.168C455.832 52.228 451.912 48.553 448.678 44.143C445.542 39.733 443.974 34.49 443.974 28.414C443.974 18.908 446.718 11.852 452.206 7.24599C457.792 2.542 464.652 0.189997 472.786 0.189997C479.744 0.189997 486.702 2.64 493.66 7.54C495.914 9.30399 497.678 10.186 498.952 10.186C500.716 10.186 501.794 9.05899 502.186 6.80499L503.068 2.836H507.772L509.242 41.056H504.538C502.676 34.294 500.079 28.169 496.747 22.681C493.415 17.193 489.544 12.881 485.134 9.745C480.822 6.511 476.314 4.894 471.61 4.894C466.416 4.894 462.545 5.923 459.997 7.98099C457.547 10.039 456.322 13.126 456.322 17.242C456.322 22.828 460.683 28.463 469.405 34.147L501.01 54.58C505.028 57.226 508.213 60.852 510.565 65.458C513.015 70.064 514.24 74.866 514.24 79.864C514.24 84.96 513.015 89.811 510.565 94.417C508.115 99.023 504.44 102.796 499.54 105.736C494.64 108.676 488.613 110.146 481.459 110.146ZM552.771 109.264C546.597 109.264 541.795 107.696 538.365 104.56C535.033 101.326 533.367 96.818 533.367 91.036V41.938H524.547V37.822C530.329 37.038 534.886 34.637 538.218 30.619C541.648 26.601 543.363 21.358 543.363 14.89V9.598H550.419V37.822H565.413V41.938H550.419V92.065C550.419 95.299 550.86 97.896 551.742 99.856C552.624 101.816 554.437 102.796 557.181 102.796C561.297 102.796 564.041 100.003 565.413 94.417C566.785 88.733 567.471 82.412 567.471 75.454H571.587C571.587 81.04 571.195 86.185 570.411 90.889C569.725 95.593 568.598 99.219 567.03 101.767C563.894 106.765 559.141 109.264 552.771 109.264ZM601.319 109.264C595.929 109.264 591.323 107.941 587.501 105.295C583.777 102.649 581.915 98.19 581.915 91.918C581.915 85.548 584.218 80.55 588.824 76.924C593.528 73.2 599.457 70.113 606.611 67.663L617.489 63.841V53.845C617.489 48.847 616.46 45.221 614.402 42.967C612.344 40.713 609.698 39.586 606.464 39.586C603.72 39.586 601.319 40.223 599.261 41.497C597.301 42.673 596.321 44.339 596.321 46.495C596.321 47.083 596.468 47.818 596.762 48.7C597.154 49.484 597.791 50.17 598.673 50.758C600.143 51.64 601.172 52.571 601.76 53.551C602.446 54.531 602.789 55.805 602.789 57.373C602.789 59.725 601.907 61.587 600.143 62.959C598.477 64.233 596.615 64.87 594.557 64.87C592.009 64.87 589.804 64.037 587.942 62.371C586.178 60.607 585.296 58.108 585.296 54.874C585.296 51.15 586.423 47.867 588.677 45.025C590.931 42.085 593.822 39.88 597.35 38.41C600.878 36.842 604.455 36.058 608.081 36.058C615.137 36.058 621.311 37.969 626.603 41.791C631.895 45.515 634.541 51.493 634.541 59.725V96.916C634.541 100.444 635.521 102.208 637.481 102.208C639.245 102.208 640.568 100.738 641.45 97.798C642.332 94.858 642.773 91.477 642.773 87.655H646.889C646.889 94.809 645.811 100.052 643.655 103.384C642.577 105.148 641.058 106.569 639.098 107.647C637.138 108.725 634.884 109.264 632.336 109.264C628.318 109.264 625.28 108.676 623.222 107.5C621.164 106.226 619.449 104.168 618.077 101.326H617.783C613.863 106.618 608.375 109.264 601.319 109.264ZM608.522 103.384C612.344 103.384 615.333 101.228 617.489 96.916V67.81L609.257 70.75C606.023 71.926 603.622 74.18 602.054 77.512C600.584 80.746 599.849 85.107 599.849 90.595C599.849 95.397 600.731 98.729 602.495 100.591C604.259 102.453 606.268 103.384 608.522 103.384ZM655.682 103.972H661.268C662.15 103.972 662.738 103.825 663.032 103.531C663.424 103.139 663.62 102.502 663.62 101.62V43.702C663.62 42.82 663.424 42.232 663.032 41.938C662.738 41.546 662.15 41.35 661.268 41.35H655.682V37.822H680.672V50.905L681.407 51.052C683.367 46.446 685.866 42.82 688.904 40.174C692.04 37.43 695.617 36.058 699.635 36.058C702.085 36.058 704.192 36.352 705.956 36.94C707.72 37.43 709.386 38.214 710.954 39.292C713.404 41.056 715.315 43.506 716.687 46.642C718.157 49.778 718.892 53.012 718.892 56.344V101.62C718.892 102.502 719.039 103.139 719.333 103.531C719.725 103.825 720.362 103.972 721.244 103.972H726.83V107.5H694.784V103.972H699.488C700.37 103.972 700.958 103.825 701.252 103.531C701.644 103.139 701.84 102.502 701.84 101.62V52.081C701.84 44.535 699.586 40.762 695.078 40.762C693.02 40.762 690.864 42.134 688.61 44.878C686.356 47.622 684.445 51.248 682.877 55.756C681.407 60.264 680.672 65.066 680.672 70.162V101.62C680.672 102.502 680.819 103.139 681.113 103.531C681.505 103.825 682.142 103.972 683.024 103.972H687.728V107.5H655.682V103.972ZM765 109.264C759.904 109.264 755.347 107.549 751.329 104.119C747.311 100.591 744.175 96.034 741.921 90.448C739.667 84.764 738.54 78.835 738.54 72.661C738.54 66.389 739.618 60.46 741.774 54.874C743.93 49.288 746.968 44.78 750.888 41.35C754.808 37.822 759.316 36.058 764.412 36.058C767.548 36.058 770.341 36.989 772.791 38.851C775.241 40.713 777.25 43.261 778.818 46.495L779.7 46.201V8.71599C779.7 7.83399 779.504 7.24599 779.112 6.952C778.818 6.56 778.23 6.364 777.348 6.364H769.116V2.836H796.752V101.62C796.752 102.502 796.899 103.139 797.193 103.531C797.585 103.825 798.222 103.972 799.104 103.972H807.336V107.5H779.7V98.974H778.818C777.544 101.718 775.682 104.119 773.232 106.177C770.88 108.235 768.136 109.264 765 109.264ZM767.058 104.56C769.312 104.56 771.37 103.188 773.232 100.444C775.192 97.602 776.76 93.78 777.936 88.978C779.112 84.176 779.7 78.884 779.7 73.102C779.7 66.046 779.014 60.068 777.642 55.168C776.27 50.268 774.604 46.642 772.644 44.29C770.684 41.938 768.822 40.762 767.058 40.762C760.59 40.762 757.356 51.395 757.356 72.661C757.356 93.927 760.59 104.56 767.058 104.56ZM836.749 109.264C831.359 109.264 826.753 107.941 822.931 105.295C819.207 102.649 817.345 98.19 817.345 91.918C817.345 85.548 819.648 80.55 824.254 76.924C828.958 73.2 834.887 70.113 842.041 67.663L852.919 63.841V53.845C852.919 48.847 851.89 45.221 849.832 42.967C847.774 40.713 845.128 39.586 841.894 39.586C839.15 39.586 836.749 40.223 834.691 41.497C832.731 42.673 831.751 44.339 831.751 46.495C831.751 47.083 831.898 47.818 832.192 48.7C832.584 49.484 833.221 50.17 834.103 50.758C835.573 51.64 836.602 52.571 837.19 53.551C837.876 54.531 838.219 55.805 838.219 57.373C838.219 59.725 837.337 61.587 835.573 62.959C833.907 64.233 832.045 64.87 829.987 64.87C827.439 64.87 825.234 64.037 823.372 62.371C821.608 60.607 820.726 58.108 820.726 54.874C820.726 51.15 821.853 47.867 824.107 45.025C826.361 42.085 829.252 39.88 832.78 38.41C836.308 36.842 839.885 36.058 843.511 36.058C850.567 36.058 856.741 37.969 862.033 41.791C867.325 45.515 869.971 51.493 869.971 59.725V96.916C869.971 100.444 870.951 102.208 872.911 102.208C874.675 102.208 875.998 100.738 876.88 97.798C877.762 94.858 878.203 91.477 878.203 87.655H882.319C882.319 94.809 881.241 100.052 879.085 103.384C878.007 105.148 876.488 106.569 874.528 107.647C872.568 108.725 870.314 109.264 867.766 109.264C863.748 109.264 860.71 108.676 858.652 107.5C856.594 106.226 854.879 104.168 853.507 101.326H853.213C849.293 106.618 843.805 109.264 836.749 109.264ZM843.952 103.384C847.774 103.384 850.763 101.228 852.919 96.916V67.81L844.687 70.75C841.453 71.926 839.052 74.18 837.484 77.512C836.014 80.746 835.279 85.107 835.279 90.595C835.279 95.397 836.161 98.729 837.925 100.591C839.689 102.453 841.698 103.384 843.952 103.384ZM891.111 103.972H896.697C897.579 103.972 898.167 103.825 898.461 103.531C898.853 103.139 899.049 102.502 899.049 101.62V43.702C899.049 42.82 898.853 42.232 898.461 41.938C898.167 41.546 897.579 41.35 896.697 41.35H891.111V37.822H916.101V52.375L916.836 52.522C918.404 48.014 920.609 44.143 923.451 40.909C926.391 37.675 929.625 36.058 933.153 36.058C936.681 36.058 939.572 37.332 941.826 39.88C944.08 42.428 945.207 45.662 945.207 49.582C945.207 53.208 944.178 56.344 942.12 58.99C940.062 61.538 937.514 62.812 934.476 62.812C931.83 62.812 929.576 62.028 927.714 60.46C925.852 58.794 924.921 56.785 924.921 54.433C924.921 52.081 926.097 49.533 928.449 46.789C929.821 45.221 930.507 44.094 930.507 43.408C930.507 42.428 929.968 41.938 928.89 41.938C926.93 41.938 924.921 43.359 922.863 46.201C920.903 49.043 919.286 52.767 918.012 57.373C916.738 61.979 916.101 66.879 916.101 72.073V101.62C916.101 102.502 916.248 103.139 916.542 103.531C916.934 103.825 917.571 103.972 918.453 103.972H923.157V107.5H891.111V103.972ZM982.486 109.264C977.39 109.264 972.833 107.549 968.815 104.119C964.797 100.591 961.661 96.034 959.407 90.448C957.153 84.764 956.026 78.835 956.026 72.661C956.026 66.389 957.104 60.46 959.26 54.874C961.416 49.288 964.454 44.78 968.374 41.35C972.294 37.822 976.802 36.058 981.898 36.058C985.034 36.058 987.827 36.989 990.277 38.851C992.727 40.713 994.736 43.261 996.304 46.495L997.186 46.201V8.71599C997.186 7.83399 996.99 7.24599 996.598 6.952C996.304 6.56 995.716 6.364 994.834 6.364H986.602V2.836H1014.24V101.62C1014.24 102.502 1014.38 103.139 1014.68 103.531C1015.07 103.825 1015.71 103.972 1016.59 103.972H1024.82V107.5H997.186V98.974H996.304C995.03 101.718 993.168 104.119 990.718 106.177C988.366 108.235 985.622 109.264 982.486 109.264ZM984.544 104.56C986.798 104.56 988.856 103.188 990.718 100.444C992.678 97.602 994.246 93.78 995.422 88.978C996.598 84.176 997.186 78.884 997.186 73.102C997.186 66.046 996.5 60.068 995.128 55.168C993.756 50.268 992.09 46.642 990.13 44.29C988.17 41.938 986.308 40.762 984.544 40.762C978.076 40.762 974.842 51.395 974.842 72.661C974.842 93.927 978.076 104.56 984.544 104.56ZM1097.2 102.796H1108.96C1110.33 102.796 1111.26 102.551 1111.75 102.061C1112.24 101.473 1112.49 100.542 1112.49 99.268V12.538C1112.49 10.97 1112 9.74499 1111.02 8.863C1110.04 7.981 1108.71 7.54 1107.05 7.54C1102.44 7.54 1098.23 10.088 1094.41 15.184C1090.58 20.182 1087.74 26.062 1085.88 32.824C1084.8 36.45 1084.02 39.537 1083.53 42.085C1083.14 44.535 1082.89 46.054 1082.79 46.642H1078.09L1079.26 2.836H1167.46L1168.64 46.642H1163.94C1163.84 46.054 1163.54 44.535 1163.05 42.085C1162.66 39.537 1161.93 36.45 1160.85 32.824C1158.99 26.062 1156.15 20.182 1152.32 15.184C1148.5 10.088 1144.29 7.54 1139.68 7.54C1138.02 7.54 1136.69 7.981 1135.71 8.863C1134.73 9.74499 1134.24 10.97 1134.24 12.538V99.268C1134.24 100.542 1134.49 101.473 1134.98 102.061C1135.57 102.551 1136.5 102.796 1137.77 102.796H1149.53V107.5H1097.2V102.796ZM1202.42 102.796H1214.18C1215.56 102.796 1216.49 102.551 1216.98 102.061C1217.47 101.473 1217.71 100.542 1217.71 99.268V12.538C1217.71 10.97 1217.22 9.74499 1216.24 8.863C1215.26 7.981 1213.94 7.54 1212.27 7.54C1207.67 7.54 1203.45 10.088 1199.63 15.184C1195.81 20.182 1192.97 26.062 1191.11 32.824C1190.03 36.45 1189.24 39.537 1188.75 42.085C1188.36 44.535 1188.12 46.054 1188.02 46.642H1183.31L1184.49 2.836H1272.69L1273.87 46.642H1269.16C1269.06 46.054 1268.77 44.535 1268.28 42.085C1267.89 39.537 1267.15 36.45 1266.08 32.824C1264.21 26.062 1261.37 20.182 1257.55 15.184C1253.73 10.088 1249.51 7.54 1244.91 7.54C1243.24 7.54 1241.92 7.981 1240.94 8.863C1239.96 9.74499 1239.47 10.97 1239.47 12.538V99.268C1239.47 100.542 1239.71 101.473 1240.2 102.061C1240.79 102.551 1241.72 102.796 1243 102.796H1254.76V107.5H1202.42V102.796Z" fill="#FE42AA"/>
<path d="M397.427 183.608H399.863C400.327 183.608 400.655 183.511 400.849 183.318C401.042 183.125 401.139 182.796 401.139 182.332V161.22C401.139 160.756 401.042 160.427 400.849 160.234C400.655 160.041 400.327 159.944 399.863 159.944H397.427V158.552H409.027V159.944H406.591C406.127 159.944 405.798 160.041 405.605 160.234C405.411 160.427 405.315 160.756 405.315 161.22V182.332C405.315 182.796 405.411 183.125 405.605 183.318C405.798 183.511 406.127 183.608 406.591 183.608H413.899C414.363 183.608 414.691 183.511 414.885 183.318C415.078 183.125 415.175 182.796 415.175 182.332V161.22C415.175 160.756 415.078 160.427 414.885 160.234C414.691 160.041 414.363 159.944 413.899 159.944H411.463V158.552H423.063V159.944H420.627C420.163 159.944 419.834 160.041 419.641 160.234C419.447 160.427 419.351 160.756 419.351 161.22V182.332C419.351 182.796 419.447 183.125 419.641 183.318C419.834 183.511 420.163 183.608 420.627 183.608H427.935C428.399 183.608 428.727 183.511 428.921 183.318C429.114 183.125 429.211 182.796 429.211 182.332V161.22C429.211 160.756 429.114 160.427 428.921 160.234C428.727 160.041 428.399 159.944 427.935 159.944H425.499V158.552H437.099V159.944H434.663C434.199 159.944 433.87 160.041 433.677 160.234C433.483 160.427 433.387 160.756 433.387 161.22V182.332C433.387 182.796 433.483 183.125 433.677 183.318C433.87 183.511 434.199 183.608 434.663 183.608H437.099V185H397.427V183.608ZM441.026 196.948H444.042C444.506 196.948 444.835 196.851 445.028 196.658C445.222 196.465 445.318 196.136 445.318 195.672V161.22C445.318 160.756 445.222 160.427 445.028 160.234C444.835 160.041 444.506 159.944 444.042 159.944H441.026V158.552H449.494V162.844L449.726 162.902C450.461 161.355 451.389 160.137 452.51 159.248C453.67 158.32 454.985 157.856 456.454 157.856C458.272 157.856 459.954 158.475 461.5 159.712C463.086 160.911 464.342 162.573 465.27 164.7C466.198 166.827 466.662 169.185 466.662 171.776C466.662 174.367 466.198 176.725 465.27 178.852C464.342 180.979 463.086 182.661 461.5 183.898C459.954 185.097 458.272 185.696 456.454 185.696C454.946 185.696 453.593 185.213 452.394 184.246C451.196 183.241 450.306 182.042 449.726 180.65L449.494 180.708V195.672C449.494 196.136 449.591 196.465 449.784 196.658C449.978 196.851 450.306 196.948 450.77 196.948H453.786V198.34H441.026V196.948ZM455.816 184.072C457.711 184.072 459.142 183.009 460.108 180.882C461.075 178.755 461.558 175.72 461.558 171.776C461.558 167.832 461.075 164.797 460.108 162.67C459.142 160.543 457.711 159.48 455.816 159.48C454.656 159.48 453.593 159.905 452.626 160.756C451.66 161.607 450.886 162.786 450.306 164.294C449.765 165.763 449.494 167.368 449.494 169.108V174.444C449.494 176.184 449.765 177.808 450.306 179.316C450.886 180.785 451.66 181.945 452.626 182.796C453.593 183.647 454.656 184.072 455.816 184.072ZM471.626 183.608H474.062C474.526 183.608 474.855 183.511 475.048 183.318C475.241 183.125 475.338 182.796 475.338 182.332V161.22C475.338 160.756 475.241 160.427 475.048 160.234C474.855 160.041 474.526 159.944 474.062 159.944H471.626V158.552H483.226V159.944H480.79C480.326 159.944 479.997 160.041 479.804 160.234C479.611 160.427 479.514 160.756 479.514 161.22V178.272L490.534 162.728V161.22C490.534 160.756 490.437 160.427 490.244 160.234C490.051 160.041 489.722 159.944 489.258 159.944H486.822V158.552H498.422V159.944H495.986C495.522 159.944 495.193 160.041 495 160.234C494.807 160.427 494.71 160.756 494.71 161.22V182.332C494.71 182.796 494.807 183.125 495 183.318C495.193 183.511 495.522 183.608 495.986 183.608H498.422V185H486.822V183.608H489.258C489.722 183.608 490.051 183.511 490.244 183.318C490.437 183.125 490.534 182.796 490.534 182.332V165.28L479.514 180.824V182.332C479.514 182.796 479.611 183.125 479.804 183.318C479.997 183.511 480.326 183.608 480.79 183.608H483.226V185H471.626V183.608ZM514.203 198.108C515.518 196.445 516.446 194.725 516.987 192.946C517.528 191.167 517.799 189.176 517.799 186.972V181.694H517.683C517.296 182.815 516.658 183.763 515.769 184.536C514.88 185.309 513.778 185.696 512.463 185.696C510.568 185.696 508.925 185.019 507.533 183.666C506.18 182.274 505.155 180.515 504.459 178.388C503.763 176.261 503.415 174.057 503.415 171.776C503.415 169.495 503.763 167.291 504.459 165.164C505.155 163.037 506.18 161.297 507.533 159.944C508.925 158.552 510.568 157.856 512.463 157.856C513.778 157.856 514.86 158.281 515.711 159.132C516.562 159.983 517.219 161.046 517.683 162.322H517.799V156.928C517.799 154.724 517.528 152.733 516.987 150.954C516.446 149.175 515.518 147.455 514.203 145.792L514.899 145.096C515.788 145.831 516.794 147.029 517.915 148.692C519.036 150.355 519.694 151.863 519.887 153.216C520.08 151.863 520.738 150.355 521.859 148.692C522.98 147.029 523.986 145.831 524.875 145.096L525.571 145.792C524.256 147.455 523.328 149.175 522.787 150.954C522.246 152.733 521.975 154.724 521.975 156.928V162.322H522.091C522.555 161.046 523.212 159.983 524.063 159.132C524.952 158.281 526.035 157.856 527.311 157.856C529.206 157.856 530.83 158.552 532.183 159.944C533.575 161.297 534.619 163.037 535.315 165.164C536.011 167.291 536.359 169.495 536.359 171.776C536.359 174.057 536.011 176.261 535.315 178.388C534.619 180.515 533.575 182.274 532.183 183.666C530.83 185.019 529.206 185.696 527.311 185.696C525.996 185.696 524.894 185.309 524.005 184.536C523.116 183.763 522.478 182.815 522.091 181.694H521.975V186.972C521.975 189.176 522.246 191.167 522.787 192.946C523.328 194.725 524.256 196.445 525.571 198.108L524.875 198.804C523.986 198.069 522.98 196.871 521.859 195.208C520.738 193.545 520.08 192.037 519.887 190.684C519.694 192.037 519.036 193.545 517.915 195.208C516.794 196.871 515.788 198.069 514.899 198.804L514.203 198.108ZM512.927 184.304C514.435 184.304 515.614 183.337 516.465 181.404C517.354 179.471 517.799 177.228 517.799 174.676V169.224C517.799 166.633 517.354 164.333 516.465 162.322C515.576 160.273 514.396 159.248 512.927 159.248C511.187 159.248 510.008 160.447 509.389 162.844C508.809 165.241 508.519 168.219 508.519 171.776C508.519 175.333 508.809 178.311 509.389 180.708C510.008 183.105 511.187 184.304 512.927 184.304ZM526.847 184.304C528.587 184.304 529.747 183.105 530.327 180.708C530.946 178.311 531.255 175.333 531.255 171.776C531.255 168.219 530.946 165.241 530.327 162.844C529.747 160.447 528.587 159.248 526.847 159.248C525.378 159.248 524.198 160.273 523.309 162.322C522.42 164.333 521.975 166.633 521.975 169.224V174.676C521.975 177.228 522.4 179.471 523.251 181.404C524.14 183.337 525.339 184.304 526.847 184.304ZM547.034 183.608H549.47C549.934 183.608 550.263 183.511 550.456 183.318C550.65 183.125 550.746 182.796 550.746 182.332V161.22C550.746 160.756 550.65 160.427 550.456 160.234C550.263 160.041 549.934 159.944 549.47 159.944C548.233 159.944 547.189 160.215 546.338 160.756C545.488 161.259 544.83 161.955 544.366 162.844C543.786 164.004 543.342 165.222 543.032 166.498C542.762 167.735 542.626 168.489 542.626 168.76H541.466L541.872 158.552H563.854L564.202 168.76H563.042C563.042 168.489 562.888 167.735 562.578 166.498C562.308 165.222 561.882 164.004 561.302 162.844C560.838 161.955 560.181 161.259 559.33 160.756C558.48 160.215 557.436 159.944 556.198 159.944C555.734 159.944 555.406 160.041 555.212 160.234C555.019 160.427 554.922 160.756 554.922 161.22V182.332C554.922 182.796 555.019 183.125 555.212 183.318C555.406 183.511 555.734 183.608 556.198 183.608H558.634V185H547.034V183.608ZM586.24 172.008V168.76H600.74V172.008H586.24ZM643.276 185.696C641.42 185.696 640.106 185.193 639.332 184.188C638.598 183.144 638.192 181.52 638.114 179.316C638.037 176.609 637.728 174.695 637.186 173.574C636.684 172.453 635.717 171.892 634.286 171.892H630.574V182.332C630.574 182.796 630.671 183.125 630.864 183.318C631.058 183.511 631.386 183.608 631.85 183.608H634.286V185H622.686V183.608H625.122C625.586 183.608 625.915 183.511 626.108 183.318C626.302 183.125 626.398 182.796 626.398 182.332V161.278C626.398 160.814 626.302 160.485 626.108 160.292C625.915 160.099 625.586 160.002 625.122 160.002H622.686V158.61H634.286V160.002H631.85C631.386 160.002 631.058 160.099 630.864 160.292C630.671 160.485 630.574 160.814 630.574 161.278V170.5H634.344C635.62 170.5 636.51 169.765 637.012 168.296C637.554 166.788 637.902 164.951 638.056 162.786C638.172 161.123 638.617 159.886 639.39 159.074C640.202 158.262 641.15 157.856 642.232 157.856C643.508 157.856 644.456 158.281 645.074 159.132C645.732 159.983 646.06 160.93 646.06 161.974C646.06 163.018 645.751 163.869 645.132 164.526C644.514 165.183 643.779 165.512 642.928 165.512C642.155 165.512 641.556 165.299 641.13 164.874C640.705 164.449 640.492 163.927 640.492 163.308C640.492 162.96 640.589 162.631 640.782 162.322C640.976 161.974 641.188 161.723 641.42 161.568C641.846 161.259 642.058 160.93 642.058 160.582C642.058 160.041 641.749 159.77 641.13 159.77C640.666 159.77 640.26 160.041 639.912 160.582C639.603 161.085 639.429 161.8 639.39 162.728C639.274 164.7 638.965 166.498 638.462 168.122C637.96 169.746 637.148 170.751 636.026 171.138V171.312C638.462 172.008 640.241 173.071 641.362 174.502C641.904 175.159 642.29 175.952 642.522 176.88C642.754 177.808 642.928 178.891 643.044 180.128C643.16 181.211 643.334 182.061 643.566 182.68C643.837 183.299 644.262 183.608 644.842 183.608C645.77 183.608 646.389 183.047 646.698 181.926C647.008 180.805 647.162 179.625 647.162 178.388H648.206C648.206 180.205 647.858 181.887 647.162 183.434C646.505 184.942 645.21 185.696 643.276 185.696ZM663.98 185.696C661.853 185.696 659.9 185.077 658.122 183.84C656.343 182.564 654.932 180.863 653.888 178.736C652.882 176.609 652.38 174.289 652.38 171.776C652.38 169.263 652.882 166.943 653.888 164.816C654.932 162.689 656.343 161.007 658.122 159.77C659.9 158.494 661.853 157.856 663.98 157.856C666.106 157.856 668.059 158.494 669.838 159.77C671.616 161.007 673.008 162.689 674.014 164.816C675.058 166.943 675.58 169.263 675.58 171.776C675.58 174.289 675.058 176.609 674.014 178.736C673.008 180.863 671.616 182.564 669.838 183.84C668.059 185.077 666.106 185.696 663.98 185.696ZM663.98 184.304C666.3 184.304 667.962 183.221 668.968 181.056C669.973 178.852 670.476 175.759 670.476 171.776C670.476 167.793 669.973 164.719 668.968 162.554C667.962 160.35 666.3 159.248 663.98 159.248C661.66 159.248 659.997 160.35 658.992 162.554C657.986 164.719 657.484 167.793 657.484 171.776C657.484 175.759 657.986 178.852 658.992 181.056C659.997 183.221 661.66 184.304 663.98 184.304ZM686.257 183.608H688.693C689.157 183.608 689.486 183.511 689.679 183.318C689.872 183.125 689.969 182.796 689.969 182.332V161.22C689.969 160.756 689.872 160.427 689.679 160.234C689.486 160.041 689.157 159.944 688.693 159.944C687.456 159.944 686.412 160.215 685.561 160.756C684.71 161.259 684.053 161.955 683.589 162.844C683.009 164.004 682.564 165.222 682.255 166.498C681.984 167.735 681.849 168.489 681.849 168.76H680.689L681.095 158.552H703.077L703.425 168.76H702.265C702.265 168.489 702.11 167.735 701.801 166.498C701.53 165.222 701.105 164.004 700.525 162.844C700.061 161.955 699.404 161.259 698.553 160.756C697.702 160.215 696.658 159.944 695.421 159.944C694.957 159.944 694.628 160.041 694.435 160.234C694.242 160.427 694.145 160.756 694.145 161.22V182.332C694.145 182.796 694.242 183.125 694.435 183.318C694.628 183.511 694.957 183.608 695.421 183.608H697.857V185H686.257V183.608ZM720.111 185.696C717.984 185.696 716.031 185.077 714.253 183.84C712.474 182.564 711.063 180.863 710.019 178.736C709.013 176.609 708.511 174.289 708.511 171.776C708.511 169.263 709.013 166.943 710.019 164.816C711.063 162.689 712.474 161.007 714.253 159.77C716.031 158.494 717.984 157.856 720.111 157.856C722.237 157.856 724.19 158.494 725.969 159.77C727.747 161.007 729.139 162.689 730.145 164.816C731.189 166.943 731.711 169.263 731.711 171.776C731.711 174.289 731.189 176.609 730.145 178.736C729.139 180.863 727.747 182.564 725.969 183.84C724.19 185.077 722.237 185.696 720.111 185.696ZM720.111 184.304C722.431 184.304 724.093 183.221 725.099 181.056C726.104 178.852 726.607 175.759 726.607 171.776C726.607 167.793 726.104 164.719 725.099 162.554C724.093 160.35 722.431 159.248 720.111 159.248C717.791 159.248 716.128 160.35 715.123 162.554C714.117 164.719 713.615 167.793 713.615 171.776C713.615 175.759 714.117 178.852 715.123 181.056C716.128 183.221 717.791 184.304 720.111 184.304ZM736.124 196.948H739.14C739.604 196.948 739.933 196.851 740.126 196.658C740.319 196.465 740.416 196.136 740.416 195.672V161.22C740.416 160.756 740.319 160.427 740.126 160.234C739.933 160.041 739.604 159.944 739.14 159.944H736.124V158.552H744.592V162.844L744.824 162.902C745.559 161.355 746.487 160.137 747.608 159.248C748.768 158.32 750.083 157.856 751.552 157.856C753.369 157.856 755.051 158.475 756.598 159.712C758.183 160.911 759.44 162.573 760.368 164.7C761.296 166.827 761.76 169.185 761.76 171.776C761.76 174.367 761.296 176.725 760.368 178.852C759.44 180.979 758.183 182.661 756.598 183.898C755.051 185.097 753.369 185.696 751.552 185.696C750.044 185.696 748.691 185.213 747.492 184.246C746.293 183.241 745.404 182.042 744.824 180.65L744.592 180.708V195.672C744.592 196.136 744.689 196.465 744.882 196.658C745.075 196.851 745.404 196.948 745.868 196.948H748.884V198.34H736.124V196.948ZM750.914 184.072C752.809 184.072 754.239 183.009 755.206 180.882C756.173 178.755 756.656 175.72 756.656 171.776C756.656 167.832 756.173 164.797 755.206 162.67C754.239 160.543 752.809 159.48 750.914 159.48C749.754 159.48 748.691 159.905 747.724 160.756C746.757 161.607 745.984 162.786 745.404 164.294C744.863 165.763 744.592 167.368 744.592 169.108V174.444C744.592 176.184 744.863 177.808 745.404 179.316C745.984 180.785 746.757 181.945 747.724 182.796C748.691 183.647 749.754 184.072 750.914 184.072ZM766.724 183.608H769.16C769.624 183.608 769.952 183.511 770.146 183.318C770.339 183.125 770.436 182.796 770.436 182.332V161.22C770.436 160.756 770.339 160.427 770.146 160.234C769.952 160.041 769.624 159.944 769.16 159.944H766.724V158.552H778.324V159.944H775.888C775.424 159.944 775.095 160.041 774.902 160.234C774.708 160.427 774.612 160.756 774.612 161.22V170.616H781.34C782.964 170.616 784.414 170.945 785.69 171.602C786.966 172.221 787.971 173.091 788.706 174.212C789.44 175.295 789.808 176.493 789.808 177.808C789.808 179.084 789.402 180.283 788.59 181.404C787.816 182.487 786.772 183.357 785.458 184.014C784.182 184.671 782.809 185 781.34 185H766.724V183.608ZM788.996 183.608H791.432C791.896 183.608 792.224 183.511 792.418 183.318C792.611 183.125 792.708 182.796 792.708 182.332V161.22C792.708 160.756 792.611 160.427 792.418 160.234C792.224 160.041 791.896 159.944 791.432 159.944H788.996V158.552H800.596V159.944H798.16C797.696 159.944 797.367 160.041 797.174 160.234C796.98 160.427 796.884 160.756 796.884 161.22V182.332C796.884 182.796 796.98 183.125 797.174 183.318C797.367 183.511 797.696 183.608 798.16 183.608H800.596V185H788.996V183.608ZM779.716 183.608C781.34 183.608 782.577 183.067 783.428 181.984C784.278 180.901 784.704 179.509 784.704 177.808C784.704 176.107 784.259 174.715 783.37 173.632C782.519 172.549 781.301 172.008 779.716 172.008H774.612V182.332C774.612 182.796 774.708 183.125 774.902 183.318C775.095 183.511 775.424 183.608 775.888 183.608H779.716ZM818.353 156.348C817.27 156.348 816.11 156.135 814.873 155.71C813.674 155.285 812.649 154.666 811.799 153.854C810.987 153.042 810.581 152.095 810.581 151.012C810.581 149.891 810.851 149.021 811.393 148.402C811.934 147.745 812.688 147.416 813.655 147.416C814.428 147.416 815.027 147.609 815.453 147.996C815.917 148.383 816.149 148.905 816.149 149.562C816.149 150.219 815.936 150.722 815.511 151.07C815.085 151.379 814.66 151.534 814.235 151.534C813.848 151.534 813.558 151.631 813.365 151.824C813.171 151.979 813.075 152.269 813.075 152.694C813.075 153.429 813.597 153.951 814.641 154.26C815.723 154.569 816.961 154.724 818.353 154.724C819.745 154.724 820.963 154.569 822.007 154.26C823.089 153.951 823.631 153.429 823.631 152.694C823.631 152.269 823.534 151.979 823.341 151.824C823.147 151.631 822.857 151.534 822.471 151.534C822.045 151.534 821.62 151.379 821.195 151.07C820.769 150.722 820.557 150.219 820.557 149.562C820.557 148.905 820.769 148.383 821.195 147.996C821.659 147.609 822.277 147.416 823.051 147.416C824.017 147.416 824.771 147.745 825.313 148.402C825.854 149.021 826.125 149.891 826.125 151.012C826.125 152.095 825.699 153.042 824.849 153.854C824.037 154.666 823.012 155.285 821.775 155.71C820.576 156.135 819.435 156.348 818.353 156.348ZM805.013 183.608H807.449C807.913 183.608 808.241 183.511 808.435 183.318C808.628 183.125 808.725 182.796 808.725 182.332V161.22C808.725 160.756 808.628 160.427 808.435 160.234C808.241 160.041 807.913 159.944 807.449 159.944H805.013V158.552H816.613V159.944H814.177C813.713 159.944 813.384 160.041 813.191 160.234C812.997 160.427 812.901 160.756 812.901 161.22V178.272L823.921 162.728V161.22C823.921 160.756 823.824 160.427 823.631 160.234C823.437 160.041 823.109 159.944 822.645 159.944H820.209V158.552H831.809V159.944H829.373C828.909 159.944 828.58 160.041 828.387 160.234C828.193 160.427 828.097 160.756 828.097 161.22V182.332C828.097 182.796 828.193 183.125 828.387 183.318C828.58 183.511 828.909 183.608 829.373 183.608H831.809V185H820.209V183.608H822.645C823.109 183.608 823.437 183.511 823.631 183.318C823.824 183.125 823.921 182.796 823.921 182.332V165.28L812.901 180.824V182.332C812.901 182.796 812.997 183.125 813.191 183.318C813.384 183.511 813.713 183.608 814.177 183.608H816.613V185H805.013V183.608ZM864.425 185.696C862.183 185.696 860.191 185.077 858.451 183.84C856.75 182.603 855.416 180.921 854.449 178.794C853.521 176.667 853.057 174.328 853.057 171.776C853.057 169.224 853.541 166.885 854.507 164.758C855.474 162.631 856.808 160.949 858.509 159.712C860.249 158.475 862.221 157.856 864.425 157.856C866.204 157.856 867.751 158.243 869.065 159.016C870.38 159.751 871.385 160.717 872.081 161.916C872.777 163.076 873.125 164.255 873.125 165.454C873.125 166.653 872.816 167.6 872.197 168.296C871.579 168.953 870.825 169.282 869.935 169.282C869.162 169.282 868.505 169.031 867.963 168.528C867.461 168.025 867.209 167.426 867.209 166.73C867.209 166.034 867.403 165.454 867.789 164.99C868.176 164.526 868.64 164.217 869.181 164.062C869.8 163.869 870.109 163.521 870.109 163.018C870.109 162.554 869.897 162.032 869.471 161.452C869.085 160.872 868.466 160.369 867.615 159.944C866.765 159.48 865.701 159.248 864.425 159.248C861.989 159.248 860.327 160.292 859.437 162.38C858.587 164.468 858.161 167.6 858.161 171.776C858.161 175.952 858.587 179.084 859.437 181.172C860.288 183.26 861.951 184.304 864.425 184.304C866.784 184.304 868.601 183.473 869.877 181.81C871.153 180.147 871.927 178.195 872.197 175.952H873.589C873.473 177.537 873.067 179.084 872.371 180.592C871.675 182.061 870.651 183.279 869.297 184.246C867.944 185.213 866.32 185.696 864.425 185.696ZM881.161 185.696C879.421 185.696 878.164 185.193 877.391 184.188C876.618 183.183 876.231 182.158 876.231 181.114C876.231 179.993 876.502 179.084 877.043 178.388C877.623 177.692 878.435 177.344 879.479 177.344C880.291 177.344 880.91 177.615 881.335 178.156C881.799 178.659 882.031 179.277 882.031 180.012C882.031 180.476 881.915 180.921 881.683 181.346C881.451 181.771 881.161 182.061 880.813 182.216C880.349 182.409 880.117 182.815 880.117 183.434C880.117 183.666 880.214 183.879 880.407 184.072C880.639 184.227 880.871 184.304 881.103 184.304C882.65 184.304 883.829 183.511 884.641 181.926C885.453 180.341 886.033 177.711 886.381 174.038L886.903 167.832C887.135 164.971 887.251 162.883 887.251 161.568C887.251 160.988 887.154 160.582 886.961 160.35C886.768 160.079 886.323 159.944 885.627 159.944H883.423V158.552H902.563V159.944H900.127C899.663 159.944 899.334 160.041 899.141 160.234C898.948 160.427 898.851 160.756 898.851 161.22V182.332C898.851 182.796 898.948 183.125 899.141 183.318C899.334 183.511 899.663 183.608 900.127 183.608H902.505V185H890.905V183.608H893.399C893.863 183.608 894.192 183.511 894.385 183.318C894.578 183.125 894.675 182.796 894.675 182.332V161.22C894.675 160.756 894.578 160.427 894.385 160.234C894.192 160.041 893.863 159.944 893.399 159.944H891.485C890.557 159.944 889.88 160.292 889.455 160.988C889.068 161.645 888.817 162.689 888.701 164.12L887.831 174.502C887.56 178.059 886.903 180.824 885.859 182.796C884.815 184.729 883.249 185.696 881.161 185.696ZM906.966 183.608H909.402C909.866 183.608 910.194 183.511 910.388 183.318C910.581 183.125 910.678 182.796 910.678 182.332V161.22C910.678 160.756 910.581 160.427 910.388 160.234C910.194 160.041 909.866 159.944 909.402 159.944H906.966V158.552H918.566V159.944H916.13C915.666 159.944 915.337 160.041 915.144 160.234C914.95 160.427 914.854 160.756 914.854 161.22V170.616H921.582C923.206 170.616 924.656 170.945 925.932 171.602C927.208 172.221 928.213 173.091 928.948 174.212C929.682 175.295 930.05 176.493 930.05 177.808C930.05 179.084 929.644 180.283 928.832 181.404C928.058 182.487 927.014 183.357 925.7 184.014C924.424 184.671 923.051 185 921.582 185H906.966V183.608ZM929.238 183.608H931.674C932.138 183.608 932.466 183.511 932.66 183.318C932.853 183.125 932.95 182.796 932.95 182.332V161.22C932.95 160.756 932.853 160.427 932.66 160.234C932.466 160.041 932.138 159.944 931.674 159.944H929.238V158.552H940.838V159.944H938.402C937.938 159.944 937.609 160.041 937.416 160.234C937.222 160.427 937.126 160.756 937.126 161.22V182.332C937.126 182.796 937.222 183.125 937.416 183.318C937.609 183.511 937.938 183.608 938.402 183.608H940.838V185H929.238V183.608ZM919.958 183.608C921.582 183.608 922.819 183.067 923.67 181.984C924.52 180.901 924.946 179.509 924.946 177.808C924.946 176.107 924.501 174.715 923.612 173.632C922.761 172.549 921.543 172.008 919.958 172.008H914.854V182.332C914.854 182.796 914.95 183.125 915.144 183.318C915.337 183.511 915.666 183.608 916.13 183.608H919.958ZM942.253 183.608H944.689C945.153 183.608 945.481 183.511 945.675 183.318C945.868 183.125 945.965 182.796 945.965 182.332V161.22C945.965 160.756 945.868 160.427 945.675 160.234C945.481 160.041 945.153 159.944 944.689 159.944H942.253V158.552H953.853V159.944H951.417C950.953 159.944 950.624 160.041 950.431 160.234C950.237 160.427 950.141 160.756 950.141 161.22V182.332C950.141 182.796 950.237 183.125 950.431 183.318C950.624 183.511 950.953 183.608 951.417 183.608H958.725C959.189 183.608 959.517 183.511 959.711 183.318C959.904 183.125 960.001 182.796 960.001 182.332V161.22C960.001 160.756 959.904 160.427 959.711 160.234C959.517 160.041 959.189 159.944 958.725 159.944H956.289V158.552H967.889V159.944H965.453C964.989 159.944 964.66 160.041 964.467 160.234C964.273 160.427 964.177 160.756 964.177 161.22V182.332C964.177 182.796 964.273 183.125 964.467 183.318C964.66 183.511 964.989 183.608 965.453 183.608H972.761C973.225 183.608 973.553 183.511 973.747 183.318C973.94 183.125 974.037 182.796 974.037 182.332V161.22C974.037 160.756 973.94 160.427 973.747 160.234C973.553 160.041 973.225 159.944 972.761 159.944H970.325V158.552H981.925V159.944H979.489C979.025 159.944 978.696 160.041 978.503 160.234C978.309 160.427 978.213 160.756 978.213 161.22V182.332C978.213 182.796 978.309 183.125 978.503 183.318C978.696 183.511 979.025 183.608 979.489 183.608H981.925V185H942.253V183.608ZM986.433 183.608H988.869C989.333 183.608 989.661 183.511 989.855 183.318C990.048 183.125 990.145 182.796 990.145 182.332V161.22C990.145 160.756 990.048 160.427 989.855 160.234C989.661 160.041 989.333 159.944 988.869 159.944H986.433V158.552H998.033V159.944H995.597C995.133 159.944 994.804 160.041 994.611 160.234C994.417 160.427 994.321 160.756 994.321 161.22V170.5H1005.92V161.22C1005.92 160.756 1005.82 160.427 1005.63 160.234C1005.44 160.041 1005.11 159.944 1004.64 159.944H1002.21V158.552H1013.81V159.944H1011.37C1010.91 159.944 1010.58 160.041 1010.39 160.234C1010.19 160.427 1010.1 160.756 1010.1 161.22V182.332C1010.1 182.796 1010.19 183.125 1010.39 183.318C1010.58 183.511 1010.91 183.608 1011.37 183.608H1013.81V185H1002.21V183.608H1004.64C1005.11 183.608 1005.44 183.511 1005.63 183.318C1005.82 183.125 1005.92 182.796 1005.92 182.332V171.892H994.321V182.332C994.321 182.796 994.417 183.125 994.611 183.318C994.804 183.511 995.133 183.608 995.597 183.608H998.033V185H986.433V183.608ZM1030.39 185.696C1028.26 185.696 1026.31 185.077 1024.53 183.84C1022.75 182.564 1021.34 180.863 1020.3 178.736C1019.29 176.609 1018.79 174.289 1018.79 171.776C1018.79 169.263 1019.29 166.943 1020.3 164.816C1021.34 162.689 1022.75 161.007 1024.53 159.77C1026.31 158.494 1028.26 157.856 1030.39 157.856C1032.51 157.856 1034.47 158.494 1036.25 159.77C1038.02 161.007 1039.42 162.689 1040.42 164.816C1041.47 166.943 1041.99 169.263 1041.99 171.776C1041.99 174.289 1041.47 176.609 1040.42 178.736C1039.42 180.863 1038.02 182.564 1036.25 183.84C1034.47 185.077 1032.51 185.696 1030.39 185.696ZM1030.39 184.304C1032.71 184.304 1034.37 183.221 1035.38 181.056C1036.38 178.852 1036.88 175.759 1036.88 171.776C1036.88 167.793 1036.38 164.719 1035.38 162.554C1034.37 160.35 1032.71 159.248 1030.39 159.248C1028.07 159.248 1026.41 160.35 1025.4 162.554C1024.39 164.719 1023.89 167.793 1023.89 171.776C1023.89 175.759 1024.39 178.852 1025.4 181.056C1026.41 183.221 1028.07 184.304 1030.39 184.304Z" fill="#AE9090"/>
</svg>
