<svg width="68" height="68" viewBox="0 0 68 68" fill="none" xmlns="http://www.w3.org/2000/svg">
<path d="M34 68C15.2476 68 0 52.7524 0 34C0 15.2476 15.2476 0 34 0C52.7523 0 68 15.2476 68 34C68 52.7524 52.7523 68 34 68Z" fill="#58595B"/>
<path d="M34 68C15.2476 68 0 52.7524 0 34C0 15.2476 15.2476 0 34 0C52.7523 0 68 15.2476 68 34C68 52.7524 52.7523 68 34 68Z" fill="#6D6D6D" fill-opacity="0.6"/>
<path d="M33.5 67C15.0322 67 0 51.9678 0 33.5C0 15.0322 15.0182 0 33.5 0C51.9818 0 67 15.0322 67 33.5C67 51.9678 51.9678 67 33.5 67Z" fill="url(#paint0_radial_9_523)"/>
<path d="M60 34C60 48.3496 48.3633 60 34 60C19.6367 60 8 48.3634 8 34C8 19.6367 19.6504 8 34 8C48.3496 8 60 19.6367 60 34Z" fill="#0B0B0B" fill-opacity="0.3"/>
<path d="M64 34C64 50.5657 50.5688 64 34.007 64C17.4451 64 4 50.5797 4 34C4 17.4203 17.4312 4 33.993 4C50.5549 4 63.986 17.4343 63.986 34H64Z" fill="url(#paint1_linear_9_523)"/>
<path d="M64.9996 34.4999C64.9996 51.3438 51.3436 64.9999 34.4998 64.9999C17.656 64.9999 4 51.3438 4 34.4999C4 17.6561 17.656 4 34.4998 4C51.3436 4 64.9996 17.6561 64.9996 34.4999Z" fill="#F7F9F9"/>
<path d="M65 35.0071C65 51.5758 51.5585 65 35 65C18.4415 65 5 51.5758 5 35.0071C5 18.4383 18.4274 5 35 5C51.5726 5 65 18.4242 65 34.993V35.0071Z" fill="url(#paint2_linear_9_523)"/>
<path d="M62 33.5C62 49.2413 49.2413 62 33.5 62C17.7587 62 5 49.2413 5 33.5C5 17.7587 17.7587 5 33.5 5C49.2413 5 62 17.7587 62 33.5Z" fill="url(#paint3_linear_9_523)"/>
<path d="M62.3522 33.7158C62.5492 18.253 50.1739 5.5583 34.7112 5.36128C19.2485 5.16426 6.55375 17.5396 6.35673 33.0023C6.15971 48.465 18.535 61.1597 33.9977 61.3567C49.4604 61.5538 62.1552 49.1785 62.3522 33.7158Z" fill="url(#paint4_linear_9_523)"/>
<path d="M62 35C62 49.9148 49.9148 62 35 62C20.0852 62 8 49.9148 8 35C8 20.0852 20.0852 8 35 8C49.9148 8 62 20.0852 62 35Z" fill="url(#paint5_linear_9_523)"/>
<path d="M46 34L28 44.3923L28 23.6077L46 34Z" fill="#E6B0B5"/>
<defs>
<radialGradient id="paint0_radial_9_523" cx="0" cy="0" r="1" gradientUnits="userSpaceOnUse" gradientTransform="translate(33.5 33.5) scale(33.5)">
<stop stop-color="#ECECEC"/>
<stop offset="0.67" stop-color="#AE868A"/>
</radialGradient>
<linearGradient id="paint1_linear_9_523" x1="33.993" y1="4" x2="33.993" y2="64.014" gradientUnits="userSpaceOnUse">
<stop offset="0.09" stop-color="white"/>
<stop offset="1" stop-color="#D9D9D9"/>
</linearGradient>
<linearGradient id="paint2_linear_9_523" x1="5" y1="35.0071" x2="65" y2="35.0071" gradientUnits="userSpaceOnUse">
<stop offset="0.09" stop-color="#F8FAFA"/>
<stop offset="1" stop-color="#F2F4F5"/>
</linearGradient>
<linearGradient id="paint3_linear_9_523" x1="5" y1="33.5" x2="62" y2="33.5" gradientUnits="userSpaceOnUse">
<stop offset="0.09" stop-color="#FAFBFB"/>
<stop offset="1" stop-color="#EEF0F0"/>
</linearGradient>
<linearGradient id="paint4_linear_9_523" x1="6.33556" y1="33.3718" x2="62.3496" y2="33.3718" gradientUnits="userSpaceOnUse">
<stop offset="0.09" stop-color="#FBFCFC"/>
<stop offset="1" stop-color="#E9EBEC"/>
</linearGradient>
<linearGradient id="paint5_linear_9_523" x1="8" y1="35" x2="62" y2="35" gradientUnits="userSpaceOnUse">
<stop offset="0.09" stop-color="#FCFDFD"/>
<stop offset="1" stop-color="#E5E6E7"/>
</linearGradient>
</defs>
</svg>
